<?xml version="1.0" encoding="UTF-8"?><svg xmlns="http://www.w3.org/2000/svg" width="100%" height="100%"><defs><font id="web" horiz-adv-x="356"><!--



NOTICE: This font software is the valuable property 
of Webtype LLC, The Font Bureau, Ascender Corp and/or 
its suppliers and its use by you is covered under the 
terms of the Web Font license agreement between you 
and Webtype LLC. You may ONLY use this font software 
with the licensed web site. Except as specifically 
permitted by the license, you may not copy this font 
software. If you have any questions, please contact 
Webtype.com. 

For more information, please visit http://www.webtype.com/store/license/?id=23

Licensed to: ford.com

Serial number: SH-229
--><font-face font-family="" units-per-em="512" panose-1="2 0 8 5 0 0 0 9 0 4" ascent="579" descent="-184" alphabetic="0"/><missing-glyph horiz-adv-x="284" d="M10 369H274V0H10V369ZM37 27H247V343H37V27Z"/><glyph unicode=" " horiz-adv-x="113"/><glyph unicode="!" horiz-adv-x="232" d="M46 93H143L122 0H26L46 93ZM112 390H203L140 133H66L112 390Z"/><glyph unicode="&quot;" horiz-adv-x="325" d="M97 390H183L139 210H64L97 390ZM225 390H312L267 210H192L225 390Z"/><glyph unicode="#" horiz-adv-x="427" d="M87 94H19L35 166H103L112 212H44L60 284H127L149 390H228L206 284H258L280 390H359L337 284H408L392 212H322L313 166H383L367 94H297L278 0H198L218 94H167L147 0H68L87 94ZM239 162L250 216H185L174 162H239Z"/><glyph unicode="$" horiz-adv-x="371" d="M169 0Q107 0 65 13T-5 50L42 107Q67 87 96 76T171 65Q208 65 224 78T241 118Q241 139 224 147T171 166Q149 171 129 178T94 196T69 225T59 267Q59 301 71 324T103 363T150 384T208 391Q266 391 300 380T351 355L304 295Q288 306 262 314T201 322Q167 322 154 310T141 276Q141 254 160 246T216 229Q237 223 256 216T289 198T313 171T322 129Q322 65 281 33T169 0ZM115 38H191L173 -49H97L115 38ZM197 428H275L257 345H180L197 428Z"/><glyph unicode="%" horiz-adv-x="657" d="M148 139Q92 139 65 166T38 238Q38 277 49 307T80 357T124 387T176 398Q232 398 259 370T286 296Q286 258 275 229T245 180T201 150T148 139ZM154 201Q182 201 197 228T212 293Q212 311 204 322T172 334Q146 334 130 309T113 241Q113 222 122 212T154 201ZM482 -6Q426 -6 399 21T372 94Q372 133 383 162T414 212T458 242T510 252Q566 252 593 224T620 150Q620 114 609 85T579 36T535 5T482 -6ZM488 56Q502 56 512 63T530 84T542 113T546 147Q546 166 537 178T505 190Q479 190 463 165T447 97Q447 78 456 67T488 56ZM441 390H518L218 0H141L441 390Z"/><glyph unicode="&amp;" horiz-adv-x="467" d="M162 -5Q82 -5 45 19T7 92Q7 129 19 153T50 194T92 220T140 236L176 238Q214 246 235 261T256 302Q256 329 226 329Q209 329 200 318T190 278Q190 262 195 244T208 207T226 173T248 143Q271 116 291 102T328 81T359 73T385 71H396L382 0H375Q344 0 320 3T273 18T227 50T177 105Q149 138 130 183T110 273Q110 308 120 332T147 370T185 391T228 398Q281 398 305 375T330 312Q330 279 319 257T288 219T243 193T190 175L156 174Q128 164 109 149T90 102Q90 94 93 87T106 73T130 64T171 60Q230 60 271 103T347 234L412 213Q392 160 368 119T314 51T247 9T162 -5Z"/><glyph unicode="'" horiz-adv-x="197" d="M97 391H183L139 210H64L97 391Z"/><glyph unicode="(" horiz-adv-x="295" d="M110 -101Q87 -75 67 -26T47 90Q47 144 63 195T104 290T160 368T221 422L273 379Q245 357 220 326T175 257T144 176T132 87Q132 36 147 -5T177 -67L110 -101V-101Z"/><glyph unicode=")" horiz-adv-x="295" d="M8 -59Q36 -37 61 -6T106 64T137 145T149 234Q149 285 134 326T104 387L172 422Q194 395 214 347T235 231Q235 177 219 126T178 31T121 -47T60 -101L8 -59Z"/><glyph unicode="*" horiz-adv-x="341" d="M122 134L148 216L66 184L46 248L133 268L61 321L106 372L168 309L178 394L241 382L215 298L298 332L319 268L231 247L303 194L259 144L196 207L185 121L122 134Z"/><glyph unicode="+" horiz-adv-x="401" d="M150 148H49L66 224H166L187 322H269L248 224H348L332 148H232L211 48H128L150 148Z"/><glyph unicode="," horiz-adv-x="174" d="M-9 -42Q22 -31 31 -23T43 0H-2L18 95H114L98 15Q93 -9 87 -24T70 -49T43 -67T3 -82L-9 -42Z"/><glyph unicode="-" horiz-adv-x="245" d="M34 210H217L201 136H18L34 210Z"/><glyph unicode="." horiz-adv-x="174" d="M18 95H114L93 0H-2L18 95Z"/><glyph unicode="/" horiz-adv-x="323" d="M269 390H357L55 0H-33L269 390Z"/><glyph unicode="0" horiz-adv-x="417" d="M183 -6Q104 -6 69 29T34 131Q34 167 43 212Q64 311 111 354T235 398Q313 398 348 361T383 257Q383 220 374 177Q353 78 306 36T183 -6ZM190 66Q232 66 253 95T288 186Q292 204 294 220T297 251Q297 285 282 303T227 321Q185 321 163 293T128 203Q124 184 122 168T119 136Q119 103 135 85T190 66Z"/><glyph unicode="1" horiz-adv-x="306" d="M13 69H102L155 316H66L82 390H253L184 69H267L253 0H-2L13 69Z"/><glyph unicode="2" horiz-adv-x="350" d="M0 65L150 175Q178 196 196 210T225 236T240 259T244 286Q244 303 231 313T179 324Q159 324 132 320T84 307L59 372Q86 383 119 390T190 398Q263 398 296 373T329 303Q329 274 323 253T303 215T267 179T214 138L119 69H283L269 0H-14L0 65Z"/><glyph unicode="3" d="M153 -6Q92 -6 52 7T-19 42L31 102Q57 83 87 73T154 63Q184 63 203 76T223 130Q223 153 209 163T157 173H94L109 243H185Q214 243 230 252T246 294Q246 310 233 318T183 327Q164 327 136 322T86 307L55 370Q71 378 89 383T127 392T165 396T198 398Q332 398 332 313Q332 263 315 240T267 208Q306 191 306 132Q306 93 295 67T263 25T215 1T153 -6Z"/><glyph unicode="4" horiz-adv-x="378" d="M17 142L242 390H333L112 146H345L330 80H4L17 142ZM206 140L249 257H308L253 0H177L206 140Z"/><glyph unicode="5" horiz-adv-x="364" d="M162 -6Q105 -6 63 9T-1 42L48 102Q74 82 105 73T171 63Q185 63 198 66T220 78T236 101T242 139Q242 171 223 182T171 193Q156 193 142 190T111 179L46 200L97 390H349L333 320H156L137 249Q151 257 168 259T204 261Q230 261 253 257T292 240T318 206T328 149Q328 102 316 72T281 25T228 1T162 -6Z"/><glyph unicode="6" horiz-adv-x="394" d="M183 -6Q100 -6 64 29T28 127Q28 153 36 187Q48 247 67 286T115 348T186 381T284 390H349L333 320H281Q238 320 212 314T169 296T145 270T132 238Q145 252 170 259T231 267Q265 267 288 260T325 239T346 207T353 167Q353 86 310 40T183 -6ZM186 62Q234 62 251 86T269 149Q269 172 254 186T195 200Q178 200 163 197T137 185T118 161T111 121Q111 62 186 62Z"/><glyph unicode="7" horiz-adv-x="320" d="M231 320H43L57 390H339L326 331L117 0H26L231 320Z"/><glyph unicode="8" horiz-adv-x="399" d="M175 -8Q130 -8 100 0T51 22T24 54T16 94Q16 139 37 169T105 213Q82 225 76 243T69 282Q69 306 77 327T103 364T149 389T218 398Q264 398 294 391T342 371T367 342T374 306Q374 271 360 244T308 208Q335 196 342 177T349 130Q349 68 307 30T175 -8ZM183 58Q221 58 242 74T264 128Q264 151 247 163T184 176Q146 176 124 160T102 105Q102 83 119 71T183 58ZM218 239Q255 239 272 251T290 294Q290 311 276 321T219 332Q182 332 165 320T148 278Q148 260 162 250T218 239Z"/><glyph unicode="9" horiz-adv-x="394" d="M60 69H113Q156 69 182 75T225 93T250 119T263 152Q250 138 224 131T163 124Q96 124 69 152T42 225Q42 306 85 352T211 398Q294 398 330 362T366 265Q366 235 359 204Q346 144 327 105T279 42T208 9T110 0H45L60 69ZM198 188Q215 188 230 191T257 204T276 228T283 268Q283 295 265 310T209 325Q161 325 143 301T125 238Q125 215 140 202T198 188Z"/><glyph unicode=":" horiz-adv-x="185" d="M22 92H118L100 0H3L22 92ZM67 299H162L144 207H47L67 299Z"/><glyph unicode=";" horiz-adv-x="185" d="M-3 -42Q27 -31 36 -23T48 0H3L22 92H118L103 15Q97 -9 91 -24T74 -49T48 -67T8 -82L-3 -42ZM67 299H162L144 207H47L67 299Z"/><glyph unicode="&lt;" horiz-adv-x="401" d="M60 154L72 211L342 332L325 256L152 182L293 108L278 33L60 154Z"/><glyph unicode="=" horiz-adv-x="401" d="M54 159H331L316 84H39L54 159ZM82 286H358L343 213H67L82 286Z"/><glyph unicode="&gt;" horiz-adv-x="401" d="M71 108L244 182L103 256L118 332L337 210L324 153L55 33L71 108Z"/><glyph unicode="?" horiz-adv-x="388" d="M127 123Q131 150 136 168T151 199T177 220T219 236Q255 246 267 255T280 288Q280 303 266 313T208 323Q185 323 159 319T107 305L81 373Q113 387 154 392T223 398Q299 398 333 375T368 308Q368 282 363 263T347 229T317 205T272 186Q252 180 241 176T223 165T213 148T207 123H127ZM111 82H207L189 0H93L111 82Z"/><glyph unicode="@" horiz-adv-x="580" d="M288 -87Q227 -87 180 -75T101 -34T53 41T36 153Q36 221 54 267T104 343T181 385T279 398Q333 398 378 385T456 343T506 268T524 153Q524 113 519 87T500 44T467 22T419 15Q381 15 360 24T331 51Q314 34 292 27T231 19Q203 19 184 26T153 47T136 78T131 116Q131 150 138 182T161 239T202 279T263 294Q306 294 325 286T355 266L376 289L424 284L388 113Q381 81 389 69T430 57Q446 57 455 61T470 77T477 107T479 153Q479 209 465 247T426 309T363 343T279 354Q234 354 198 344T135 310T95 248T81 153Q81 99 95 62T135 1T200 -33T288 -43Q326 -43 363 -36T426 -14L446 -54Q414 -69 374 -78T288 -87ZM255 81Q281 81 299 95T325 148Q328 166 328 180Q328 202 316 215T272 228Q255 228 243 220T222 199T211 167T207 128Q207 108 217 95T255 81Z"/><glyph unicode="A" horiz-adv-x="423" d="M211 393H294L359 0H274L263 64H105L68 0H-24L211 393ZM253 136L229 283L145 136H253Z"/><glyph unicode="B" horiz-adv-x="408" d="M90 390H238Q282 390 311 385T359 369T384 343T392 309Q392 261 373 235T322 201Q347 191 355 173T364 129Q364 91 353 66T321 27T268 6T196 0H7L90 390ZM215 72Q245 72 261 83T277 125Q277 142 263 151T214 160H126L108 72H215ZM241 235Q274 235 287 248T300 285Q300 300 287 308T235 317H159L142 235H241Z"/><glyph unicode="C" horiz-adv-x="411" d="M204 -6Q155 -6 121 5T64 36T32 84T22 147Q22 163 23 180T30 215Q41 269 62 304T112 360T175 389T245 398Q281 398 307 393T353 378T385 358T408 336L338 279Q324 296 301 307T244 318Q193 318 162 292T116 205Q111 177 111 159Q111 118 134 95T212 71Q242 71 265 80T307 104L355 42Q326 18 291 6T204 -6Z"/><glyph unicode="D" horiz-adv-x="428" d="M90 390H190Q306 390 356 358T406 250Q406 233 404 214T396 173Q384 116 364 82T316 30T253 6T175 0H7L90 390ZM177 75Q209 75 231 79T268 96T292 129T310 183Q316 214 316 238Q316 276 291 294T203 313H160L110 75H177Z"/><glyph unicode="E" horiz-adv-x="376" d="M91 390H378L361 313H160L145 237H341L324 162H128L110 75H313L297 0H8L91 390Z"/><glyph unicode="F" horiz-adv-x="354" d="M91 390H365L348 313H160L143 229H325L309 151H126L94 0H8L91 390Z"/><glyph unicode="G" horiz-adv-x="435" d="M207 -6Q109 -6 66 34T22 146Q22 167 24 183T30 215Q49 309 103 353T245 398Q311 398 352 379T411 336L341 279Q329 293 307 305T240 318Q186 318 156 289T115 205Q110 182 110 159Q110 115 133 91T213 67Q262 67 282 84T312 147L313 156H210L224 228H413L398 159Q389 112 375 80T338 29T283 2T207 -6Z"/><glyph unicode="H" horiz-adv-x="443" d="M91 390H178L146 241H317L350 390H436L353 0H266L300 161H128L94 0H8L91 390Z"/><glyph unicode="I" horiz-adv-x="195" d="M97 390H183L100 0H14L97 390Z"/><glyph unicode="J" horiz-adv-x="250" d="M-3 75H36Q68 75 81 86T102 125L158 390H245L185 113Q177 76 163 54T131 19T90 3T46 -1Q26 -1 16 -1T1 -1T-9 -1T-20 0L-3 75Z"/><glyph unicode="K" horiz-adv-x="410" d="M91 390H176L140 226L308 390H410L251 237L346 0H255L184 175L115 109L92 0H8L91 390Z"/><glyph unicode="L" horiz-adv-x="335" d="M91 390H178L110 75H291L276 0H8L91 390Z"/><glyph unicode="M" horiz-adv-x="525" d="M91 390H204L247 129L401 390H518L434 0H350L407 264L248 0H187L141 263L85 0H8L91 390Z"/><glyph unicode="N" horiz-adv-x="443" d="M91 390H184L299 139L353 390H436L353 0H273L148 270L90 0H8L91 390Z"/><glyph unicode="O" horiz-adv-x="464" d="M215 -6Q124 -6 74 34T23 153Q23 185 30 217Q42 272 64 307T116 362T180 390T250 398Q338 398 389 358T441 239Q441 224 439 209T433 176Q421 121 399 86T347 30T283 2T215 -6ZM216 70Q271 70 302 97T346 182Q348 195 349 206T351 228Q351 268 328 293T246 318Q191 318 160 291T116 206Q114 195 113 184T112 162Q112 120 135 95T216 70Z"/><glyph unicode="P" horiz-adv-x="410" d="M90 390H249Q293 390 322 382T369 361T394 328T401 288Q401 252 392 222T364 168T313 132T237 119H117L91 0H7L90 390ZM235 194Q272 194 292 211T312 273Q312 294 295 305T238 317H159L133 194H235Z"/><glyph unicode="Q" horiz-adv-x="464" d="M215 -2H213Q212 -8 212 -13Q211 -22 214 -26T227 -32T252 -34H292L278 -103Q270 -104 258 -104H238Q200 -104 177 -98T143 -77T133 -41Q134 -22 140 5Q100 15 73 36Q23 74 23 153Q22 168 24 184T30 217Q42 272 64 307T116 362T180 390T250 398Q341 398 391 357T441 239Q441 224 439 209T433 176Q421 121 399 86T347 32T283 5T215 -2ZM216 70Q271 70 302 97T346 182Q348 195 349 206T351 228Q351 268 328 293T246 318Q191 318 160 291T116 206Q114 195 113 184T112 162Q112 120 135 95T216 70Z"/><glyph unicode="R" horiz-adv-x="417" d="M90 390H242Q288 390 318 382T367 361T392 329T399 291Q399 258 392 229T366 178T316 143Q303 137 287 134L333 0H246L201 130H119L91 0H7L90 390ZM236 204Q273 204 291 220T310 273Q310 317 235 317H159L136 204H236Z"/><glyph unicode="S" horiz-adv-x="400" d="M185 -6Q114 -6 67 12T-12 53L44 113Q70 91 106 79T189 66Q226 66 246 75T266 110Q266 122 262 129T247 141T220 151T181 162Q154 169 132 177T93 197T67 227T57 272Q57 308 69 332T103 371T153 392T214 398Q250 398 277 394T324 382T359 366T384 350L327 286Q311 299 282 310T211 321Q179 321 162 313T145 279Q145 259 165 250T220 233Q247 227 271 220T314 201T344 172T355 128Q355 56 309 25T185 -6Z"/><glyph unicode="T" horiz-adv-x="382" d="M173 313H43L59 390H407L390 313H259L193 0H107L173 313Z"/><glyph unicode="U" horiz-adv-x="440" d="M195 -7Q146 -7 115 2T65 28T40 65T33 109Q33 123 35 136T39 163L88 390H175L127 167Q125 155 124 145T122 126Q122 100 139 85T205 69Q253 69 272 89T301 154L351 390H435L381 138Q375 110 365 84T334 38T280 5T195 -7Z"/><glyph unicode="V" horiz-adv-x="423" d="M63 390H151L192 112L352 390H445L211 -3H127L63 390Z"/><glyph unicode="W" horiz-adv-x="580" d="M65 390H153L168 152L291 390H375L397 152L513 390H600L402 -3H328L305 261L169 -3H93L65 390Z"/><glyph unicode="X" horiz-adv-x="422" d="M171 217L190 224L330 390H426L255 194L237 187L77 0H-20L171 217ZM82 390H173L353 0H263L82 390Z"/><glyph unicode="Y" horiz-adv-x="410" d="M150 142L55 390H146L209 221L343 390H437L236 140L206 0H119L150 142Z"/><glyph unicode="Z" horiz-adv-x="374" d="M0 64L252 313H61L78 390H382L367 320L118 75H321L305 0H-15L0 64Z"/><glyph unicode="[" horiz-adv-x="292" d="M113 409H282L267 338H182L107 -18H193L178 -87H8L113 409Z"/><glyph unicode="\" horiz-adv-x="323" d="M54 390H134L269 0H189L54 390Z"/><glyph unicode="]" horiz-adv-x="292" d="M9 -18H95L172 338H86L102 409H270L164 -87H-5L9 -18Z"/><glyph unicode="^" horiz-adv-x="331" d="M168 664H253L313 568H237L200 613L144 568H67L168 664Z"/><glyph unicode="_" horiz-adv-x="259" d="M-55 -21H223L210 -82H-68L-55 -21Z"/><glyph unicode="`" horiz-adv-x="331" d="M93 443H189L243 347H172L93 443Z"/><glyph unicode="a" horiz-adv-x="354" d="M111 -5Q78 -5 57 1T23 18T6 45T1 80Q1 114 14 135T50 169T107 187T182 192H226L216 135H170Q124 135 104 127T83 90Q83 76 93 69T135 62Q168 62 182 74T205 124L219 186Q222 201 222 209Q222 221 211 227T164 233Q147 233 125 228T87 215L57 277Q76 289 108 297T180 305Q227 305 253 297T291 273T303 232T296 177L279 96Q276 80 277 74T299 69L284 1Q280 -1 272 -1T249 -1Q228 -1 219 4T205 27Q178 -5 111 -5Z"/><glyph unicode="b" horiz-adv-x="368" d="M185 -5Q137 -5 113 4T81 28L60 -3L2 3L88 409H171L143 280Q169 305 227 305Q259 305 280 297T314 274T332 239T338 197Q338 170 330 136Q317 71 285 33T185 -5ZM174 65Q209 65 224 85T247 142Q249 153 250 162T251 180Q251 202 240 216T195 230Q161 230 143 214T116 156Q114 145 113 136T111 117Q111 91 125 78T174 65Z"/><glyph unicode="c" horiz-adv-x="319" d="M150 -5Q111 -5 85 4T42 28T20 64T13 109Q13 137 19 166Q25 197 37 222T69 266T117 295T185 305Q237 305 264 290T309 253L242 201Q234 210 221 220T178 230Q146 230 128 212T102 152Q99 137 99 118Q99 95 111 80T157 65Q174 65 187 69T221 89L264 36Q237 13 209 4T150 -5Z"/><glyph unicode="d" horiz-adv-x="368" d="M123 -5Q91 -5 70 3T36 26T18 60T12 103Q12 118 14 133T19 165Q26 196 37 222T65 266T106 295T164 305Q209 305 230 296T259 274L289 409H372L285 3L221 -3V23Q207 9 184 2T123 -5ZM155 66Q190 66 207 81T235 141Q237 151 238 161T239 179Q239 204 225 217T176 231Q141 231 127 211T104 154Q102 144 101 135T100 116Q100 94 111 80T155 66Z"/><glyph unicode="e" horiz-adv-x="336" d="M149 -6Q110 -6 84 3T42 28T20 64T13 109Q13 137 19 166Q33 231 71 268T184 305Q220 305 243 297T280 276T299 246T305 211Q305 191 301 166T292 118H36L49 177H225Q226 182 226 187T227 197Q227 214 217 225T175 236Q138 236 122 214T97 154Q91 136 91 117Q91 92 105 77T158 61Q183 61 205 66T245 82L277 26Q248 6 215 0T149 -6Z"/><glyph unicode="f" horiz-adv-x="273" d="M117 322Q127 373 155 396T246 419Q264 419 277 419T298 418L283 350H247Q221 350 211 341T198 314L113 -87H29L117 322ZM45 299H273L258 228H30L45 299Z"/><glyph unicode="g" horiz-adv-x="358" d="M169 109Q138 109 114 113Q111 107 111 100Q111 92 115 88T137 83Q182 82 211 78T259 66T284 43T291 8Q291 -24 281 -44T250 -75T198 -91T124 -95Q40 -95 5 -78T-30 -21Q-30 17 -7 35T48 58Q38 71 38 94Q38 113 49 127Q54 133 58 137Q35 160 35 194Q35 254 69 279T178 305Q190 305 203 304L343 332L331 269H284Q292 261 299 250Q309 233 309 210Q309 157 275 133T169 109ZM139 -38Q175 -38 189 -31T204 -2Q204 13 185 19T117 25Q83 25 71 17T58 -8Q58 -22 75 -30T139 -38ZM170 165Q199 165 212 175T225 211Q225 226 214 233T172 241Q144 241 130 231T116 195Q116 181 127 173T170 165Z"/><glyph unicode="h" horiz-adv-x="360" d="M88 409H171L144 281Q155 292 174 298T219 305Q261 305 283 295T314 266T322 224T314 171L277 0H194L228 162Q231 176 233 188T231 209T216 223T183 228Q150 228 137 211T119 168L84 0H1L88 409Z"/><glyph unicode="i" horiz-adv-x="184" d="M73 299H155L92 0H9L73 299ZM95 409H179L163 332H79L95 409Z"/><glyph unicode="j" horiz-adv-x="184" d="M-30 -27H-23Q-4 -27 1 -19T12 12L73 299H155L93 4Q87 -26 79 -44T58 -73T29 -86T-12 -90H-44L-30 -27ZM95 409H179L163 332H79L95 409Z"/><glyph unicode="k" horiz-adv-x="329" d="M88 409H171L123 185L237 299H328L205 178L274 0H188L142 116L99 73L83 0H2L88 409Z"/><glyph unicode="l" horiz-adv-x="210" d="M92 -1Q47 -1 33 22T30 100L96 409H179L114 100Q110 82 113 76T136 69H151L136 1Q131 0 118 0T92 -1Z"/><glyph unicode="m" horiz-adv-x="542" d="M64 294L129 299V276Q144 289 164 297T217 305Q249 305 272 299T306 273Q319 287 343 296T404 305Q446 305 467 295T497 266T504 224T496 171L459 0H377L411 162Q414 176 415 188T414 209T400 223T368 228Q334 228 323 211T307 168L272 0H189L223 162Q226 176 228 188T227 209T214 223T181 228Q147 228 136 211T119 168L84 0H1L64 294Z"/><glyph unicode="n" horiz-adv-x="360" d="M64 294L129 299V276Q144 289 165 297T219 305Q261 305 283 295T314 266T322 224T314 171L277 0H194L228 162Q231 176 233 188T231 209T216 223T183 228Q150 228 137 211T119 168L84 0H1L64 294Z"/><glyph unicode="o" horiz-adv-x="358" d="M153 -6Q78 -6 46 26T13 113Q13 137 19 166Q36 241 77 273T186 305Q261 305 293 273T326 187Q326 162 320 135Q304 59 263 27T153 -6ZM158 65Q194 65 211 84T237 141Q239 149 240 158T241 175Q241 200 228 215T181 230Q145 230 128 211T102 152Q100 144 99 135T98 118Q98 95 111 80T158 65Z"/><glyph unicode="p" horiz-adv-x="368" d="M64 294L129 299V275Q144 289 166 297T227 305Q259 305 280 297T314 274T332 239T338 197Q338 170 330 136Q317 71 285 33T185 -5Q138 -5 118 3T89 26L66 -87H-17L64 294ZM174 65Q209 65 224 85T247 142Q249 153 250 162T251 180Q251 202 240 216T195 230Q161 230 143 214T116 156Q114 145 113 136T111 117Q111 91 125 78T174 65Z"/><glyph unicode="q" horiz-adv-x="368" d="M205 15Q191 5 172 0T123 -5Q91 -5 70 3T36 26T18 60T12 103Q12 118 14 133T19 165Q26 196 37 222T65 266T106 295T164 305Q209 305 233 298T270 273L291 300L348 296L266 -87H183L205 15ZM155 66Q190 66 207 81T235 141Q237 151 238 161T239 179Q239 204 225 217T176 231Q141 231 127 211T104 154Q102 144 101 135T100 116Q100 94 111 80T155 66Z"/><glyph unicode="r" horiz-adv-x="233" d="M64 294L129 299V264Q143 283 171 292T233 302L217 224Q188 223 170 219T142 205T126 183T116 152L84 0H2L64 294Z"/><glyph unicode="s" horiz-adv-x="311" d="M133 -5Q87 -5 49 8T-14 42L37 99Q57 84 86 73T141 62Q162 62 173 66T184 88Q184 101 167 107T128 118Q112 122 96 127T66 141T44 164T35 199Q35 258 71 281T168 305Q210 305 242 295T295 270L244 208Q230 216 209 224T159 233Q138 233 129 229T119 210Q119 197 133 191T173 180Q190 175 207 170T237 155T259 132T267 97Q267 68 258 49T230 17T188 0T133 -5Z"/><glyph unicode="t" horiz-adv-x="276" d="M145 -1Q113 -1 95 5T67 25T58 57T62 102L100 277L138 371L205 384L146 105Q142 87 146 78T177 69H216L201 0Q193 -1 175 -1T145 -1ZM45 299H265L250 228H30L45 299Z"/><glyph unicode="u" d="M151 -6Q105 -6 78 4T37 33T24 82T31 150L63 299H146L113 144Q110 127 108 113T110 89T125 73T158 67Q175 67 185 71T202 84T213 105T220 134L255 299H337L300 130Q292 92 282 66T254 24T212 1T151 -6Z"/><glyph unicode="v" horiz-adv-x="333" d="M34 299H119L146 101L255 299H343L166 -3H83L34 299Z"/><glyph unicode="w" horiz-adv-x="495" d="M39 299H125L138 128L228 299H313L332 128L417 299H500L344 -3H267L246 188L144 -3H68L39 299Z"/><glyph unicode="x" horiz-adv-x="325" d="M113 163L133 172L237 299H326L197 150L177 141L59 0H-30L113 163ZM47 299H134L267 0H181L47 299Z"/><glyph unicode="y" horiz-adv-x="318" d="M34 299H121L144 119L243 299H328L144 -19Q132 -40 122 -53T99 -75T70 -86T31 -90H8Q-2 -90 -9 -89L4 -27H26Q51 -27 58 -23T72 -4L80 9L34 299Z"/><glyph unicode="z" horiz-adv-x="294" d="M-9 56L166 228H37L51 299H291L280 242L105 67H248L235 0H-21L-9 56Z"/><glyph unicode="{" horiz-adv-x="311" d="M88 -87T65 -74T41 -32Q41 -17 49 4T67 45T85 82T94 109Q94 122 81 124T32 127L46 195Q68 195 82 196T105 201T116 212T119 234Q119 249 117 270T115 312Q115 361 142 385T218 409H304L288 338H242Q217 338 207 330T196 300Q196 287 198 268T201 230Q201 207 193 189T154 162Q170 156 175 147T181 127Q181 115 174 97T157 60T140 25T132 -1Q132 -18 164 -18H213L197 -87H142Q88 -87 65 -74Z"/><glyph unicode="|" horiz-adv-x="220" d="M68 409H152V-87H68V409Z"/><glyph unicode="}" horiz-adv-x="311" d="M9 -18H56Q102 -18 102 23Q102 35 100 54T98 93Q98 116 106 134T144 161Q128 166 122 175T116 195Q116 207 124 225T141 261T159 296T167 321Q167 338 133 338H85L101 409H156Q210 409 233 395T257 354Q257 339 249 318T230 277T212 239T203 212Q203 201 217 198T266 195L252 128Q207 128 193 122T178 89Q178 73 180 52T183 10Q183 -39 156 -63T80 -87H-5L9 -18Z"/><glyph unicode="~" horiz-adv-x="331" d="M243 217Q228 217 216 221T193 231T172 240T152 245Q142 245 132 239T111 221L70 259Q112 309 155 309Q171 309 183 305T206 295T226 285T246 280Q256 280 266 287T286 306L327 268Q286 217 243 217Z"/><glyph unicode=" " horiz-adv-x="113"/><glyph unicode="¡" horiz-adv-x="232" d="M92 258H167L119 0H29L92 258ZM110 390H206L186 298H90L110 390Z"/><glyph unicode="¢" horiz-adv-x="321" d="M103 36H181L162 -49H84L103 36ZM149 259L167 337H245L228 259H149ZM150 -3Q111 -3 85 5T42 29T20 64T13 109Q13 137 19 166Q25 197 37 222T69 266T117 294T185 304Q237 304 264 290T309 253L242 201Q234 210 221 220T178 230Q146 230 128 212T102 152Q99 137 99 118Q99 95 111 80T157 65Q174 65 187 69T221 89L264 36Q237 13 209 5T150 -3Z"/><glyph unicode="£" horiz-adv-x="364" d="M35 231H81V249Q81 318 114 358T220 398Q265 398 295 389T348 368L303 301Q287 311 263 317T216 323Q183 323 172 301T161 241V231H252L240 168H164Q165 138 159 113Q155 94 149 78Q151 77 152 77Q177 65 210 65Q222 65 228 66T239 73T247 87T253 113L256 128H327L322 102Q316 71 307 51T286 18T255 1T213 -4Q157 -4 123 14Q114 19 107 23Q88 10 60 4Q30 -2 -13 0L1 67Q28 67 43 70T67 78T79 92T84 112Q86 123 86 139Q86 153 85 168H21L35 231Z"/><glyph unicode="¤" horiz-adv-x="288" d="M264 98L235 71L185 125Q167 113 143 113Q120 113 102 125L52 71L23 98L75 152Q68 162 66 171T63 195Q63 207 65 217T75 238L23 292L52 319L102 265Q120 277 143 277Q167 277 185 265L236 319L265 289L213 238Q220 228 222 218T225 195Q225 171 212 152L264 98ZM187 195Q187 215 175 227T143 240Q124 240 112 228T100 195Q100 175 112 163T143 151Q163 151 175 163T187 195Z"/><glyph unicode="¥" horiz-adv-x="369" d="M26 91H297L285 32H15L26 91ZM45 179H316L304 121H34L45 179ZM139 173L56 390H144L193 242L308 390H396L220 173L183 0H102L139 173Z"/><glyph unicode="¦" horiz-adv-x="220" d="M68 119H152V-87H68V119ZM68 409H152V203H68V409Z"/><glyph unicode="§" horiz-adv-x="339" d="M146 288Q150 310 158 329T180 362T215 384T269 392H301Q313 392 320 391L306 324H278Q264 324 255 322T241 315T233 303T227 287L225 276Q252 270 268 259Q299 237 299 202Q299 173 289 155T262 126T222 111Q207 108 191 107V103Q186 80 178 61T157 27T122 5T68 -3Q48 -3 36 -3T16 -2L30 63H58Q86 63 95 72T109 103L110 112Q85 117 70 128Q40 149 40 184Q40 213 50 231T77 261T118 276Q131 279 144 280L146 288ZM175 157Q201 157 216 164T231 195Q231 209 217 218T164 227Q139 227 124 221T108 188Q108 174 122 166T175 157Z"/><glyph unicode="¨" horiz-adv-x="331" d="M109 419H184L169 347H95L109 419ZM226 419H302L286 347H211L226 419Z"/><glyph unicode="©" horiz-adv-x="446" d="M227 70Q161 70 131 103T101 199Q101 265 136 296T231 327Q264 327 287 318T328 290L291 253Q268 276 231 276Q155 276 155 198Q155 160 172 139T231 118Q254 118 268 125T294 143L329 108Q315 94 292 82T227 70ZM224 -6Q175 -6 138 9T77 52T40 116T28 196Q28 239 40 276T76 340T138 382T224 398Q273 398 309 383T370 340T407 276T420 196Q420 153 408 116T371 52T310 10T224 -6ZM224 24Q268 24 299 37T350 74T379 128T388 196Q388 232 379 263T351 317T300 354T224 368Q180 368 149 355T98 318T69 263T60 196Q60 160 69 129T97 74T148 38T224 24Z"/><glyph unicode="ª" horiz-adv-x="335" d="M128 145Q78 145 61 163T43 209Q43 240 54 258T84 287T131 301T190 305H221Q223 312 223 319Q223 329 214 333T176 338Q162 338 144 334T113 323L89 375Q104 383 130 390T189 398Q227 398 248 392T280 372T290 339T284 294L270 228Q266 214 268 210T286 205L275 150Q265 148 246 148Q221 148 214 158Q207 165 206 177Q193 163 173 154T128 145ZM47 119H246L234 61H36L47 119ZM127 253Q111 246 111 221Q111 211 119 206T152 201Q174 201 188 210T209 250L211 260H179Q144 260 127 253Z"/><glyph unicode="«" horiz-adv-x="425" d="M53 148L164 299H237L132 148L174 0H102L53 148ZM185 148L296 299H369L264 148L306 0H234L185 148Z"/><glyph unicode="¬" horiz-adv-x="381" d="M301 48H218L239 148H39L55 224H338L301 48Z"/><glyph unicode="­" horiz-adv-x="245" d="M34 210H217L201 136H18L34 210Z"/><glyph unicode="®" horiz-adv-x="446" d="M223 -6Q174 -6 138 9T77 52T40 116T28 196Q28 239 40 276T76 340T137 382T223 398Q272 398 309 383T370 340T407 276T419 196Q419 153 407 116T371 52T309 10T223 -6ZM223 24Q268 24 299 37T350 74T379 128T388 196Q388 232 379 263T350 317T299 354T223 368Q179 368 148 355T97 318T68 263T59 196Q59 160 68 129T97 74T148 38T223 24ZM126 315H241Q270 315 288 310T316 294T329 269T333 237Q333 221 330 207T316 182T287 164Q285 164 283 163L331 75H278L232 158H177V75H126V315ZM240 201Q263 201 272 208T282 236Q282 256 273 263T239 271H177V201H240Z"/><glyph unicode="¯" horiz-adv-x="331" d="M95 412H313L300 347H80L95 412Z"/><glyph unicode="°" horiz-adv-x="318" d="M159 141Q128 141 107 149T72 172T52 205T45 245Q45 278 55 306T84 354T131 386T193 398Q223 398 244 389T278 366T298 332T305 291Q305 259 295 232T265 184T219 153T159 141ZM166 201Q201 201 219 224T237 283Q237 304 225 318T182 333Q147 333 130 309T112 249Q112 229 124 215T166 201Z"/><glyph unicode="±" horiz-adv-x="401" d="M150 148H49L66 224H166L187 322H269L248 224H348L332 148H232L211 48H128L150 148ZM35 77H317L301 3H18L35 77Z"/><glyph unicode="²" horiz-adv-x="291" d="M41 179L139 250Q158 265 170 274T189 290T198 304T200 320Q200 340 159 340Q148 340 130 337T98 329L79 378Q119 394 166 394Q218 394 242 379T266 333Q266 313 263 300T250 274T227 251T191 224L140 185H238L226 134H32L41 179Z"/><glyph unicode="³" horiz-adv-x="291" d="M145 130Q104 130 76 138T28 162L64 207Q81 195 100 188T144 180Q163 180 174 189T185 220Q185 233 176 238T143 244H101L112 297H163Q182 297 191 301T200 323Q200 334 191 338T161 343Q149 343 131 340T99 330L75 377Q96 387 125 390T175 394Q267 394 267 339Q267 307 255 292T224 271Q250 259 250 220Q250 194 242 177T220 150T186 135T145 130Z"/><glyph unicode="´" horiz-adv-x="331" d="M230 443H331L210 347H134L230 443Z"/><glyph unicode="µ" horiz-adv-x="358" d="M65 299H148L115 144Q112 127 110 113T111 89T126 73T161 67Q179 67 189 71T206 84T215 105T222 134L257 299H339L303 130Q295 92 284 66T255 24T213 1T153 -6Q129 -6 113 0T87 14L66 -87H-17L65 299Z"/><glyph unicode="¶" horiz-adv-x="375" d="M232 126H197H192L166 0H87L115 135Q90 143 74 155Q56 169 49 188T42 229Q42 307 80 348T211 390H366L283 0H205L232 126ZM246 192L273 319H200Q165 319 146 301T127 239Q127 216 143 204T197 192H246Z"/><glyph unicode="·" horiz-adv-x="174" d="M49 241H145L124 144H29L49 241Z"/><glyph unicode="¸" horiz-adv-x="331" d="M112 -131Q83 -131 63 -125T29 -109L57 -71Q68 -78 81 -83T111 -89Q124 -89 132 -84T140 -65Q140 -52 126 -49T97 -48L84 -38L102 4H148L137 -23Q159 -24 177 -31T195 -64Q195 -86 187 -99T167 -120T141 -129T112 -131Z"/><glyph unicode="¹" horiz-adv-x="221" d="M115 336H71L83 390H194L139 134H72L115 336Z"/><glyph unicode="º" horiz-adv-x="332" d="M175 145Q110 145 83 171T55 243Q56 314 92 356T188 398Q253 398 280 371T308 300Q308 228 273 187T175 145ZM174 204Q206 204 222 227T239 290Q239 310 228 323T188 336Q158 336 141 312T124 248Q124 228 135 216T174 204ZM44 119H255L243 60H32L44 119Z"/><glyph unicode="»" horiz-adv-x="425" d="M142 149L101 299H173L220 149L109 0H37L142 149ZM273 149L232 299H305L352 149L241 0H169L273 149Z"/><glyph unicode="¼" horiz-adv-x="566" d="M361 336H317L329 390H440L385 134H318L361 336ZM378 390H451L149 0H76L378 390ZM289 94L437 256H507L362 97H516L505 47H280L289 94ZM415 92L440 157H489L456 0H395L415 92Z"/><glyph unicode="½" horiz-adv-x="597" d="M361 336H317L329 390H440L385 134H318L361 336ZM378 390H451L149 0H76L378 390ZM326 45L424 116Q443 131 455 140T474 156T483 170T485 186Q485 206 444 206Q433 206 415 203T383 195L364 244Q404 260 451 260Q503 260 527 245T551 199Q551 179 548 166T535 140T512 117T476 90L425 51H523L511 0H317L326 45Z"/><glyph unicode="¾" horiz-adv-x="641" d="M398 130Q357 130 329 138T281 162L317 207Q334 195 353 188T397 180Q416 180 427 189T438 220Q438 233 429 238T396 244H354L365 297H416Q435 297 444 301T453 323Q453 334 444 338T414 343Q402 343 384 340T352 330L328 377Q349 387 378 390T428 394Q520 394 520 339Q520 307 508 292T477 271Q503 259 503 220Q503 194 495 177T473 150T439 135T398 130ZM452 390H525L223 0H150L452 390ZM365 94L513 256H583L438 97H592L581 47H356L365 94ZM491 92L516 157H565L532 0H471L491 92Z"/><glyph unicode="¿" horiz-adv-x="388" d="M164 -5Q89 -5 55 18T20 84Q20 137 42 163T116 206Q137 212 148 217T166 228T175 244T181 269H261Q257 242 252 224T238 193T212 172T170 157Q133 146 121 137T108 104Q108 89 122 79T180 69Q229 69 282 87L308 19Q292 12 273 8T235 0T197 -4T164 -5ZM198 392H294L278 310H181L198 392Z"/><glyph unicode="À" horiz-adv-x="423" d="M211 393H294L359 0H274L263 64H105L68 0H-24L211 393ZM253 136L229 283L145 136H253ZM156 527H252L306 431H235L156 527Z"/><glyph unicode="Á" horiz-adv-x="423" d="M211 393H294L359 0H274L263 64H105L68 0H-24L211 393ZM253 136L229 283L145 136H253ZM293 527H394L273 431H197L293 527Z"/><glyph unicode="Â" horiz-adv-x="423" d="M211 393H294L359 0H274L263 64H105L68 0H-24L211 393ZM253 136L229 283L145 136H253ZM231 527H316L376 431H300L263 476L207 431H130L231 527Z"/><glyph unicode="Ã" horiz-adv-x="423" d="M211 393H294L359 0H274L263 64H105L68 0H-24L211 393ZM253 136L229 283L145 136H253ZM306 431Q291 431 279 435T256 445T235 454T215 459Q205 459 195 453T174 435L133 473Q175 523 218 523Q234 523 246 519T269 509T289 499T309 494Q319 494 329 501T349 520L390 482Q349 431 306 431Z"/><glyph unicode="Ä" horiz-adv-x="423" d="M211 393H294L359 0H274L263 64H105L68 0H-24L211 393ZM253 136L229 283L145 136H253ZM172 503H247L232 431H158L172 503ZM289 503H365L349 431H274L289 503Z"/><glyph unicode="Å" horiz-adv-x="423" d="M196 370Q186 378 182 390T178 415Q178 457 201 482T262 508Q299 508 315 489T332 443Q332 391 298 369L359 0H274L263 64H105L68 0H-24L196 370ZM253 136L229 283L145 136H253ZM250 394Q270 394 280 406T290 438Q290 449 284 458T259 467Q242 467 231 454T220 421Q220 410 226 402T250 394Z"/><glyph unicode="Æ" horiz-adv-x="615" d="M289 390H617L600 313H403L388 237H579L563 162H372L353 75H552L535 0H255L269 67H117L63 0H-30L289 390ZM284 137L322 315L175 137H284Z"/><glyph unicode="Ç" horiz-adv-x="411" d="M204 -6Q155 -6 121 5T64 36T32 84T22 147Q22 163 23 180T30 215Q41 269 62 304T112 360T175 389T245 398Q281 398 307 393T353 378T385 358T408 336L338 279Q324 296 301 307T244 318Q193 318 162 292T116 205Q111 177 111 159Q111 118 134 95T212 71Q242 71 265 80T307 104L355 42Q326 18 291 6T204 -6ZM152 -131Q123 -131 103 -125T69 -109L97 -71Q108 -78 121 -83T151 -89Q164 -89 172 -84T180 -65Q180 -52 166 -49T137 -48L124 -38L142 4H188L177 -23Q199 -24 217 -31T235 -64Q235 -86 227 -99T207 -120T181 -129T152 -131Z"/><glyph unicode="È" horiz-adv-x="376" d="M91 390H378L361 313H160L145 237H341L324 162H128L110 75H313L297 0H8L91 390ZM133 527H229L283 431H212L133 527Z"/><glyph unicode="É" horiz-adv-x="376" d="M91 390H378L361 313H160L145 237H341L324 162H128L110 75H313L297 0H8L91 390ZM270 527H371L250 431H174L270 527Z"/><glyph unicode="Ê" horiz-adv-x="376" d="M91 390H378L361 313H160L145 237H341L324 162H128L110 75H313L297 0H8L91 390ZM208 527H293L353 431H277L240 476L184 431H107L208 527Z"/><glyph unicode="Ë" horiz-adv-x="376" d="M91 390H378L361 313H160L145 237H341L324 162H128L110 75H313L297 0H8L91 390ZM149 503H224L209 431H135L149 503ZM266 503H342L326 431H251L266 503Z"/><glyph unicode="Ì" horiz-adv-x="195" d="M50 529H147L184 432H114L50 529ZM97 390H183L100 0H14L97 390Z"/><glyph unicode="Í" horiz-adv-x="195" d="M187 529H289L184 432H109L187 529ZM97 390H183L100 0H14L97 390Z"/><glyph unicode="Î" horiz-adv-x="195" d="M97 390H183L100 0H14L97 390ZM376 527H461L521 431H445L408 476L352 431H275L376 527Z"/><glyph unicode="Ï" horiz-adv-x="195" d="M97 390H183L100 0H14L97 390ZM317 503H392L377 431H303L317 503ZM434 503H510L494 431H419L434 503Z"/><glyph unicode="Ð" horiz-adv-x="428" d="M18 232H216L201 164H3L18 232ZM90 390H190Q306 390 356 358T406 250Q406 233 404 214T396 173Q384 116 364 82T316 30T253 6T175 0H7L90 390ZM177 75Q209 75 231 79T268 96T292 129T310 183Q316 214 316 238Q316 257 310 271T290 294T251 308T190 313H160L110 75H177Z"/><glyph unicode="Ñ" horiz-adv-x="443" d="M91 390H184L299 139L353 390H436L353 0H273L148 270L90 0H8L91 390ZM316 431Q301 431 289 435T266 445T245 454T225 459Q215 459 205 453T184 435L143 473Q185 523 228 523Q244 523 256 519T279 509T299 499T319 494Q329 494 339 501T359 520L400 482Q359 431 316 431Z"/><glyph unicode="Ò" horiz-adv-x="464" d="M215 -6Q124 -6 74 34T23 153Q23 185 30 217Q42 272 64 307T116 362T180 390T250 398Q338 398 389 358T441 239Q441 224 439 209T433 176Q421 121 399 86T347 30T283 2T215 -6ZM216 70Q271 70 302 97T346 182Q348 195 349 206T351 228Q351 268 328 293T246 318Q191 318 160 291T116 206Q114 195 113 184T112 162Q112 120 135 95T216 70ZM176 527H272L326 431H255L176 527Z"/><glyph unicode="Ó" horiz-adv-x="464" d="M215 -6Q124 -6 74 34T23 153Q23 185 30 217Q42 272 64 307T116 362T180 390T250 398Q338 398 389 358T441 239Q441 224 439 209T433 176Q421 121 399 86T347 30T283 2T215 -6ZM216 70Q271 70 302 97T346 182Q348 195 349 206T351 228Q351 268 328 293T246 318Q191 318 160 291T116 206Q114 195 113 184T112 162Q112 120 135 95T216 70ZM313 527H414L293 431H217L313 527Z"/><glyph unicode="Ô" horiz-adv-x="464" d="M215 -6Q124 -6 74 34T23 153Q23 185 30 217Q42 272 64 307T116 362T180 390T250 398Q338 398 389 358T441 239Q441 224 439 209T433 176Q421 121 399 86T347 30T283 2T215 -6ZM216 70Q271 70 302 97T346 182Q348 195 349 206T351 228Q351 268 328 293T246 318Q191 318 160 291T116 206Q114 195 113 184T112 162Q112 120 135 95T216 70ZM251 527H336L396 431H320L283 476L227 431H150L251 527Z"/><glyph unicode="Õ" horiz-adv-x="464" d="M215 -6Q124 -6 74 34T23 153Q23 185 30 217Q42 272 64 307T116 362T180 390T250 398Q338 398 389 358T441 239Q441 224 439 209T433 176Q421 121 399 86T347 30T283 2T215 -6ZM216 70Q271 70 302 97T346 182Q348 195 349 206T351 228Q351 268 328 293T246 318Q191 318 160 291T116 206Q114 195 113 184T112 162Q112 120 135 95T216 70ZM326 431Q311 431 299 435T276 445T255 454T235 459Q225 459 215 453T194 435L153 473Q195 523 238 523Q254 523 266 519T289 509T309 499T329 494Q339 494 349 501T369 520L410 482Q369 431 326 431Z"/><glyph unicode="Ö" horiz-adv-x="464" d="M215 -6Q124 -6 74 34T23 153Q23 185 30 217Q42 272 64 307T116 362T180 390T250 398Q338 398 389 358T441 239Q441 224 439 209T433 176Q421 121 399 86T347 30T283 2T215 -6ZM216 70Q271 70 302 97T346 182Q348 195 349 206T351 228Q351 268 328 293T246 318Q191 318 160 291T116 206Q114 195 113 184T112 162Q112 120 135 95T216 70ZM192 503H267L252 431H178L192 503ZM309 503H385L369 431H294L309 503Z"/><glyph unicode="×" horiz-adv-x="401" d="M52 107L148 185L86 265L148 316L210 237L305 316L344 264L249 185L311 107L249 56L188 134L91 55L52 107Z"/><glyph unicode="Ø" horiz-adv-x="464" d="M82 60L99 76L307 338L313 349L364 413H445L374 324L356 308L147 45L137 29L97 -22H15L82 60ZM215 -6Q123 -6 73 34T23 153Q22 168 24 184T30 217Q42 272 64 307T116 362T180 390T250 398Q341 398 391 358T441 239Q441 224 439 209T433 176Q421 121 399 86T347 30T283 2T215 -6ZM215 66Q272 66 304 94T350 182Q352 195 353 206T355 229Q355 270 331 295T246 321Q189 321 157 293T113 206Q108 181 108 161Q108 119 132 93T215 66Z"/><glyph unicode="Ù" horiz-adv-x="440" d="M195 -7Q146 -7 115 2T65 28T40 65T33 109Q33 123 35 136T39 163L88 390H175L127 167Q125 155 124 145T122 126Q122 100 139 85T205 69Q253 69 272 89T301 154L351 390H435L381 138Q375 110 365 84T334 38T280 5T195 -7ZM165 527H261L315 431H244L165 527Z"/><glyph unicode="Ú" horiz-adv-x="440" d="M195 -7Q146 -7 115 2T65 28T40 65T33 109Q33 123 35 136T39 163L88 390H175L127 167Q125 155 124 145T122 126Q122 100 139 85T205 69Q253 69 272 89T301 154L351 390H435L381 138Q375 110 365 84T334 38T280 5T195 -7ZM302 527H403L282 431H206L302 527Z"/><glyph unicode="Û" horiz-adv-x="440" d="M195 -7Q146 -7 115 2T65 28T40 65T33 109Q33 123 35 136T39 163L88 390H175L127 167Q125 155 124 145T122 126Q122 100 139 85T205 69Q253 69 272 89T301 154L351 390H435L381 138Q375 110 365 84T334 38T280 5T195 -7ZM240 527H325L385 431H309L272 476L216 431H139L240 527Z"/><glyph unicode="Ü" horiz-adv-x="440" d="M195 -7Q146 -7 115 2T65 28T40 65T33 109Q33 123 35 136T39 163L88 390H175L127 167Q125 155 124 145T122 126Q122 100 139 85T205 69Q253 69 272 89T301 154L351 390H435L381 138Q375 110 365 84T334 38T280 5T195 -7ZM181 503H256L241 431H167L181 503ZM298 503H374L358 431H283L298 503Z"/><glyph unicode="Ý" horiz-adv-x="410" d="M150 142L55 390H146L209 221L343 390H437L236 140L206 0H119L150 142ZM287 527H388L267 431H191L287 527Z"/><glyph unicode="Þ" horiz-adv-x="410" d="M91 390H175L164 339H239Q283 339 312 331T358 309T383 276T391 236Q391 200 382 170T354 118T302 83T225 70H107L91 0H7L91 390ZM223 141Q261 141 280 159T300 218Q300 241 284 253T226 265H148L122 141H223Z"/><glyph unicode="ß" horiz-adv-x="374" d="M63 283Q69 310 79 333T106 375T149 403T213 413Q283 413 312 389T342 324Q342 281 325 252T277 212Q305 204 319 186T334 134Q334 60 296 30T179 0H122L137 70H174Q218 70 236 84T255 131Q255 151 237 160T167 170L181 235Q221 234 239 247T257 297Q257 312 246 323T205 334Q178 334 163 319T141 271L65 -87H-17L63 283Z"/><glyph unicode="à" horiz-adv-x="354" d="M111 -5Q78 -5 57 1T23 18T6 45T1 80Q1 114 14 135T50 169T107 187T182 192H226L216 135H170Q124 135 104 127T83 90Q83 76 93 69T135 62Q168 62 182 74T205 124L219 186Q222 201 222 209Q222 221 211 227T164 233Q147 233 125 228T87 215L57 277Q76 289 108 297T180 305Q227 305 253 297T291 273T303 232T296 177L279 96Q276 80 277 74T299 69L284 1Q280 -1 272 -1T249 -1Q228 -1 219 4T205 27Q178 -5 111 -5ZM104 443H200L254 347H183L104 443Z"/><glyph unicode="á" horiz-adv-x="354" d="M111 -5Q78 -5 57 1T23 18T6 45T1 80Q1 114 14 135T50 169T107 187T182 192H226L216 135H170Q124 135 104 127T83 90Q83 76 93 69T135 62Q168 62 182 74T205 124L219 186Q222 201 222 209Q222 221 211 227T164 233Q147 233 125 228T87 215L57 277Q76 289 108 297T180 305Q227 305 253 297T291 273T303 232T296 177L279 96Q276 80 277 74T299 69L284 1Q280 -1 272 -1T249 -1Q228 -1 219 4T205 27Q178 -5 111 -5ZM241 443H342L221 347H145L241 443Z"/><glyph unicode="â" horiz-adv-x="354" d="M111 -5Q78 -5 57 1T23 18T6 45T1 80Q1 114 14 135T50 169T107 187T182 192H226L216 135H170Q124 135 104 127T83 90Q83 76 93 69T135 62Q168 62 182 74T205 124L219 186Q222 201 222 209Q222 221 211 227T164 233Q147 233 125 228T87 215L57 277Q76 289 108 297T180 305Q227 305 253 297T291 273T303 232T296 177L279 96Q276 80 277 74T299 69L284 1Q280 -1 272 -1T249 -1Q228 -1 219 4T205 27Q178 -5 111 -5ZM179 443H264L324 347H248L211 392L155 347H78L179 443Z"/><glyph unicode="ã" horiz-adv-x="354" d="M111 -5Q78 -5 57 1T23 18T6 45T1 80Q1 114 14 135T50 169T107 187T182 192H226L216 135H170Q124 135 104 127T83 90Q83 76 93 69T135 62Q168 62 182 74T205 124L219 186Q222 201 222 209Q222 221 211 227T164 233Q147 233 125 228T87 215L57 277Q76 289 108 297T180 305Q227 305 253 297T291 273T303 232T296 177L279 96Q276 80 277 74T299 69L284 1Q280 -1 272 -1T249 -1Q228 -1 219 4T205 27Q178 -5 111 -5ZM254 347Q239 347 227 351T204 361T183 370T163 375Q153 375 143 369T122 351L81 389Q123 439 166 439Q182 439 194 435T217 425T237 415T257 410Q267 410 277 417T297 436L338 398Q297 347 254 347Z"/><glyph unicode="ä" horiz-adv-x="354" d="M111 -5Q78 -5 57 1T23 18T6 45T1 80Q1 114 14 135T50 169T107 187T182 192H226L216 135H170Q124 135 104 127T83 90Q83 76 93 69T135 62Q168 62 182 74T205 124L219 186Q222 201 222 209Q222 221 211 227T164 233Q147 233 125 228T87 215L57 277Q76 289 108 297T180 305Q227 305 253 297T291 273T303 232T296 177L279 96Q276 80 277 74T299 69L284 1Q280 -1 272 -1T249 -1Q228 -1 219 4T205 27Q178 -5 111 -5ZM120 419H195L180 347H106L120 419ZM237 419H313L297 347H222L237 419Z"/><glyph unicode="å" horiz-adv-x="354" d="M111 -5Q78 -5 57 1T23 18T6 45T1 80Q1 114 14 135T50 169T107 187T182 192H226L216 135H170Q124 135 104 127T83 90Q83 76 93 69T135 62Q168 62 182 74T205 124L219 186Q222 201 222 209Q222 221 211 227T164 233Q147 233 125 228T87 215L57 277Q76 289 108 297T180 305Q227 305 253 297T291 273T303 232T296 177L279 96Q276 80 277 74T299 69L284 1Q280 -1 272 -1T249 -1Q228 -1 219 4T205 27Q178 -5 111 -5ZM209 341Q171 341 155 359T138 403Q138 445 161 470T222 495Q259 495 276 476T293 431Q293 389 269 365T209 341ZM211 383Q229 383 240 394T251 426Q251 437 244 446T220 455Q201 455 191 442T180 408Q180 397 187 390T211 383Z"/><glyph unicode="æ" horiz-adv-x="524" d="M338 -6Q298 -6 274 3T235 28Q232 32 228 36Q227 35 226 33Q216 22 201 14T164 0T111 -5Q49 -5 25 17T1 80Q1 115 15 137T53 171T110 187T182 192H219Q220 195 221 198Q222 204 222 209Q222 221 211 227T164 233Q147 233 125 228T87 215L57 277Q76 289 108 297T180 305Q227 305 252 297Q270 291 281 281Q293 290 309 295Q335 305 373 305Q409 305 432 297T469 276T488 246T494 211Q494 191 490 166T481 118H281V117Q281 92 295 77T348 61Q372 61 395 66T433 82L465 26Q436 6 403 0T338 -6ZM104 127Q83 120 83 89Q83 75 94 69T135 62Q169 62 183 75T205 124L207 135H170Q125 135 104 127ZM415 177Q416 182 416 187T417 197Q417 214 407 225T363 236Q327 236 310 214Q298 199 291 177H415Z"/><glyph unicode="ç" horiz-adv-x="319" d="M150 -5Q111 -5 85 4T42 28T20 64T13 109Q13 137 19 166Q25 197 37 222T69 266T117 295T185 305Q237 305 264 290T309 253L242 201Q234 210 221 220T178 230Q146 230 128 212T102 152Q99 137 99 118Q99 95 111 80T157 65Q174 65 187 69T221 89L264 36Q237 13 209 4T150 -5ZM364 -131Q335 -131 315 -125T281 -109L309 -71Q320 -78 333 -83T363 -89Q376 -89 384 -84T392 -65Q392 -52 378 -49T349 -48L336 -38L354 4H400L389 -23Q411 -24 429 -31T447 -64Q447 -86 439 -99T419 -120T393 -129T364 -131Z"/><glyph unicode="è" horiz-adv-x="336" d="M149 -6Q110 -6 84 3T42 28T20 64T13 109Q13 137 19 166Q33 231 71 268T184 305Q220 305 243 297T280 276T299 246T305 211Q305 191 301 166T292 118H36L49 177H225Q226 182 226 187T227 197Q227 214 217 225T175 236Q138 236 122 214T97 154Q91 136 91 117Q91 92 105 77T158 61Q183 61 205 66T245 82L277 26Q248 6 215 0T149 -6ZM95 443H191L245 347H174L95 443Z"/><glyph unicode="é" horiz-adv-x="336" d="M149 -6Q110 -6 84 3T42 28T20 64T13 109Q13 137 19 166Q33 231 71 268T184 305Q220 305 243 297T280 276T299 246T305 211Q305 191 301 166T292 118H36L49 177H225Q226 182 226 187T227 197Q227 214 217 225T175 236Q138 236 122 214T97 154Q91 136 91 117Q91 92 105 77T158 61Q183 61 205 66T245 82L277 26Q248 6 215 0T149 -6ZM232 443H333L212 347H136L232 443Z"/><glyph unicode="ê" horiz-adv-x="336" d="M149 -6Q110 -6 84 3T42 28T20 64T13 109Q13 137 19 166Q33 231 71 268T184 305Q220 305 243 297T280 276T299 246T305 211Q305 191 301 166T292 118H36L49 177H225Q226 182 226 187T227 197Q227 214 217 225T175 236Q138 236 122 214T97 154Q91 136 91 117Q91 92 105 77T158 61Q183 61 205 66T245 82L277 26Q248 6 215 0T149 -6ZM170 443H255L315 347H239L202 392L146 347H69L170 443Z"/><glyph unicode="ë" horiz-adv-x="336" d="M149 -6Q110 -6 84 3T42 28T20 64T13 109Q13 137 19 166Q33 231 71 268T184 305Q220 305 243 297T280 276T299 246T305 211Q305 191 301 166T292 118H36L49 177H225Q226 182 226 187T227 197Q227 214 217 225T175 236Q138 236 122 214T97 154Q91 136 91 117Q91 92 105 77T158 61Q183 61 205 66T245 82L277 26Q248 6 215 0T149 -6ZM111 419H186L171 347H97L111 419ZM228 419H304L288 347H213L228 419Z"/><glyph unicode="ì" horiz-adv-x="174" d="M21 443H118L152 347H81L21 443ZM68 299H150L87 0H4L68 299Z"/><glyph unicode="í" horiz-adv-x="174" d="M158 443H260L154 347H78L158 443ZM68 299H150L87 0H4L68 299Z"/><glyph unicode="î" horiz-adv-x="174" d="M96 443H182L231 347H155L129 392L84 347H6L96 443ZM68 299H150L87 0H4L68 299Z"/><glyph unicode="ï" horiz-adv-x="174" d="M48 419H116L101 347H33L48 419ZM152 419H221L206 347H137L152 419ZM68 299H150L87 0H4L68 299Z"/><glyph unicode="ð" horiz-adv-x="359" d="M158 -6Q78 -6 46 27T13 112Q13 126 14 139T18 166Q32 224 65 251T159 278Q195 278 213 273T244 255Q244 288 232 322T195 394L281 420Q304 390 318 341T332 234Q332 178 320 126Q300 51 262 23T158 -6ZM187 355L385 393L373 335L175 297L187 355ZM158 65Q194 65 210 80T236 128Q238 136 239 144T240 160Q240 186 227 195T179 205Q143 205 126 193T102 147Q100 139 99 131T98 114Q98 92 111 79T158 65Z"/><glyph unicode="ñ" horiz-adv-x="360" d="M64 294L129 299V276Q144 289 165 297T219 305Q261 305 283 295T314 266T322 224T314 171L277 0H194L228 162Q231 176 233 188T231 209T216 223T183 228Q150 228 137 211T119 168L84 0H1L64 294ZM256 347Q241 347 229 351T206 361T185 370T165 375Q155 375 145 369T124 351L83 389Q125 439 168 439Q184 439 196 435T219 425T239 415T259 410Q269 410 279 417T299 436L340 398Q299 347 256 347Z"/><glyph unicode="ò" horiz-adv-x="358" d="M153 -6Q78 -6 46 26T13 113Q13 137 19 166Q36 241 77 273T186 305Q261 305 293 273T326 187Q326 162 320 135Q304 59 263 27T153 -6ZM158 65Q194 65 211 84T237 141Q239 149 240 158T241 175Q241 200 228 215T181 230Q145 230 128 211T102 152Q100 144 99 135T98 118Q98 95 111 80T158 65ZM106 443H202L256 347H185L106 443Z"/><glyph unicode="ó" horiz-adv-x="358" d="M153 -6Q78 -6 46 26T13 113Q13 137 19 166Q36 241 77 273T186 305Q261 305 293 273T326 187Q326 162 320 135Q304 59 263 27T153 -6ZM158 65Q194 65 211 84T237 141Q239 149 240 158T241 175Q241 200 228 215T181 230Q145 230 128 211T102 152Q100 144 99 135T98 118Q98 95 111 80T158 65ZM243 443H344L223 347H147L243 443Z"/><glyph unicode="ô" horiz-adv-x="358" d="M153 -6Q78 -6 46 26T13 113Q13 137 19 166Q36 241 77 273T186 305Q261 305 293 273T326 187Q326 162 320 135Q304 59 263 27T153 -6ZM158 65Q194 65 211 84T237 141Q239 149 240 158T241 175Q241 200 228 215T181 230Q145 230 128 211T102 152Q100 144 99 135T98 118Q98 95 111 80T158 65ZM181 443H266L326 347H250L213 392L157 347H80L181 443Z"/><glyph unicode="õ" horiz-adv-x="358" d="M153 -6Q78 -6 46 26T13 113Q13 137 19 166Q36 241 77 273T186 305Q261 305 293 273T326 187Q326 162 320 135Q304 59 263 27T153 -6ZM158 65Q194 65 211 84T237 141Q239 149 240 158T241 175Q241 200 228 215T181 230Q145 230 128 211T102 152Q100 144 99 135T98 118Q98 95 111 80T158 65ZM256 347Q241 347 229 351T206 361T185 370T165 375Q155 375 145 369T124 351L83 389Q125 439 168 439Q184 439 196 435T219 425T239 415T259 410Q269 410 279 417T299 436L340 398Q299 347 256 347Z"/><glyph unicode="ö" horiz-adv-x="358" d="M153 -6Q78 -6 46 26T13 113Q13 137 19 166Q36 241 77 273T186 305Q261 305 293 273T326 187Q326 162 320 135Q304 59 263 27T153 -6ZM158 65Q194 65 211 84T237 141Q239 149 240 158T241 175Q241 200 228 215T181 230Q145 230 128 211T102 152Q100 144 99 135T98 118Q98 95 111 80T158 65ZM122 419H197L182 347H108L122 419ZM239 419H315L299 347H224L239 419Z"/><glyph unicode="÷" horiz-adv-x="401" d="M141 113H225L210 41H126L141 113ZM66 224H348L332 148H49L66 224ZM187 331H271L256 259H173L187 331Z"/><glyph unicode="ø" horiz-adv-x="358" d="M59 60L74 72L234 262L241 275L281 322H350L292 254L277 240L110 42L102 28L58 -23H-11L59 60ZM153 -6Q78 -6 46 26T13 113Q13 137 19 166Q36 241 77 273T186 305Q261 305 293 273T326 187Q326 162 320 135Q304 59 263 27T153 -6ZM157 60Q196 60 214 80T241 140Q246 162 246 177Q246 203 232 219T182 235Q142 235 125 215T99 153Q93 133 93 116Q93 90 107 75T157 60Z"/><glyph unicode="ù" d="M151 -6Q105 -6 78 4T37 33T24 82T31 150L63 299H146L113 144Q110 127 108 113T110 89T125 73T158 67Q175 67 185 71T202 84T213 105T220 134L255 299H337L300 130Q292 92 282 66T254 24T212 1T151 -6ZM105 443H201L255 347H184L105 443Z"/><glyph unicode="ú" d="M151 -6Q105 -6 78 4T37 33T24 82T31 150L63 299H146L113 144Q110 127 108 113T110 89T125 73T158 67Q175 67 185 71T202 84T213 105T220 134L255 299H337L300 130Q292 92 282 66T254 24T212 1T151 -6ZM242 443H343L222 347H146L242 443Z"/><glyph unicode="û" d="M151 -6Q105 -6 78 4T37 33T24 82T31 150L63 299H146L113 144Q110 127 108 113T110 89T125 73T158 67Q175 67 185 71T202 84T213 105T220 134L255 299H337L300 130Q292 92 282 66T254 24T212 1T151 -6ZM180 443H265L325 347H249L212 392L156 347H79L180 443Z"/><glyph unicode="ü" d="M151 -6Q105 -6 78 4T37 33T24 82T31 150L63 299H146L113 144Q110 127 108 113T110 89T125 73T158 67Q175 67 185 71T202 84T213 105T220 134L255 299H337L300 130Q292 92 282 66T254 24T212 1T151 -6ZM121 419H196L181 347H107L121 419ZM238 419H314L298 347H223L238 419Z"/><glyph unicode="ý" horiz-adv-x="318" d="M34 299H121L144 119L243 299H328L144 -19Q132 -40 122 -53T99 -75T70 -86T31 -90H8Q-2 -90 -9 -89L4 -27H26Q51 -27 58 -23T72 -4L80 9L34 299ZM481 443H582L461 347H385L481 443Z"/><glyph unicode="þ" horiz-adv-x="368" d="M88 409H171L144 280Q152 290 170 297T227 305Q259 305 280 297T314 274T332 239T338 197Q338 170 330 136Q317 71 285 33T185 -5Q138 -5 118 3T89 26L66 -87H-17L88 409ZM174 65Q209 65 224 85T247 142Q249 153 250 162T251 180Q251 202 240 216T195 230Q161 230 143 214T116 156Q114 145 113 136T111 117Q111 91 125 78T174 65Z"/><glyph unicode="ÿ" horiz-adv-x="318" d="M34 299H121L144 119L243 299H328L144 -19Q132 -40 122 -53T99 -75T70 -86T31 -90H8Q-2 -90 -9 -89L4 -27H26Q51 -27 58 -23T72 -4L80 9L34 299ZM360 419H435L420 347H346L360 419ZM477 419H553L537 347H462L477 419Z"/><glyph unicode="Ā" horiz-adv-x="423" d="M211 393H294L359 0H274L263 64H105L68 0H-24L211 393ZM253 136L229 283L145 136H253ZM158 496H376L363 431H143L158 496Z"/><glyph unicode="ā" horiz-adv-x="354" d="M111 -5Q78 -5 57 1T23 18T6 45T1 80Q1 114 14 135T50 169T107 187T182 192H226L216 135H170Q124 135 104 127T83 90Q83 76 93 69T135 62Q168 62 182 74T205 124L219 186Q222 201 222 209Q222 221 211 227T164 233Q147 233 125 228T87 215L57 277Q76 289 108 297T180 305Q227 305 253 297T291 273T303 232T296 177L279 96Q276 80 277 74T299 69L284 1Q280 -1 272 -1T249 -1Q228 -1 219 4T205 27Q178 -5 111 -5ZM106 412H324L311 347H91L106 412Z"/><glyph unicode="Ă" horiz-adv-x="423" d="M211 393H294L359 0H274L263 64H105L68 0H-24L211 393ZM253 136L229 283L145 136H253ZM263 425Q230 425 210 433T179 456T165 491T162 534L223 541Q223 514 231 502T268 489Q293 489 306 501T329 541L386 530Q373 484 344 455T263 425Z"/><glyph unicode="ă" horiz-adv-x="354" d="M111 -5Q78 -5 57 1T23 18T6 45T1 80Q1 114 14 135T50 169T107 187T182 192H226L216 135H170Q124 135 104 127T83 90Q83 76 93 69T135 62Q168 62 182 74T205 124L219 186Q222 201 222 209Q222 221 211 227T164 233Q147 233 125 228T87 215L57 277Q76 289 108 297T180 305Q227 305 253 297T291 273T303 232T296 177L279 96Q276 80 277 74T299 69L284 1Q280 -1 272 -1T249 -1Q228 -1 219 4T205 27Q178 -5 111 -5ZM211 341Q178 341 158 349T127 372T113 407T110 450L171 457Q171 430 179 418T216 405Q241 405 254 417T277 457L334 446Q321 400 292 371T211 341Z"/><glyph unicode="Ą" horiz-adv-x="423" d="M211 393H294L359 0H329Q303 -17 287 -31T270 -63Q270 -71 277 -75T305 -80Q316 -80 326 -78T347 -72L364 -111Q351 -119 332 -123T290 -127Q243 -127 227 -114T210 -81Q210 -65 216 -52T231 -28T252 -11T273 1L263 64H105L68 0H-24L211 393ZM253 136L229 283L145 136H253Z"/><glyph unicode="ą" horiz-adv-x="354" d="M111 -5Q78 -5 57 1T23 18T6 45T1 80Q1 114 14 135T50 169T107 187T182 192H220Q221 197 221 201T222 209Q222 221 211 227T164 233Q147 233 125 228T87 215L57 277Q76 289 108 297T180 305Q227 305 253 297T291 273T303 232T296 177L279 96Q276 80 277 74T299 69L284 1Q258 -16 241 -31T223 -63Q223 -71 230 -75T255 -80Q266 -80 274 -79T294 -73L311 -112Q300 -119 283 -123T244 -127Q199 -127 181 -114T163 -78Q163 -63 169 -50T184 -28T205 -11T227 1Q219 2 213 8Q207 14 205 27Q178 -5 111 -5ZM135 62Q168 62 182 74T205 124L207 135H170Q124 135 104 127T83 90Q83 76 93 69T135 62Z"/><glyph unicode="Ć" horiz-adv-x="411" d="M204 -6Q155 -6 121 5T64 36T32 84T22 147Q22 163 23 180T30 215Q41 269 62 304T112 360T175 389T245 398Q281 398 307 393T353 378T385 358T408 336L338 279Q324 296 301 307T244 318Q193 318 162 292T116 205Q111 177 111 159Q111 118 134 95T212 71Q242 71 265 80T307 104L355 42Q326 18 291 6T204 -6ZM288 527H389L268 431H192L288 527Z"/><glyph unicode="ć" horiz-adv-x="319" d="M150 -5Q111 -5 85 4T42 28T20 64T13 109Q13 137 19 166Q25 197 37 222T69 266T117 295T185 305Q237 305 264 290T309 253L242 201Q234 210 221 220T178 230Q146 230 128 212T102 152Q99 137 99 118Q99 95 111 80T157 65Q174 65 187 69T221 89L264 36Q237 13 209 4T150 -5ZM481 443H582L461 347H385L481 443Z"/><glyph unicode="Č" horiz-adv-x="411" d="M204 -6Q155 -6 121 5T64 36T32 84T22 147Q22 163 23 180T30 215Q41 269 62 304T112 360T175 389T245 398Q281 398 307 393T353 378T385 358T408 336L338 279Q324 296 301 307T244 318Q193 318 162 292T116 205Q111 177 111 159Q111 118 134 95T212 71Q242 71 265 80T307 104L355 42Q326 18 291 6T204 -6ZM145 527H222L258 482L314 527H392L291 431H205L145 527Z"/><glyph unicode="č" horiz-adv-x="319" d="M150 -5Q111 -5 85 4T42 28T20 64T13 109Q13 137 19 166Q25 197 37 222T69 266T117 295T185 305Q237 305 264 290T309 253L242 201Q234 210 221 220T178 230Q146 230 128 212T102 152Q99 137 99 118Q99 95 111 80T157 65Q174 65 187 69T221 89L264 36Q237 13 209 4T150 -5ZM338 443H415L451 398L507 443H585L484 347H398L338 443Z"/><glyph unicode="Ď" horiz-adv-x="428" d="M90 390H190Q306 390 356 358T406 250Q406 233 404 214T396 173Q384 116 364 82T316 30T253 6T175 0H7L90 390ZM177 75Q209 75 231 79T268 96T292 129T310 183Q316 214 316 238Q316 276 291 294T203 313H160L110 75H177ZM152 527H229L265 482L321 527H399L298 431H212L152 527Z"/><glyph unicode="ď" horiz-adv-x="451" d="M379 290Q392 296 400 300T413 308T420 316T424 328H389L407 409H486L473 351Q468 330 463 316T450 292T427 273T390 255L379 290ZM123 -5Q91 -5 70 3T36 26T18 60T12 103Q12 118 14 133T19 165Q26 196 37 222T65 266T106 295T164 305Q209 305 230 296T259 274L289 409H372L285 3L221 -3V23Q207 9 184 2T123 -5ZM155 66Q190 66 207 81T235 141Q237 151 238 161T239 179Q239 204 225 217T176 231Q141 231 127 211T104 154Q102 144 101 135T100 116Q100 94 111 80T155 66Z"/><glyph unicode="Đ" horiz-adv-x="428" d="M18 232H216L201 164H3L18 232ZM90 390H190Q306 390 356 358T406 250Q406 233 404 214T396 173Q384 116 364 82T316 30T253 6T175 0H7L90 390ZM177 75Q209 75 231 79T268 96T292 129T310 183Q316 214 316 238Q316 257 310 271T290 294T251 308T190 313H160L110 75H177Z"/><glyph unicode="đ" horiz-adv-x="368" d="M227 377H404L390 312H214L227 377ZM123 -5Q91 -5 70 3T36 26T18 60T12 103Q12 117 14 131T19 160Q26 190 37 215T65 258T106 285T164 295Q209 295 229 286T257 264L289 409H372L285 3L221 -3V23Q207 9 184 2T123 -5ZM155 66Q190 66 207 81T235 141Q237 149 238 157T239 174Q239 197 225 209T176 221Q141 221 127 202T104 149Q102 141 101 133T100 116Q100 94 111 80T155 66Z"/><glyph unicode="Ē" horiz-adv-x="376" d="M91 390H378L361 313H160L145 237H341L324 162H128L110 75H313L297 0H8L91 390ZM135 496H353L340 431H120L135 496Z"/><glyph unicode="ē" horiz-adv-x="336" d="M149 -6Q110 -6 84 3T42 28T20 64T13 109Q13 137 19 166Q33 231 71 268T184 305Q220 305 243 297T280 276T299 246T305 211Q305 191 301 166T292 118H36L49 177H225Q226 182 226 187T227 197Q227 214 217 225T175 236Q138 236 122 214T97 154Q91 136 91 117Q91 92 105 77T158 61Q183 61 205 66T245 82L277 26Q248 6 215 0T149 -6ZM97 412H315L302 347H82L97 412Z"/><glyph unicode="Ė" horiz-adv-x="376" d="M91 390H378L361 313H160L145 237H341L324 162H128L110 75H313L297 0H8L91 390ZM204 505H287L272 431H188L204 505Z"/><glyph unicode="ė" horiz-adv-x="336" d="M149 -6Q110 -6 84 3T42 28T20 64T13 109Q13 137 19 166Q33 231 71 268T184 305Q220 305 243 297T280 276T299 246T305 211Q305 191 301 166T292 118H36L49 177H225Q226 182 226 187T227 197Q227 214 217 225T175 236Q138 236 122 214T97 154Q91 136 91 117Q91 92 105 77T158 61Q183 61 205 66T245 82L277 26Q248 6 215 0T149 -6ZM166 421H249L234 347H150L166 421Z"/><glyph unicode="Ę" horiz-adv-x="376" d="M91 390H378L361 313H160L145 237H341L324 162H128L110 75H313L297 0H248Q221 -17 205 -31T188 -63Q188 -71 195 -75T222 -80Q233 -80 243 -78T265 -72L282 -111Q253 -127 208 -127Q161 -127 145 -114T128 -81Q128 -65 135 -52T152 -29T175 -12T197 0H8L91 390Z"/><glyph unicode="ę" horiz-adv-x="336" d="M149 -6Q110 -6 84 3T42 28T20 64T13 109Q13 137 19 166Q33 231 71 268T184 305Q220 305 243 297T280 276T299 246T305 211Q305 191 301 166T292 118H91V117Q91 92 105 77T158 61Q183 61 205 66T245 82L277 26Q248 6 217 1T153 -6Q158 -3 163 -1T174 4H221Q191 -14 173 -30T155 -63Q155 -71 162 -75T190 -80Q210 -80 232 -72L249 -111Q236 -119 217 -123T175 -127Q128 -127 112 -114T95 -81Q95 -52 114 -35T153 -6H149ZM175 236Q144 236 128 221T103 177H225Q226 182 226 187T227 197Q227 214 217 225T175 236Z"/><glyph unicode="Ě" horiz-adv-x="376" d="M91 390H378L361 313H160L145 237H341L324 162H128L110 75H313L297 0H8L91 390ZM127 527H204L240 482L296 527H374L273 431H187L127 527Z"/><glyph unicode="ě" horiz-adv-x="336" d="M149 -6Q110 -6 84 3T42 28T20 64T13 109Q13 137 19 166Q33 231 71 268T184 305Q220 305 243 297T280 276T299 246T305 211Q305 191 301 166T292 118H36L49 177H225Q226 182 226 187T227 197Q227 214 217 225T175 236Q138 236 122 214T97 154Q91 136 91 117Q91 92 105 77T158 61Q183 61 205 66T245 82L277 26Q248 6 215 0T149 -6ZM89 443H166L202 398L258 443H336L235 347H149L89 443Z"/><glyph unicode="Ğ" horiz-adv-x="435" d="M207 -6Q109 -6 66 34T22 146Q22 167 24 183T30 215Q49 309 103 353T245 398Q311 398 352 379T411 336L341 279Q329 293 307 305T240 318Q186 318 156 289T115 205Q110 182 110 159Q110 115 133 91T213 67Q262 67 282 84T312 147L313 156H210L224 228H413L398 159Q389 112 375 80T338 29T283 2T207 -6ZM269 425Q236 425 216 433T185 456T171 491T168 534L229 541Q229 514 237 502T274 489Q299 489 312 501T335 541L392 530Q379 484 350 455T269 425Z"/><glyph unicode="ğ" horiz-adv-x="358" d="M169 109Q138 109 114 113Q111 107 111 100Q111 92 115 88T137 83Q182 82 211 78T259 66T284 43T291 8Q291 -24 281 -44T250 -75T198 -91T124 -95Q40 -95 5 -78T-30 -21Q-30 17 -7 35T48 58Q38 71 38 94Q38 113 49 127Q54 133 58 137Q35 160 35 194Q35 254 69 279T178 305Q190 305 203 304L343 332L331 269H284Q292 261 299 250Q309 233 309 210Q309 157 275 133T169 109ZM139 -38Q175 -38 189 -31T204 -2Q204 13 185 19T117 25Q83 25 71 17T58 -8Q58 -22 75 -30T139 -38ZM170 165Q199 165 212 175T225 211Q225 226 214 233T172 241Q144 241 130 231T116 195Q116 181 127 173T170 165ZM212 341Q179 341 159 349T128 372T114 407T111 450L172 457Q172 430 180 418T217 405Q242 405 255 417T278 457L335 446Q322 400 293 371T212 341Z"/><glyph unicode="Ģ" horiz-adv-x="435" d="M207 -6Q109 -6 66 34T22 146Q22 167 24 183T30 215Q49 309 103 353T245 398Q311 398 352 379T411 336L341 279Q329 293 307 305T240 318Q186 318 156 289T115 205Q110 182 110 159Q110 115 133 91T213 67Q262 67 282 84T312 147L313 156H210L224 228H413L398 159Q389 112 375 80T338 29T283 2T207 -6ZM109 -149Q135 -138 143 -132T154 -112H115L133 -30H216L204 -88Q199 -109 194 -123T180 -148T157 -167T119 -184L109 -149Z"/><glyph unicode="ģ" horiz-adv-x="358" d="M169 109Q138 109 114 113Q111 107 111 100Q111 92 115 88T137 83Q182 82 211 78T259 66T284 43T291 8Q291 -24 281 -44T250 -75T198 -91T124 -95Q40 -95 5 -78T-30 -21Q-30 17 -7 35T48 58Q38 71 38 94Q38 113 49 127Q54 133 58 137Q35 160 35 194Q35 254 69 279T178 305Q190 305 203 304L343 332L331 269H284Q292 261 299 250Q309 233 309 210Q309 157 275 133T169 109ZM139 -38Q175 -38 189 -31T204 -2Q204 13 185 19T117 25Q83 25 71 17T58 -8Q58 -22 75 -30T139 -38ZM170 165Q199 165 212 175T225 211Q225 226 214 233T172 241Q144 241 130 231T116 195Q116 181 127 173T170 165ZM162 398Q166 419 171 433T186 459T209 478T247 494L256 458Q230 447 222 441T212 422H251L234 347H151L162 398Z"/><glyph unicode="Ī" horiz-adv-x="195" d="M97 390H183L100 0H14L97 390ZM302 496H520L507 431H287L302 496Z"/><glyph unicode="ī" horiz-adv-x="174" d="M68 299H150L87 0H4L68 299ZM274 412H492L479 347H259L274 412Z"/><glyph unicode="Į" horiz-adv-x="195" d="M97 390H183L100 0Q73 -17 56 -31T39 -63Q39 -71 45 -75T71 -80Q82 -80 90 -79T110 -73L126 -112Q103 -127 59 -127Q12 -127 -4 -114T-21 -81Q-21 -49 -1 -30T41 0H14L97 390Z"/><glyph unicode="į" horiz-adv-x="174" d="M68 299H150L87 0H86Q60 -16 43 -31T26 -63Q26 -80 58 -80Q69 -80 78 -79T98 -73L114 -112Q91 -127 46 -127Q-1 -127 -17 -114T-33 -81Q-33 -65 -28 -52T-13 -29T7 -12T28 0H4L68 299ZM90 409H174L158 332H74L90 409Z"/><glyph unicode="İ" horiz-adv-x="195" d="M97 390H183L100 0H14L97 390ZM371 505H454L439 431H355L371 505Z"/><glyph unicode="ı" horiz-adv-x="174" d="M68 299H150L87 0H4L68 299Z"/><glyph unicode="Ķ" horiz-adv-x="410" d="M91 390H176L140 226L308 390H410L251 237L346 0H255L184 175L115 109L92 0H8L91 390ZM96 -149Q122 -138 130 -132T141 -112H102L120 -30H203L191 -88Q186 -109 181 -123T167 -148T144 -167T106 -184L96 -149Z"/><glyph unicode="ķ" horiz-adv-x="329" d="M88 409H171L123 185L237 299H328L205 178L274 0H188L142 116L99 73L83 0H2L88 409ZM55 -149Q81 -138 89 -132T100 -112H61L79 -30H162L150 -88Q145 -109 140 -123T126 -148T103 -167T65 -184L55 -149Z"/><glyph unicode="Ĺ" horiz-adv-x="335" d="M91 390H178L110 75H291L276 0H8L91 390ZM466 527H567L446 431H370L466 527Z"/><glyph unicode="ĺ" horiz-adv-x="200" d="M344 -1Q299 -1 285 22T282 100L348 409H431L366 100Q362 82 365 76T388 69H403L388 1Q383 0 370 0T344 -1ZM449 547H550L429 451H353L449 547Z"/><glyph unicode="Ļ" horiz-adv-x="335" d="M91 390H178L110 75H291L276 0H8L91 390ZM59 -149Q85 -138 93 -132T104 -112H65L83 -30H166L154 -88Q149 -109 144 -123T130 -148T107 -167T69 -184L59 -149Z"/><glyph unicode="ļ" horiz-adv-x="200" d="M344 -1Q299 -1 285 22T282 100L348 409H431L366 100Q362 82 365 76T388 69H403L388 1Q383 0 370 0T344 -1ZM-9 -149Q17 -138 25 -132T36 -112H-3L15 -30H98L86 -88Q81 -109 76 -123T62 -148T39 -167T1 -184L-9 -149Z"/><glyph unicode="Ľ" horiz-adv-x="335" d="M192 290Q205 296 213 300T227 308T234 316T238 328H203L220 409H299L287 351Q283 330 278 316T263 292T240 273T203 255L192 290ZM91 390H178L110 75H291L276 0H8L91 390Z"/><glyph unicode="ľ" horiz-adv-x="254" d="M182 290Q195 296 203 300T216 308T223 316T227 328H192L210 409H289L277 351Q272 330 267 316T253 292T230 273T193 255L182 290ZM87 -1Q42 -1 28 22T25 100L91 409H174L109 100Q105 82 108 76T131 69H146L131 1Q126 0 113 0T87 -1Z"/><glyph unicode="Ł" horiz-adv-x="342" d="M91 390H178L110 75H299L284 0H8L91 390ZM13 206L234 315L218 245L-2 136L13 206Z"/><glyph unicode="ł" horiz-adv-x="233" d="M33 240L231 342L216 272L17 170L33 240ZM111 -1Q66 -1 52 22T48 100L114 409H197L132 100Q127 82 131 76T154 69H164L149 1Q144 0 133 0T111 -1Z"/><glyph unicode="Ń" horiz-adv-x="443" d="M91 390H184L299 139L353 390H436L353 0H273L148 270L90 0H8L91 390ZM303 527H404L283 431H207L303 527Z"/><glyph unicode="ń" horiz-adv-x="360" d="M316 294L381 299V276Q396 289 417 297T471 305Q513 305 535 295T566 266T574 224T566 171L529 0H446L480 162Q483 176 485 188T483 209T468 223T435 228Q402 228 389 211T371 168L336 0H253L316 294ZM243 443H344L223 347H147L243 443Z"/><glyph unicode="Ņ" horiz-adv-x="443" d="M91 390H184L299 139L353 390H436L353 0H273L148 270L90 0H8L91 390ZM113 -149Q139 -138 147 -132T158 -112H119L137 -30H220L208 -88Q203 -109 198 -123T184 -148T161 -167T123 -184L113 -149Z"/><glyph unicode="ņ" horiz-adv-x="360" d="M64 294L129 299V276Q144 289 165 297T219 305Q261 305 283 295T314 266T322 224T314 171L277 0H194L228 162Q231 176 233 188T231 209T216 223T183 228Q150 228 137 211T119 168L84 0H1L64 294ZM72 -149Q98 -138 106 -132T117 -112H78L96 -30H179L167 -88Q162 -109 157 -123T143 -148T120 -167T82 -184L72 -149Z"/><glyph unicode="Ň" horiz-adv-x="443" d="M91 390H184L299 139L353 390H436L353 0H273L148 270L90 0H8L91 390ZM160 527H237L273 482L329 527H407L306 431H220L160 527Z"/><glyph unicode="ň" horiz-adv-x="360" d="M64 294L129 299V276Q144 289 165 297T219 305Q261 305 283 295T314 266T322 224T314 171L277 0H194L228 162Q231 176 233 188T231 209T216 223T183 228Q150 228 137 211T119 168L84 0H1L64 294ZM100 443H177L213 398L269 443H347L246 347H160L100 443Z"/><glyph unicode="Ō" horiz-adv-x="464" d="M215 -6Q124 -6 74 34T23 153Q23 185 30 217Q42 272 64 307T116 362T180 390T250 398Q338 398 389 358T441 239Q441 224 439 209T433 176Q421 121 399 86T347 30T283 2T215 -6ZM216 70Q271 70 302 97T346 182Q348 195 349 206T351 228Q351 268 328 293T246 318Q191 318 160 291T116 206Q114 195 113 184T112 162Q112 120 135 95T216 70ZM178 496H396L383 431H163L178 496Z"/><glyph unicode="ō" horiz-adv-x="358" d="M153 -6Q78 -6 46 26T13 113Q13 137 19 166Q36 241 77 273T186 305Q261 305 293 273T326 187Q326 162 320 135Q304 59 263 27T153 -6ZM158 65Q194 65 211 84T237 141Q239 149 240 158T241 175Q241 200 228 215T181 230Q145 230 128 211T102 152Q100 144 99 135T98 118Q98 95 111 80T158 65ZM108 412H326L313 347H93L108 412Z"/><glyph unicode="Ő" horiz-adv-x="464" d="M215 -6Q124 -6 74 34T23 153Q23 185 30 217Q42 272 64 307T116 362T180 390T250 398Q338 398 389 358T441 239Q441 224 439 209T433 176Q421 121 399 86T347 30T283 2T215 -6ZM216 70Q271 70 302 97T346 182Q348 195 349 206T351 228Q351 268 328 293T246 318Q191 318 160 291T116 206Q114 195 113 184T112 162Q112 120 135 95T216 70ZM236 527H332L219 431H150L236 527ZM379 527H474L362 431H292L379 527Z"/><glyph unicode="ő" horiz-adv-x="358" d="M153 -6Q78 -6 46 26T13 113Q13 137 19 166Q36 241 77 273T186 305Q261 305 293 273T326 187Q326 162 320 135Q304 59 263 27T153 -6ZM158 65Q194 65 211 84T237 141Q239 149 240 158T241 175Q241 200 228 215T181 230Q145 230 128 211T102 152Q100 144 99 135T98 118Q98 95 111 80T158 65ZM166 443H262L149 347H80L166 443ZM309 443H404L292 347H222L309 443Z"/><glyph unicode="Œ" horiz-adv-x="673" d="M215 -6Q123 -6 73 34T23 153Q22 168 24 184T30 217Q42 272 64 307T116 362T180 390T250 398Q347 398 391 350L400 390H675L658 313H462L446 237H637L621 162H430L412 75H609L594 0H317L322 26Q303 11 280 3Q251 -6 215 -6ZM216 70Q271 70 302 97T346 182Q348 195 349 206T351 228Q351 268 328 293T246 318Q191 318 160 291T116 206Q114 195 113 184T112 162Q112 120 135 95T216 70Z"/><glyph unicode="œ" horiz-adv-x="557" d="M370 -6Q331 -6 307 3T268 28Q267 30 265 32Q262 29 259 26Q222 -6 153 -6Q78 -6 46 26T13 113Q13 137 19 166Q36 241 77 273T186 305Q261 305 290 273L296 266L298 268Q316 286 342 295T406 305Q442 305 465 297T501 276T520 245T526 211Q526 191 523 166T514 118H313V117Q313 92 327 77T380 61Q405 61 427 66T466 82L498 26Q469 6 436 0T370 -6ZM158 65Q194 65 211 84T237 141Q239 149 240 158T241 175Q241 200 228 215T181 230Q145 230 128 211T102 152Q100 144 99 135T98 118Q98 95 111 80T158 65ZM447 177Q448 182 448 187T449 197Q449 214 439 225T396 236Q360 236 343 214Q331 199 324 177H447Z"/><glyph unicode="Ŕ" horiz-adv-x="417" d="M90 390H242Q288 390 318 382T367 361T392 329T399 291Q399 258 392 229T366 178T316 143Q303 137 287 134L333 0H246L201 130H119L91 0H7L90 390ZM236 204Q273 204 291 220T310 273Q310 317 235 317H159L136 204H236ZM290 527H391L270 431H194L290 527Z"/><glyph unicode="ŕ" horiz-adv-x="223" d="M64 294L129 299V264Q143 283 171 292T233 302L217 224Q188 223 170 219T142 205T126 183T116 152L84 0H2L64 294ZM433 443H534L413 347H337L433 443Z"/><glyph unicode="Ŗ" horiz-adv-x="417" d="M90 390H242Q288 390 318 382T367 361T392 329T399 291Q399 258 392 229T366 178T316 143Q303 137 287 134L333 0H246L201 130H119L91 0H7L90 390ZM236 204Q273 204 291 220T310 273Q310 317 235 317H159L136 204H236ZM100 -149Q126 -138 134 -132T145 -112H106L124 -30H207L195 -88Q190 -109 185 -123T171 -148T148 -167T110 -184L100 -149Z"/><glyph unicode="ŗ" horiz-adv-x="223" d="M64 294L129 299V264Q143 283 171 292T233 302L217 224Q188 223 170 219T142 205T126 183T116 152L84 0H2L64 294ZM232 -149Q258 -138 266 -132T277 -112H238L256 -30H339L327 -88Q322 -109 317 -123T303 -148T280 -167T242 -184L232 -149Z"/><glyph unicode="Ř" horiz-adv-x="417" d="M90 390H242Q288 390 318 382T367 361T392 329T399 291Q399 258 392 229T366 178T316 143Q303 137 287 134L333 0H246L201 130H119L91 0H7L90 390ZM236 204Q273 204 291 220T310 273Q310 317 235 317H159L136 204H236ZM147 527H224L260 482L316 527H394L293 431H207L147 527Z"/><glyph unicode="ř" horiz-adv-x="219" d="M64 294L129 299V264Q143 283 171 292T233 302L217 224Q188 223 170 219T142 205T126 183T116 152L84 0H2L64 294ZM288 443H365L401 398L457 443H535L434 347H348L288 443Z"/><glyph unicode="Ś" horiz-adv-x="400" d="M185 -6Q114 -6 67 12T-12 53L44 113Q70 91 106 79T189 66Q226 66 246 75T266 110Q266 122 262 129T247 141T220 151T181 162Q154 169 132 177T93 197T67 227T57 272Q57 308 69 332T103 371T153 392T214 398Q250 398 277 394T324 382T359 366T384 350L327 286Q311 299 282 310T211 321Q179 321 162 313T145 279Q145 259 165 250T220 233Q247 227 271 220T314 201T344 172T355 128Q355 56 309 25T185 -6ZM281 527H382L261 431H185L281 527Z"/><glyph unicode="ś" horiz-adv-x="311" d="M133 -5Q87 -5 49 8T-14 42L37 99Q57 84 86 73T141 62Q162 62 173 66T184 88Q184 101 167 107T128 118Q112 122 96 127T66 141T44 164T35 199Q35 258 71 281T168 305Q210 305 242 295T295 270L244 208Q230 216 209 224T159 233Q138 233 129 229T119 210Q119 197 133 191T173 180Q190 175 207 170T237 155T259 132T267 97Q267 68 258 49T230 17T188 0T133 -5ZM478 443H579L458 347H382L478 443Z"/><glyph unicode="Ş" horiz-adv-x="400" d="M185 -6Q114 -6 67 12T-12 53L44 113Q70 91 106 79T189 66Q226 66 246 75T266 110Q266 122 262 129T247 141T220 151T181 162Q154 169 132 177T93 197T67 227T57 272Q57 308 69 332T103 371T153 392T214 398Q250 398 277 394T324 382T359 366T384 350L327 286Q311 299 282 310T211 321Q179 321 162 313T145 279Q145 259 165 250T220 233Q247 227 271 220T314 201T344 172T355 128Q355 56 309 25T185 -6ZM146 -131Q117 -131 97 -125T63 -109L91 -71Q102 -78 115 -83T145 -89Q158 -89 166 -84T174 -65Q174 -52 160 -49T131 -48L118 -38L136 4H182L171 -23Q193 -24 211 -31T229 -64Q229 -86 221 -99T201 -120T175 -129T146 -131Z"/><glyph unicode="ş" horiz-adv-x="311" d="M133 -5Q87 -5 49 8T-14 42L37 99Q57 84 86 73T141 62Q162 62 173 66T184 88Q184 101 167 107T128 118Q112 122 96 127T66 141T44 164T35 199Q35 258 71 281T168 305Q210 305 242 295T295 270L244 208Q230 216 209 224T159 233Q138 233 129 229T119 210Q119 197 133 191T173 180Q190 175 207 170T237 155T259 132T267 97Q267 68 258 49T230 17T188 0T133 -5ZM360 -131Q331 -131 311 -125T277 -109L305 -71Q316 -78 329 -83T359 -89Q372 -89 380 -84T388 -65Q388 -52 374 -49T345 -48L332 -38L350 4H396L385 -23Q407 -24 425 -31T443 -64Q443 -86 435 -99T415 -120T389 -129T360 -131Z"/><glyph unicode="Š" horiz-adv-x="400" d="M185 -6Q114 -6 67 12T-12 53L44 113Q70 91 106 79T189 66Q226 66 246 75T266 110Q266 122 262 129T247 141T220 151T181 162Q154 169 132 177T93 197T67 227T57 272Q57 308 69 332T103 371T153 392T214 398Q250 398 277 394T324 382T359 366T384 350L327 286Q311 299 282 310T211 321Q179 321 162 313T145 279Q145 259 165 250T220 233Q247 227 271 220T314 201T344 172T355 128Q355 56 309 25T185 -6ZM138 527H215L251 482L307 527H385L284 431H198L138 527Z"/><glyph unicode="š" horiz-adv-x="311" d="M133 -5Q87 -5 49 8T-14 42L37 99Q57 84 86 73T141 62Q162 62 173 66T184 88Q184 101 167 107T128 118Q112 122 96 127T66 141T44 164T35 199Q35 258 71 281T168 305Q210 305 242 295T295 270L244 208Q230 216 209 224T159 233Q138 233 129 229T119 210Q119 197 133 191T173 180Q190 175 207 170T237 155T259 132T267 97Q267 68 258 49T230 17T188 0T133 -5ZM335 443H412L448 398L504 443H582L481 347H395L335 443Z"/><glyph unicode="Ţ" horiz-adv-x="382" d="M173 313H43L59 390H407L390 313H259L193 0H107L173 313ZM82 -149Q108 -138 116 -132T127 -112H88L106 -30H189L177 -88Q172 -109 167 -123T153 -148T130 -167T92 -184L82 -149Z"/><glyph unicode="ţ" horiz-adv-x="256" d="M145 -1Q113 -1 95 5T67 25T58 57T62 102L100 277L138 371L205 384L146 105Q142 87 146 78T177 69H216L201 0Q193 -1 175 -1T145 -1ZM45 299H265L250 228H30L45 299ZM15 -149Q41 -138 49 -132T60 -112H21L39 -30H122L110 -88Q105 -109 100 -123T86 -148T63 -167T25 -184L15 -149Z"/><glyph unicode="Ť" horiz-adv-x="382" d="M173 313H43L59 390H407L390 313H259L193 0H107L173 313ZM129 527H206L242 482L298 527H376L275 431H189L129 527Z"/><glyph unicode="ť" horiz-adv-x="256" d="M219 368Q232 373 239 377T251 384T258 392T262 404H228L246 481H321L310 426Q305 406 300 393T287 369T264 351T229 335L219 368ZM145 -1Q113 -1 95 5T67 25T58 57T62 102L100 277L138 371L205 384L146 105Q142 87 146 78T177 69H216L201 0Q193 -1 175 -1T145 -1ZM45 299H265L250 228H30L45 299Z"/><glyph unicode="Ū" horiz-adv-x="440" d="M195 -7Q146 -7 115 2T65 28T40 65T33 109Q33 123 35 136T39 163L88 390H175L127 167Q125 155 124 145T122 126Q122 100 139 85T205 69Q253 69 272 89T301 154L351 390H435L381 138Q375 110 365 84T334 38T280 5T195 -7ZM167 496H385L372 431H152L167 496Z"/><glyph unicode="ū" d="M151 -6Q105 -6 78 4T37 33T24 82T31 150L63 299H146L113 144Q110 127 108 113T110 89T125 73T158 67Q175 67 185 71T202 84T213 105T220 134L255 299H337L300 130Q292 92 282 66T254 24T212 1T151 -6ZM107 412H325L312 347H92L107 412Z"/><glyph unicode="Ů" horiz-adv-x="440" d="M195 -7Q146 -7 115 2T65 28T40 65T33 109Q33 123 35 136T39 163L88 390H175L127 167Q125 155 124 145T122 126Q122 100 139 85T205 69Q253 69 272 89T301 154L351 390H435L381 138Q375 110 365 84T334 38T280 5T195 -7ZM270 425Q232 425 216 443T199 487Q199 529 222 554T283 579Q320 579 337 560T354 515Q354 473 330 449T270 425ZM272 467Q290 467 301 478T312 510Q312 521 305 530T281 539Q262 539 252 526T241 492Q241 481 248 474T272 467Z"/><glyph unicode="ů" d="M151 -6Q105 -6 78 4T37 33T24 82T31 150L63 299H146L113 144Q110 127 108 113T110 89T125 73T158 67Q175 67 185 71T202 84T213 105T220 134L255 299H337L300 130Q292 92 282 66T254 24T212 1T151 -6ZM210 341Q172 341 156 359T139 403Q139 445 162 470T223 495Q260 495 277 476T294 431Q294 389 270 365T210 341ZM212 383Q230 383 241 394T252 426Q252 437 245 446T221 455Q202 455 192 442T181 408Q181 397 188 390T212 383Z"/><glyph unicode="Ű" horiz-adv-x="440" d="M195 -7Q146 -7 115 2T65 28T40 65T33 109Q33 123 35 136T39 163L88 390H175L127 167Q125 155 124 145T122 126Q122 100 139 85T205 69Q253 69 272 89T301 154L351 390H435L381 138Q375 110 365 84T334 38T280 5T195 -7ZM225 527H321L208 431H139L225 527ZM368 527H463L351 431H281L368 527Z"/><glyph unicode="ű" d="M151 -6Q105 -6 78 4T37 33T24 82T31 150L63 299H146L113 144Q110 127 108 113T110 89T125 73T158 67Q175 67 185 71T202 84T213 105T220 134L255 299H337L300 130Q292 92 282 66T254 24T212 1T151 -6ZM165 443H261L148 347H79L165 443ZM308 443H403L291 347H221L308 443Z"/><glyph unicode="Ų" horiz-adv-x="440" d="M178 -127Q131 -127 115 -114T99 -81Q99 -52 117 -34T156 -5Q119 -1 95 9T58 35T39 70T33 109Q33 123 35 136T39 163L88 390H175L127 167Q125 155 124 145T122 126Q122 100 139 85T205 69Q253 69 272 89T301 154L351 390H435L381 138Q375 111 365 86T336 40T286 7T207 -7Q184 -22 171 -35T158 -63Q158 -71 165 -75T193 -80Q212 -80 236 -72L252 -111Q240 -119 220 -123T178 -127Z"/><glyph unicode="ų" d="M135 -127Q88 -127 72 -114T55 -81Q55 -66 60 -55T75 -34T94 -17T115 -4Q80 0 60 11T31 42T23 89T31 150L63 299H146L113 144Q110 127 108 113T110 89T125 73T158 67Q175 67 185 71T202 84T213 105T220 134L255 299H337L300 130Q292 94 282 69T257 27T220 4T166 -5Q143 -21 129 -34T114 -63Q114 -71 121 -75T149 -80Q168 -80 192 -72L209 -111Q195 -119 175 -123T135 -127Z"/><glyph unicode="Ÿ" horiz-adv-x="410" d="M150 142L55 390H146L209 221L343 390H437L236 140L206 0H119L150 142ZM166 503H241L226 431H152L166 503ZM283 503H359L343 431H268L283 503Z"/><glyph unicode="Ź" horiz-adv-x="374" d="M0 64L252 313H61L78 390H382L367 320L118 75H321L305 0H-15L0 64ZM269 527H370L249 431H173L269 527Z"/><glyph unicode="ź" horiz-adv-x="294" d="M-9 56L166 228H37L51 299H291L280 242L105 67H248L235 0H-21L-9 56ZM469 443H570L449 347H373L469 443Z"/><glyph unicode="Ż" horiz-adv-x="374" d="M0 64L252 313H61L78 390H382L367 320L118 75H321L305 0H-15L0 64ZM203 505H286L271 431H187L203 505Z"/><glyph unicode="ż" horiz-adv-x="294" d="M-9 56L166 228H37L51 299H291L280 242L105 67H248L235 0H-21L-9 56ZM403 421H486L471 347H387L403 421Z"/><glyph unicode="Ž" horiz-adv-x="374" d="M0 64L252 313H61L78 390H382L367 320L118 75H321L305 0H-15L0 64ZM126 527H203L239 482L295 527H373L272 431H186L126 527Z"/><glyph unicode="ž" horiz-adv-x="294" d="M-9 56L166 228H37L51 299H291L280 242L105 67H248L235 0H-21L-9 56ZM326 443H403L439 398L495 443H573L472 347H386L326 443Z"/><glyph unicode="ƒ" horiz-adv-x="344" d="M149 302Q153 321 159 337T179 365T214 383T271 390H320L304 317H276Q248 317 239 307T226 277L149 -88H66L149 302ZM73 244H296L281 172H57L73 244Z"/><glyph unicode="Ș" horiz-adv-x="400" d="M185 -6Q114 -6 67 12T-12 53L44 113Q70 91 106 79T189 66Q226 66 246 75T266 110Q266 122 262 129T247 141T220 151T181 162Q154 169 132 177T93 197T67 227T57 272Q57 308 69 332T103 371T153 392T214 398Q250 398 277 394T324 382T359 366T384 350L327 286Q311 299 282 310T211 321Q179 321 162 313T145 279Q145 259 165 250T220 233Q247 227 271 220T314 201T344 172T355 128Q355 56 309 25T185 -6ZM91 -149Q117 -138 125 -132T136 -112H97L115 -30H198L186 -88Q181 -109 176 -123T162 -148T139 -167T101 -184L91 -149Z"/><glyph unicode="ș" horiz-adv-x="311" d="M133 -5Q87 -5 49 8T-14 42L37 99Q57 84 86 73T141 62Q162 62 173 66T184 88Q184 101 167 107T128 118Q112 122 96 127T66 141T44 164T35 199Q35 258 71 281T168 305Q210 305 242 295T295 270L244 208Q230 216 209 224T159 233Q138 233 129 229T119 210Q119 197 133 191T173 180Q190 175 207 170T237 155T259 132T267 97Q267 68 258 49T230 17T188 0T133 -5ZM47 -149Q73 -138 81 -132T92 -112H53L71 -30H154L142 -88Q137 -109 132 -123T118 -148T95 -167T57 -184L47 -149Z"/><glyph unicode="Ț" horiz-adv-x="382" d="M173 313H43L59 390H407L390 313H259L193 0H107L173 313ZM82 -149Q108 -138 116 -132T127 -112H88L106 -30H189L177 -88Q172 -109 167 -123T153 -148T130 -167T92 -184L82 -149Z"/><glyph unicode="ț" horiz-adv-x="256" d="M145 -1Q113 -1 95 5T67 25T58 57T62 102L100 277L138 371L205 384L146 105Q142 87 146 78T177 69H216L201 0Q193 -1 175 -1T145 -1ZM45 299H265L250 228H30L45 299ZM15 -149Q41 -138 49 -132T60 -112H21L39 -30H122L110 -88Q105 -109 100 -123T86 -148T63 -167T25 -184L15 -149Z"/><glyph unicode="ˆ" horiz-adv-x="331" d="M168 443H253L313 347H237L200 392L144 347H67L168 443Z"/><glyph unicode="ˇ" horiz-adv-x="331" d="M87 443H164L200 398L256 443H334L233 347H147L87 443Z"/><glyph unicode="˘" horiz-adv-x="331" d="M200 341Q167 341 147 349T116 372T102 407T99 450L160 457Q160 430 168 418T205 405Q230 405 243 417T266 457L323 446Q310 400 281 371T200 341Z"/><glyph unicode="˙" horiz-adv-x="331" d="M164 421H247L232 347H148L164 421Z"/><glyph unicode="˚" horiz-adv-x="331" d="M198 341Q160 341 144 359T127 403Q127 445 150 470T211 495Q248 495 265 476T282 431Q282 389 258 365T198 341ZM200 383Q218 383 229 394T240 426Q240 437 233 446T209 455Q190 455 180 442T169 408Q169 397 176 390T200 383Z"/><glyph unicode="˛" horiz-adv-x="331" d="M118 -127Q71 -127 55 -114T39 -81Q39 -63 47 -50T67 -26T92 -8T117 4H166Q135 -14 117 -30T99 -63Q99 -71 106 -75T134 -80Q145 -80 155 -78T176 -72L192 -111Q180 -119 160 -123T118 -127Z"/><glyph unicode="˜" horiz-adv-x="331" d="M243 347Q228 347 216 351T193 361T172 370T152 375Q142 375 132 369T111 351L70 389Q112 439 155 439Q171 439 183 435T206 425T226 415T246 410Q256 410 266 417T286 436L327 398Q286 347 243 347Z"/><glyph unicode="˝" horiz-adv-x="331" d="M153 443H249L136 347H67L153 443ZM296 443H391L279 347H209L296 443Z"/><glyph unicode="̄" horiz-adv-x="331" d="M95 412H313L300 347H80L95 412Z"/><glyph unicode="̦" horiz-adv-x="174" d="M-21 -149Q5 -138 13 -132T24 -112H-15L3 -30H86L74 -88Q69 -109 64 -123T50 -148T27 -167T-11 -184L-21 -149Z"/><glyph unicode="Δ" horiz-adv-x="403" d="M200 393H283L349 0H-34L200 393ZM252 71L219 283L97 71H252Z"/><glyph unicode="Ω" horiz-adv-x="461" d="M254 398Q346 398 395 357T445 249Q445 183 406 141T302 87L299 71H416L401 0H221L246 113Q302 124 327 154T353 231Q353 273 326 295T248 318Q216 318 191 308T148 282T121 242T112 194Q112 158 129 140T184 113L160 0H-19L-4 71H113L117 87Q72 96 50 122T27 197Q27 233 40 269T81 333T152 380T254 398Z"/><glyph unicode="μ" horiz-adv-x="358" d="M65 299H148L115 144Q112 127 110 113T111 89T126 73T161 67Q179 67 189 71T206 84T215 105T222 134L257 299H339L303 130Q295 92 284 66T255 24T213 1T153 -6Q129 -6 113 0T87 14L66 -87H-17L65 299Z"/><glyph unicode="π" horiz-adv-x="344" d="M55 299H331L267 0H184L233 230H123L73 0H-9L55 299Z"/><glyph unicode=" " horiz-adv-x="264"/><glyph unicode=" " horiz-adv-x="527"/><glyph unicode=" " horiz-adv-x="105"/><glyph unicode="–" horiz-adv-x="403" d="M34 210H377L360 136H18L34 210Z"/><glyph unicode="—" horiz-adv-x="516" d="M34 210H490L475 136H18L34 210Z"/><glyph unicode="‘" horiz-adv-x="174" d="M56 276Q61 301 67 318T82 348T108 371T151 391L167 351Q152 345 142 340T127 330T118 318T113 303H158L138 208H42L56 276Z"/><glyph unicode="’" horiz-adv-x="174" d="M52 248Q82 261 92 269T106 296H60L81 390H177L162 323Q157 298 152 281T137 251T111 228T69 207L52 248Z"/><glyph unicode="‚" horiz-adv-x="174" d="M-9 -45Q21 -32 30 -23T44 3H-1L19 98H115L101 30Q96 7 91 -9T75 -39T49 -64T6 -85L-9 -45Z"/><glyph unicode="“" horiz-adv-x="300" d="M57 278Q62 302 67 319T82 348T107 370T149 390L164 351Q135 339 126 331T112 305H156L137 212H43L57 278ZM185 278Q190 302 195 319T210 348T236 370T278 390L292 351Q263 339 254 331T240 305H284L264 212H172L185 278Z"/><glyph unicode="”" horiz-adv-x="300" d="M53 251Q68 258 77 263T92 273T101 284T106 299H61L81 390H175L160 324Q155 300 150 284T136 255T111 232T69 212L53 251ZM181 251Q196 258 205 263T220 273T229 284T234 299H189L210 390H303L288 324Q283 300 278 284T264 255T238 232T197 212L181 251Z"/><glyph unicode="„" horiz-adv-x="300" d="M-9 -43Q20 -32 29 -23T43 3H-1L18 96H112L99 30Q94 8 89 -8T73 -38T48 -61T6 -82L-9 -43ZM118 -43Q147 -32 157 -23T171 3H126L146 96H240L225 30Q220 8 215 -8T201 -38T176 -61T135 -82L118 -43Z"/><glyph unicode="†" horiz-adv-x="335" d="M131 214H39L55 289H147L173 409H254L228 289H321L305 214H213L149 -88H67L131 214Z"/><glyph unicode="‡" horiz-adv-x="335" d="M93 37H2L17 112H109L131 214H39L55 289H147L173 409H254L228 289H321L305 214H213L191 112H283L267 37H175L149 -88H67L93 37Z"/><glyph unicode="•" horiz-adv-x="225" d="M63 220H174L148 100H37L63 220Z"/><glyph unicode="…" horiz-adv-x="465" d="M18 95H114L93 0H-2L18 95ZM162 95H259L239 0H143L162 95ZM308 95H403L384 0H288L308 95Z"/><glyph unicode="‰" horiz-adv-x="923" d="M148 139Q92 139 65 166T38 238Q38 277 49 307T80 357T124 387T176 398Q232 398 259 370T286 296Q286 258 275 229T245 180T201 150T148 139ZM154 201Q182 201 197 228T212 293Q212 311 204 322T172 334Q146 334 130 309T113 241Q113 222 122 212T154 201ZM482 -6Q426 -6 399 21T372 94Q372 133 383 162T414 212T458 242T510 252Q566 252 593 224T620 150Q620 114 609 85T579 36T535 5T482 -6ZM488 56Q502 56 512 63T530 84T542 113T546 147Q546 166 537 178T505 190Q479 190 463 165T447 97Q447 78 456 67T488 56ZM749 -6Q692 -6 665 21T638 94Q638 133 649 162T680 212T724 242T776 252Q832 252 859 224T887 150Q887 114 876 85T846 36T802 5T749 -6ZM755 56Q769 56 779 63T797 84T807 113T811 147Q811 166 803 178T771 190Q745 190 729 165T712 97Q712 78 722 67T755 56ZM441 390H518L218 0H141L441 390Z"/><glyph unicode="‹" horiz-adv-x="276" d="M44 148L155 299H230L125 148L167 0H92L44 148Z"/><glyph unicode="›" horiz-adv-x="276" d="M133 149L91 299H166L213 149L102 0H28L133 149Z"/><glyph unicode="⁄" horiz-adv-x="311" d="M271 390H344L42 0H-31L271 390Z"/><glyph unicode="⁰" horiz-adv-x="327" d="M160 130Q105 130 81 154T56 221Q56 246 63 273Q77 339 108 366T194 394Q248 394 273 370T298 302Q298 277 291 250Q277 184 245 157T160 130ZM164 183Q191 183 203 199T224 256Q226 268 228 278T230 299Q230 320 221 330T189 340Q163 340 151 324T129 267Q127 255 126 245T124 226Q124 204 133 194T164 183Z"/><glyph unicode="⁴" horiz-adv-x="311" d="M44 228L192 390H262L117 231H271L260 181H35L44 228ZM170 226L195 291H244L211 134H150L170 226Z"/><glyph unicode="⁵" horiz-adv-x="294" d="M148 130Q106 130 77 140T34 162L69 207Q86 194 107 188T148 181Q168 181 181 188T195 225Q195 245 183 251T150 257Q128 257 109 249L65 264L99 390H276L264 338H145L135 302Q153 308 175 308Q193 308 208 305T236 294T255 272T262 233Q262 200 253 180T228 149T192 134T148 130Z"/><glyph unicode="⁶" horiz-adv-x="313" d="M160 130Q105 130 79 154T53 218Q53 240 57 259Q66 298 79 323T111 364T158 384T223 390H275L263 339H219Q193 339 178 336T153 326T140 310T131 291Q142 301 157 305T192 309Q239 309 258 291T278 243Q278 191 248 161T160 130ZM162 180Q191 180 201 195T212 233Q212 247 203 254T169 261Q146 261 132 251T118 214Q118 180 162 180Z"/><glyph unicode="⁷" horiz-adv-x="266" d="M183 338H61L73 390H269L260 349L124 134H52L183 338Z"/><glyph unicode="⁸" horiz-adv-x="321" d="M157 128Q97 128 72 148T46 196Q46 255 104 274Q90 281 86 293T81 319Q81 352 105 373T184 394Q248 394 271 377T294 334Q294 311 285 294T250 270Q267 262 272 249T278 219Q278 178 249 153T157 128ZM162 175Q185 175 198 184T212 217Q212 231 201 239T161 247Q139 247 127 237T114 205Q114 191 124 183T162 175ZM187 293Q227 293 227 324Q227 335 219 341T184 348Q144 348 144 316Q144 306 152 300T187 293Z"/><glyph unicode="⁹" horiz-adv-x="313" d="M80 185H119Q146 185 162 188T187 198T200 212T209 232Q189 214 147 214Q102 214 82 232T61 279Q61 333 92 363T179 394Q234 394 260 371T287 306Q287 289 282 266Q273 227 261 202T229 161T182 140T117 134H70L80 185ZM172 261Q195 261 208 270T221 307Q221 341 178 341Q149 341 139 326T128 288Q128 275 137 268T172 261Z"/><glyph unicode="₀" horiz-adv-x="327" d="M133 -3Q78 -3 54 21T29 88Q29 113 36 140Q50 206 81 233T167 261Q221 261 246 237T271 169Q271 144 264 117Q250 51 218 24T133 -3ZM137 50Q164 50 176 66T197 123Q199 135 201 145T203 166Q203 187 194 197T162 207Q136 207 124 191T102 134Q100 122 99 112T97 93Q97 71 106 61T137 50Z"/><glyph unicode="₁" horiz-adv-x="221" d="M88 203H44L56 257H167L112 1H45L88 203Z"/><glyph unicode="₂" horiz-adv-x="291" d="M14 46L112 117Q131 132 143 141T162 157T171 171T173 187Q173 207 132 207Q121 207 103 204T71 196L52 245Q92 261 139 261Q191 261 215 246T239 200Q239 180 236 167T223 141T200 118T164 91L113 52H211L199 1H5L14 46Z"/><glyph unicode="₃" horiz-adv-x="291" d="M118 -3Q77 -3 49 5T1 29L37 74Q54 62 73 55T117 47Q136 47 147 56T158 87Q158 100 149 105T116 111H74L85 164H136Q155 164 164 168T173 190Q173 201 164 205T134 210Q122 210 104 207T72 197L48 244Q69 254 98 257T148 261Q240 261 240 206Q240 174 228 159T197 138Q223 126 223 87Q223 61 215 44T193 17T159 2T118 -3Z"/><glyph unicode="₄" horiz-adv-x="311" d="M17 95L165 257H235L90 98H244L233 48H8L17 95ZM143 93L168 158H217L184 1H123L143 93Z"/><glyph unicode="₅" horiz-adv-x="294" d="M121 -3Q79 -3 50 7T7 29L42 74Q59 61 80 55T121 48Q141 48 154 55T168 92Q168 112 156 118T123 124Q101 124 82 116L38 131L72 257H249L237 205H118L108 169Q126 175 148 175Q166 175 181 172T209 161T228 139T235 100Q235 67 226 47T201 16T165 1T121 -3Z"/><glyph unicode="₆" horiz-adv-x="313" d="M133 -3Q78 -3 52 21T26 85Q26 107 30 126Q39 165 52 190T84 231T131 251T196 257H248L236 206H192Q166 206 151 203T126 193T113 177T104 158Q115 168 130 172T165 176Q212 176 231 158T251 110Q251 58 221 28T133 -3ZM135 47Q164 47 174 62T185 100Q185 114 176 121T142 128Q119 128 105 118T91 81Q91 47 135 47Z"/><glyph unicode="₇" horiz-adv-x="266" d="M156 205H34L46 257H242L233 216L97 1H25L156 205Z"/><glyph unicode="₈" horiz-adv-x="321" d="M130 -5Q70 -5 45 15T19 63Q19 122 77 141Q63 148 59 160T54 186Q54 219 78 240T157 261Q221 261 244 244T267 201Q267 178 258 161T223 137Q240 129 245 116T251 86Q251 45 222 20T130 -5ZM135 42Q158 42 171 51T185 84Q185 98 174 106T134 114Q112 114 100 104T87 72Q87 58 97 50T135 42ZM160 160Q200 160 200 191Q200 202 192 208T157 215Q117 215 117 183Q117 173 125 167T160 160Z"/><glyph unicode="₉" horiz-adv-x="313" d="M53 52H92Q119 52 135 55T160 65T173 79T182 99Q162 81 120 81Q75 81 55 99T34 146Q34 200 65 230T152 261Q207 261 233 238T260 173Q260 156 255 133Q246 94 234 69T202 28T155 7T90 1H43L53 52ZM145 128Q168 128 181 137T194 174Q194 208 151 208Q122 208 112 193T101 155Q101 142 110 135T145 128Z"/><glyph unicode="€" horiz-adv-x="388" d="M214 -6Q140 -6 109 32T77 133Q77 188 89 236T125 321T184 377T264 398Q307 398 337 389T387 367L339 302Q327 310 309 316T263 323Q232 323 212 306T179 261T162 200T157 136Q157 104 171 84T223 64Q236 64 253 67T288 79L322 19Q299 5 270 0T214 -6ZM21 177H273L260 119H9L21 177ZM41 266H291L280 208H29L41 266Z"/><glyph unicode="℗" horiz-adv-x="446" d="M224 -6Q175 -6 138 9T77 52T40 116T28 196Q28 239 40 276T76 340T138 382T224 398Q273 398 309 383T370 340T407 276T420 196Q420 153 408 116T371 52T310 10T224 -6ZM224 24Q268 24 299 37T350 74T379 128T388 196Q388 232 379 263T351 317T300 354T224 368Q180 368 149 355T98 318T69 263T60 196Q60 160 69 129T97 74T148 38T224 24ZM128 319H248Q278 319 297 313T327 297T343 271T347 236Q347 216 343 200T328 173T296 155T245 148H181V69H128V319ZM247 194Q273 194 282 202T292 233Q292 256 283 264T247 272H181V194H247Z"/><glyph unicode="™" horiz-adv-x="607" d="M316 390H386L415 228L513 390H584L531 148H471L501 289L417 148H377L353 289L323 148H264L316 390ZM144 336H66L78 390H296L284 336H206L167 148H104L144 336Z"/><glyph unicode="Ω" horiz-adv-x="461" d="M254 398Q346 398 395 357T445 249Q445 183 406 141T302 87L299 71H416L401 0H221L246 113Q302 124 327 154T353 231Q353 273 326 295T248 318Q216 318 191 308T148 282T121 242T112 194Q112 158 129 140T184 113L160 0H-19L-4 71H113L117 87Q72 96 50 122T27 197Q27 233 40 269T81 333T152 380T254 398Z"/><glyph unicode="∂" horiz-adv-x="339" d="M148 -6Q67 -6 35 27T2 112Q2 139 8 166Q22 224 54 252T149 280Q184 280 203 273T235 252Q234 291 222 323T185 394L271 420Q294 390 307 341T321 234Q321 205 319 179T309 126Q299 88 285 63T252 23T207 1T148 -6ZM148 65Q184 65 200 81T225 133Q230 151 230 165Q230 188 217 201T169 215Q133 215 117 199T92 147Q90 139 89 131T88 114Q88 92 100 79T148 65Z"/><glyph unicode="∆" horiz-adv-x="403" d="M200 393H283L349 0H-34L200 393ZM252 71L219 283L97 71H252Z"/><glyph unicode="∏" horiz-adv-x="412" d="M80 390H414L313 -87H227L311 314H149L64 -87H-21L80 390Z"/><glyph unicode="∑" horiz-adv-x="342" d="M-30 -23L124 157L48 320L64 390H356L340 313H149L226 150L87 -12H280L265 -87H-42L-30 -23Z"/><glyph unicode="−" horiz-adv-x="401" d="M66 224H348L332 148H49L66 224Z"/><glyph unicode="∕" horiz-adv-x="311" d="M271 390H344L42 0H-31L271 390Z"/><glyph unicode="∙" horiz-adv-x="174" d="M49 241H145L124 144H29L49 241Z"/><glyph unicode="√" horiz-adv-x="385" d="M36 235H121L144 97L316 390H399L164 -3H79L36 235Z"/><glyph unicode="∞" horiz-adv-x="493" d="M141 87Q88 87 62 112T36 181Q36 226 62 251T141 276Q178 276 206 256Q226 241 244 224Q262 241 282 256Q309 276 345 276Q389 276 419 255T449 181Q449 130 419 109T345 87Q307 87 279 107Q259 121 242 138Q224 121 204 107Q177 87 141 87ZM186 196Q166 216 144 216Q101 216 101 181Q101 147 144 147Q166 147 187 167Q194 173 201 180Q194 189 186 196ZM300 167Q320 147 343 147Q360 147 372 154T385 181Q385 202 373 209T343 216Q320 216 299 196Q292 189 284 182Q292 174 300 167Z"/><glyph unicode="∫" horiz-adv-x="234" d="M-47 -20H-19Q4 -20 15 -12T30 11L94 313Q100 342 109 362T133 395T172 413T230 419Q244 419 252 419T269 418L254 350H226Q203 350 193 342T178 317L114 16Q108 -13 99 -33T74 -66T35 -84T-23 -90Q-37 -90 -45 -90T-61 -89L-47 -20Z"/><glyph unicode="≈" horiz-adv-x="401" d="M40 115Q62 140 85 153T131 167Q147 167 161 163T189 152T213 142T236 137Q247 137 258 145T282 166L322 127Q300 101 277 87T232 73Q216 73 202 77T175 88T151 98T127 103Q116 103 104 96T81 76L40 115ZM69 245Q90 270 113 284T158 298Q175 298 190 294T217 283T241 273T263 268Q275 268 287 275T310 296L350 256Q329 232 306 218T260 204Q244 204 230 208T203 219T179 229T156 234Q144 234 132 226T109 206L69 245Z"/><glyph unicode="≠" horiz-adv-x="401" d="M97 84H39L54 157H147L186 215H67L82 286H232L270 342H338L300 286H358L344 215H250L211 157H330L316 84H164L127 30H59L97 84Z"/><glyph unicode="≤" horiz-adv-x="401" d="M63 163L73 215L342 332L325 256L153 187L296 118L281 46L63 163ZM43 74H286L271 3H28L43 74Z"/><glyph unicode="≥" horiz-adv-x="401" d="M73 118L245 187L103 256L118 332L337 215L326 163L58 46L73 118ZM64 74H307L291 3H48L64 74Z"/><glyph unicode="◊" horiz-adv-x="358" d="M20 196L139 390H220L339 196L219 0H139L20 196ZM255 194L179 327L104 196L180 64L255 194Z"/><glyph unicode="" horiz-adv-x="459" d="M77 63Q54 90 42 124T29 196Q29 234 41 268T77 328L78 327Q78 326 80 324Q35 270 35 196Q35 121 81 67Q79 66 79 66T78 64L77 63ZM131 111Q101 147 101 196Q101 243 129 280Q131 279 132 278T134 276Q106 242 106 196Q106 149 134 115Q133 113 131 111ZM149 128Q138 142 132 159T125 196Q125 215 131 232T149 263Q151 262 153 260Q131 232 131 196Q131 159 153 132Q152 131 152 130T149 128ZM177 152Q170 162 166 172T161 196Q161 208 165 219T177 238L180 235Q168 218 168 196Q168 173 181 157Q179 156 179 155T177 152ZM194 169Q190 174 188 181T185 196Q185 204 187 210T194 222L198 218Q191 210 191 196Q191 182 198 172Q196 171 194 169ZM210 182Q206 187 206 196Q206 204 210 209L213 206Q210 201 210 196Q210 189 213 185L210 182ZM229 32Q198 32 171 42T123 72L127 76Q169 37 229 37Q290 37 331 76Q332 74 334 72Q314 53 287 43T229 32ZM229 171Q220 171 215 175L217 177Q218 178 218 179Q224 175 229 175Q237 175 241 179Q242 179 242 178Q242 176 243 175Q239 171 229 171ZM264 168Q263 171 260 172Q267 182 267 196Q267 210 260 218L264 222Q273 211 273 196Q273 180 264 168ZM164 142Q146 164 146 196Q146 228 164 249L169 246Q151 225 151 196Q151 167 169 145Q168 144 164 142ZM229 -9Q191 -9 157 4T97 42L101 46Q127 23 159 10T229 -4Q267 -4 299 9T358 46L362 42Q335 18 301 5T229 -9ZM229 64Q204 64 183 72T145 96L148 100Q182 69 229 69Q277 69 310 100Q311 99 312 99T314 96Q297 81 276 73T229 64ZM229 90Q210 90 193 97T161 115L166 119Q192 95 229 95Q267 95 293 119Q294 117 295 117T297 115Q269 90 229 90ZM229 110Q214 110 200 115T175 130L179 135Q189 126 202 121T229 115Q243 115 256 120T280 135Q281 134 283 130Q272 121 259 116T229 110ZM229 140Q209 140 194 152L198 157Q211 145 229 145Q246 145 260 157Q261 156 263 152Q249 140 229 140ZM198 235Q196 236 196 237T194 239Q209 251 229 251Q250 251 264 239L260 235Q246 246 229 246Q212 246 198 235ZM311 291Q277 322 229 322Q183 322 149 291L145 296Q162 310 183 319T229 328Q254 328 275 319T314 296Q313 294 313 294T311 291ZM246 185Q249 189 249 196Q249 201 246 206L249 209Q253 201 253 196Q253 190 249 182L246 185ZM253 179Q258 187 258 196Q258 204 253 212L257 215Q263 207 263 196Q263 184 257 175L253 179ZM273 162Q271 163 269 165Q279 178 279 196Q279 210 269 227L272 230Q284 215 284 196Q284 176 273 162ZM294 142Q292 144 290 145Q298 156 303 169T308 196Q308 223 290 246L294 249Q304 238 308 225T313 196Q313 164 294 142ZM306 132Q328 159 328 196Q328 232 306 260L310 263Q321 249 327 232T333 196Q333 176 327 159T310 128L306 132ZM324 115Q353 149 353 196Q353 242 324 276L328 280Q358 245 358 196Q358 172 351 150T328 111L324 115ZM349 94Q385 138 385 196Q385 255 348 298L352 301Q370 280 380 253T390 196Q390 166 380 139T352 91L349 94ZM381 64L378 67Q424 121 424 196Q424 270 378 324L382 328Q405 302 417 268T430 196Q430 158 418 124T382 63L381 64ZM107 90Q89 111 79 138T69 196Q69 226 79 253T106 301Q107 300 108 300T110 298Q74 254 74 196Q74 136 110 94L107 90ZM186 162Q175 176 175 196Q175 214 186 230Q188 229 190 227Q180 210 180 196Q180 179 190 166L186 162ZM202 175Q195 183 195 196Q195 208 202 215Q203 214 204 214T206 212Q201 204 201 196Q201 187 206 179L202 175ZM216 215Q221 220 229 220Q238 220 243 215Q242 214 242 213Q242 212 241 212Q235 216 229 216Q222 216 218 212L216 215ZM209 224Q219 231 229 231Q240 231 249 224Q248 222 248 222T246 219Q240 226 229 226Q219 226 213 219L209 224ZM202 231Q215 241 229 241Q244 241 257 231L253 227Q244 236 229 236Q215 236 206 227L202 231ZM161 276Q190 302 229 302Q269 302 297 276L293 272Q281 283 265 290T229 297Q211 297 195 290T166 272L161 276ZM229 127Q205 127 185 142L189 146Q198 140 208 136T229 132Q241 132 251 136T269 146L273 143Q254 127 229 127ZM229 150Q215 150 202 161L205 165Q210 161 216 159T229 156Q242 156 253 165L257 161Q244 150 229 150ZM229 161Q219 161 209 168L212 172Q219 166 229 166Q240 166 246 172L250 168Q239 161 229 161ZM186 248Q203 265 229 265Q254 265 273 249L269 245Q261 251 251 255T229 260Q208 260 190 245L186 248ZM175 261Q198 281 229 281Q245 281 258 276T283 261L280 256Q258 276 229 276Q215 276 202 271T179 256L175 261ZM331 315Q290 354 229 354Q169 354 127 315L123 319Q145 338 172 348T229 359Q260 359 287 349T335 319L331 315ZM97 349Q124 373 157 387T229 401Q267 401 301 387T362 349L358 345Q332 368 300 381T229 394Q192 394 160 381T101 345L97 349ZM279 157Q291 174 291 196Q291 219 278 235L282 239Q297 219 297 196Q297 183 293 173T282 152L279 157Z"/><glyph unicode="ﬀ" horiz-adv-x="507" d="M351 322Q361 373 389 396T480 419Q498 419 511 419T532 418L517 350H481Q455 350 445 341T432 314L347 -87H263L351 322ZM279 299H507L492 228H264L279 299ZM117 322Q127 373 155 396T246 419Q264 419 277 419T298 418L283 350H247Q221 350 211 341T198 314L113 -87H29L117 322ZM45 299H373L358 228H30L45 299Z"/><glyph unicode="ﬁ" horiz-adv-x="457" d="M117 322Q127 373 155 396T246 419Q264 419 277 419T298 418L283 350H247Q221 350 211 341T198 314L113 -87H29L117 322ZM45 299H273L258 228H30L45 299ZM346 299H428L365 0H282L346 299ZM368 409H452L436 332H352L368 409Z"/><glyph unicode="ﬂ" horiz-adv-x="483" d="M117 322Q127 373 155 396T246 419Q264 419 277 419T298 418L283 350H247Q221 350 211 341T198 314L113 -87H29L117 322ZM45 299H273L258 228H30L45 299ZM365 -1Q320 -1 306 22T303 100L369 409H452L387 100Q383 82 386 76T409 69H424L409 1Q404 0 391 0T365 -1Z"/><glyph unicode="ﬃ" horiz-adv-x="691" d="M117 322Q127 373 155 396T246 419Q264 419 277 419T298 418L283 350H247Q221 350 211 341T198 314L113 -87H29L117 322ZM45 299H373L358 228H30L45 299ZM351 322Q361 373 389 396T480 419Q498 419 511 419T532 418L517 350H481Q455 350 445 341T432 314L347 -87H263L351 322ZM279 299H507L492 228H264L279 299ZM580 299H662L599 0H516L580 299ZM602 409H686L670 332H586L602 409Z"/><glyph unicode="ﬄ" horiz-adv-x="717" d="M351 322Q361 373 389 396T480 419Q498 419 511 419T532 418L517 350H481Q455 350 445 341T432 314L347 -87H263L351 322ZM279 299H507L492 228H264L279 299ZM599 -1Q554 -1 540 22T537 100L603 409H686L621 100Q617 82 620 76T643 69H658L643 1Q638 0 625 0T599 -1ZM117 322Q127 373 155 396T246 419Q264 419 277 419T298 418L283 350H247Q221 350 211 341T198 314L113 -87H29L117 322ZM45 299H373L358 228H30L45 299Z"/></font>
</defs>
</svg>
