<?xml version="1.0" encoding="UTF-8"?><svg xmlns="http://www.w3.org/2000/svg" width="100%" height="100%"><defs><font id="web" horiz-adv-x="1250"><!--



NOTICE: This font software is the valuable property 
of Webtype LLC, The Font Bureau, Ascender Corp and/or 
its suppliers and its use by you is covered under the 
terms of the Web Font license agreement between you 
and Webtype LLC. You may ONLY use this font software 
with the licensed web site. Except as specifically 
permitted by the license, you may not copy this font 
software. If you have any questions, please contact 
Webtype.com. 

For more information, please visit http://www.webtype.com/store/license/?id=23

Licensed to: http://www.ford.com/

Serial number: SH-178
--><font-face font-family="" units-per-em="2048" panose-1="2 0 5 3 0 0 0 2 0 4" ascent="1966" descent="-492" alphabetic="0"/><missing-glyph horiz-adv-x="1024" d="M0 1434H1024V0H0V1434ZM102 102H922V1331H102V102Z"/><glyph unicode=" " horiz-adv-x="471"/><glyph unicode="!" horiz-adv-x="758" d="M147 266H397L342 0H94L147 266ZM432 1518H651L397 434H219L432 1518Z"/><glyph unicode="&quot;" horiz-adv-x="1034" d="M356 1518H563L418 897H242L356 1518ZM797 1518H1006L858 897H682L797 1518Z"/><glyph unicode="#" horiz-adv-x="1509" d="M342 428H63L100 610H379L440 889H160L199 1073H477L571 1518H764L668 1073H963L1057 1518H1249L1155 1073H1448L1409 889H1118L1059 610H1348L1311 428H1022L930 0H737L829 428H537L442 0H250L342 428ZM877 600L942 901H621L555 600H877Z"/><glyph unicode="$" horiz-adv-x="1331" d="M239 50Q91 101 -10 193L106 334Q152 295 203 264T315 212T445 179Q454 177 464 176L581 720Q535 736 491 752Q420 780 366 821T280 922T248 1071Q248 1189 288 1274T397 1413T561 1494Q646 1517 743 1520L772 1655H954L925 1509Q928 1509 931 1509Q1007 1498 1067 1480T1174 1437T1253 1384L1137 1231Q1078 1277 978 1309Q932 1323 880 1331L777 850Q838 830 895 807Q967 779 1021 738T1107 636T1139 487Q1139 365 1099 274T986 122T814 30Q718 1 604 0L565 -193H379L421 10Q321 22 239 50ZM742 186Q806 204 851 241T920 333T944 463Q944 514 925 550T867 612T771 660Q756 666 739 671L631 168Q691 171 742 186ZM522 1277Q446 1213 446 1092Q446 1040 467 1006T528 946Q566 921 620 902L714 1340Q589 1333 522 1277Z"/><glyph unicode="%" horiz-adv-x="2265" d="M498 569Q401 569 332 595T217 667T151 779T129 924Q129 1059 164 1172T264 1368T416 1496T612 1542Q709 1542 779 1515T894 1440T960 1326T981 1180Q981 1040 945 927T843 735T690 612T498 569ZM512 729Q580 729 634 764T725 859T781 999T801 1171Q801 1216 791 1253T758 1318T697 1360T604 1376Q532 1376 477 1340T386 1243T330 1102T311 932Q311 888 321 851T355 787T417 745T512 729ZM1657 -23Q1558 -23 1488 3T1373 76T1307 188T1286 332Q1286 466 1321 579T1420 775T1573 904T1769 950Q1867 950 1937 923T2051 848T2117 734T2138 588Q2138 449 2101 336T2000 144T1847 21T1657 -23ZM1667 137Q1735 137 1789 172T1880 267T1936 408T1956 580Q1956 625 1946 663T1913 728T1852 770T1759 786Q1688 786 1634 750T1542 653T1487 511T1468 340Q1468 296 1478 259T1511 195T1573 153T1667 137ZM1622 1518H1810L666 0H477L1622 1518Z"/><glyph unicode="&amp;" horiz-adv-x="1647" d="M541 -20Q397 -20 295 3T127 72T32 184T2 334Q2 424 22 496T76 625T158 725T259 803T373 862Q404 876 435 888Q416 984 416 1075Q416 1204 447 1293T531 1437T653 1517T801 1542Q885 1542 946 1522T1047 1466T1106 1377T1126 1260Q1126 1182 1107 1120T1053 1008T970 921T864 851T741 794Q707 781 671 768Q674 760 678 751Q711 667 756 588T854 446Q915 373 969 324Q977 332 985 341Q1073 436 1147 573T1288 887L1450 831Q1375 631 1287 473Q1207 330 1111 227Q1124 221 1135 216Q1197 191 1252 186T1360 180H1405L1368 0H1339Q1246 0 1165 12T1007 62Q979 76 951 93Q900 61 846 38Q711 -20 541 -20ZM682 348Q623 422 574 510T490 693Q484 707 479 722Q441 703 404 683Q346 650 301 605T230 499T203 354Q203 311 218 274T274 208T383 164T559 147Q687 147 792 196Q801 201 810 205Q749 264 682 348ZM725 967Q791 997 839 1035T914 1124T942 1239Q942 1301 906 1333T795 1366Q752 1366 718 1351T659 1302T621 1215T608 1087Q608 1011 625 927Q678 946 725 967Z"/><glyph unicode="'" horiz-adv-x="596" d="M356 1520H563L418 897H242L356 1520Z"/><glyph unicode="(" horiz-adv-x="1001" d="M420 -381Q374 -330 329 -257T247 -91T189 114T166 354Q166 495 195 630T274 890T390 1126T532 1332T688 1499T844 1622L967 1505Q895 1453 823 1383T684 1226T560 1040T460 828T393 596T369 348Q369 240 388 143T437 -36T505 -182T580 -289L420 -381Z"/><glyph unicode=")" horiz-adv-x="1001" d="M-23 -266Q49 -214 121 -144T260 13T383 199T483 411T549 643T573 891Q573 999 555 1096T506 1275T439 1421T365 1528L524 1622Q569 1571 614 1498T696 1331T755 1125T778 885Q778 744 749 609T670 349T554 113T412 -92T256 -259T98 -381L-23 -266Z"/><glyph unicode="*" horiz-adv-x="1196" d="M473 559L569 924L213 793L162 950L530 1049L236 1294L344 1417L618 1149L678 1526L836 1491L737 1122L1098 1257L1147 1100L776 997L1075 756L967 635L690 899L629 524L473 559Z"/><glyph unicode="+" horiz-adv-x="1440" d="M594 627H182L223 817H633L721 1225H918L831 817H1241L1200 627H793L707 219H508L594 627Z"/><glyph unicode="," horiz-adv-x="518" d="M-66 -162Q-22 -143 6 -127T52 -92T79 -52T96 0H-25L29 270H279L233 43Q218 -29 199 -77T149 -159T75 -217T-33 -266L-66 -162Z"/><glyph unicode="-" horiz-adv-x="911" d="M94 735H805L766 549H55L94 735Z"/><glyph unicode="." horiz-adv-x="518" d="M29 270H279L223 0H-25L29 270Z"/><glyph unicode="/" horiz-adv-x="1055" d="M1008 1518H1223L49 0H-164L1008 1518Z"/><glyph unicode="0" horiz-adv-x="1477" d="M641 -23Q496 -23 396 11T232 109T141 264T113 471Q113 625 154 821Q191 998 248 1133T388 1359T584 1496T846 1542Q987 1542 1085 1506T1245 1403T1334 1242T1362 1034Q1362 878 1321 694Q1283 517 1226 383T1087 159T895 23T641 -23ZM653 162Q756 162 830 199T959 309T1051 485T1118 723Q1135 801 1146 876T1157 1020Q1157 1095 1141 1156T1086 1260T986 1328T831 1352Q724 1352 648 1315T517 1206T424 1032T358 795Q340 708 330 630T319 483Q319 408 335 349T391 248T494 184T653 162Z"/><glyph unicode="1" horiz-adv-x="786" d="M477 1327H195L236 1518H713L389 0H193L477 1327Z"/><glyph unicode="2" horiz-adv-x="1196" d="M-51 166L547 653Q624 715 683 763T788 852T864 928T914 1000T941 1078T950 1171Q950 1213 935 1247T886 1306T794 1344T653 1358Q611 1358 565 1354T471 1340T379 1318T295 1286L229 1454Q326 1497 438 1519T676 1542Q803 1542 893 1520T1042 1455T1126 1351T1153 1212Q1153 1138 1142 1079T1108 968T1048 870T962 775T846 672T700 553L231 176H948L913 0H-86L-51 166Z"/><glyph unicode="3" horiz-adv-x="1235" d="M512 -25Q407 -25 323 -13T166 21T32 75T-88 147L37 299Q89 264 141 238T251 192T372 164T514 154Q594 154 658 174T768 237T837 349T862 512Q862 566 847 607T794 676T696 718T543 733H342L379 911H643Q722 911 781 924T881 969T941 1054T961 1186Q961 1229 945 1261T894 1316T801 1350T662 1362Q629 1362 585 1358T492 1345T391 1320T291 1280L207 1440Q268 1472 335 1492T467 1523T590 1538T694 1542Q937 1542 1052 1463T1167 1231Q1167 1134 1148 1063T1094 941T1013 861T911 819Q989 785 1024 707T1059 516Q1059 372 1021 270T911 102T738 6T512 -25Z"/><glyph unicode="4" horiz-adv-x="1343" d="M49 522L940 1518H1167L283 532H784L928 1014H1071L969 532H1227L1192 360H932L856 0H670L745 360H16L49 522Z"/><glyph unicode="5" horiz-adv-x="1282" d="M547 -23Q445 -23 360 -9T204 30T79 84T-18 147L100 299Q145 267 194 240T301 194T423 165T565 154Q638 154 707 172T829 236T915 360T948 559Q948 631 925 682T859 764T755 810T616 825Q544 825 472 807T330 756L172 807L362 1518H1247L1208 1337H510L401 946Q467 972 539 984T686 997Q790 997 876 978T1024 912T1120 785T1155 584Q1155 402 1106 284T974 98T780 4T547 -23Z"/><glyph unicode="6" horiz-adv-x="1393" d="M641 -23Q358 -23 224 99T90 453Q90 558 119 692Q152 850 194 972T292 1186T422 1341T591 1444T809 1500T1083 1518H1233L1196 1337H1075Q951 1337 857 1323T691 1283T568 1220T480 1135T417 1030T371 909Q426 962 531 994T780 1026Q907 1026 995 997T1139 916T1218 792T1243 635Q1243 485 1206 364T1093 156T904 24T641 -23ZM645 152Q754 152 829 185T952 278T1021 418T1042 596Q1042 654 1026 701T970 783T866 835T705 854Q624 854 549 835T417 769T326 642T291 438Q291 293 380 223T645 152Z"/><glyph unicode="7" horiz-adv-x="1081" d="M946 1337H166L203 1518H1208L1174 1360L297 0H76L946 1337Z"/><glyph unicode="8" horiz-adv-x="1407" d="M606 -29Q453 -29 347 0T174 81T77 201T47 352Q47 457 71 538T141 679T252 778T399 838Q358 856 331 884T287 947T263 1023T256 1106Q256 1316 389 1429T791 1542Q944 1542 1046 1517T1210 1446T1297 1340T1323 1206Q1323 1044 1256 944T1055 815Q1103 796 1135 766T1187 695T1215 607T1223 504Q1223 372 1181 272T1058 106T864 5T606 -29ZM627 143Q709 143 780 161T905 222T989 332T1020 498Q1020 554 999 598T934 674T821 722T655 739Q568 739 495 720T368 658T284 547T254 379Q254 323 274 280T338 206T454 159T627 143ZM778 901Q860 901 924 915T1032 962T1099 1048T1122 1178Q1122 1221 1105 1257T1050 1318T948 1358T793 1372Q710 1372 646 1358T538 1310T472 1225T449 1096Q449 1052 466 1016T521 955T623 915T778 901Z"/><glyph unicode="9" horiz-adv-x="1393" d="M195 176H315Q501 176 623 206T823 293T947 430T1026 608Q970 554 864 523T612 492Q484 492 396 521T252 603T172 726T147 883Q147 1033 185 1154T299 1362T488 1495T752 1542Q893 1542 996 1511T1166 1419T1267 1269T1300 1065Q1300 1011 1294 952T1274 827Q1240 669 1198 547T1100 332T970 177T801 74T584 18T309 0H160L195 176ZM686 655Q767 655 842 674T975 740T1067 867T1102 1071Q1102 1217 1012 1288T745 1360Q636 1360 561 1327T439 1234T371 1093T350 915Q350 858 366 810T422 728T525 674T686 655Z"/><glyph unicode=":" horiz-adv-x="559" d="M49 262H299L244 0H-4L49 262ZM236 1139H485L432 877H184L236 1139Z"/><glyph unicode=";" horiz-adv-x="559" d="M-47 -162Q-3 -143 25 -127T71 -92T99 -52T115 0H-4L49 262H299L254 43Q237 -33 218 -81T169 -163T96 -219T-12 -266L-47 -162ZM236 1139H485L432 877H184L236 1139Z"/><glyph unicode="&lt;" horiz-adv-x="1440" d="M195 635L223 782L1245 1243L1208 1047L418 700L1057 360L1018 170L195 635Z"/><glyph unicode="=" horiz-adv-x="1440" d="M184 586H1182L1143 399H147L184 586ZM283 1042H1276L1239 858H244L283 1042Z"/><glyph unicode="&gt;" horiz-adv-x="1440" d="M213 367L1001 715L362 1055L401 1245L1225 780L1198 633L174 172L213 367Z"/><glyph unicode="?" horiz-adv-x="1356" d="M459 412Q471 488 484 547T515 652T557 734T615 799T695 852T805 899Q887 929 941 953T1028 1006T1073 1075T1087 1174Q1087 1212 1073 1245T1021 1302T920 1340T756 1354Q675 1354 574 1337T367 1282L299 1456Q359 1481 426 1497T559 1524T684 1538T788 1542Q930 1542 1027 1520T1184 1455T1270 1353T1296 1219Q1296 1124 1276 1055T1212 934T1098 842T926 764Q851 735 804 709T729 646T684 553T653 412H459ZM397 242H649L598 0H348L397 242Z"/><glyph unicode="@" horiz-adv-x="2210" d="M1081 -338Q842 -338 664 -282T368 -110T190 182T131 598Q131 841 193 1019T373 1313T665 1487T1061 1544Q1286 1544 1460 1487T1754 1314T1935 1019T1997 598Q1997 447 1977 345T1911 180T1794 90T1620 63Q1470 63 1392 99T1296 207Q1262 170 1223 145T1137 105T1032 83T903 76Q799 76 727 104T609 183T543 302T522 453Q522 542 534 628T573 790T640 930T737 1040T866 1113T1030 1139Q1118 1139 1181 1129T1288 1101T1359 1059T1405 1004L1473 1128L1597 1118L1442 393Q1430 334 1435 293T1464 226T1533 188T1642 176Q1713 176 1758 198T1830 269T1866 400T1876 598Q1876 810 1825 965T1671 1223T1417 1375T1061 1425Q864 1425 713 1375T460 1223T305 966T252 598Q252 183 458 -18T1079 -219Q1161 -219 1239 -211T1388 -186T1522 -149T1638 -102L1692 -207Q1571 -267 1418 -302T1081 -338ZM950 238Q1019 238 1075 253T1177 307T1255 412T1309 580Q1320 623 1324 663T1329 741Q1329 793 1315 835T1268 907T1181 953T1047 969Q958 969 894 930T790 824T730 668T711 479Q711 425 722 381T762 305T836 256T950 238Z"/><glyph unicode="A" horiz-adv-x="1473" d="M795 1528H999L1260 0H1053L999 319H295L106 0H-117L795 1528ZM971 510L846 1262L401 510H971Z"/><glyph unicode="B" horiz-adv-x="1434" d="M334 1518H858Q1016 1518 1121 1497T1290 1435T1379 1336T1405 1206Q1405 1112 1386 1039T1329 912T1240 827T1124 784Q1166 770 1197 744T1249 680T1280 596T1290 498Q1290 354 1251 258T1137 105T955 24T711 0H10L334 1518ZM750 186Q827 186 889 202T994 255T1060 350T1083 494Q1083 540 1066 575T1012 635T917 671T774 684H362L252 186H750ZM889 877Q972 877 1028 895T1120 950T1170 1037T1186 1155Q1186 1194 1171 1226T1118 1281T1016 1316T852 1329H500L401 877H889Z"/><glyph unicode="C" horiz-adv-x="1462" d="M721 -23Q550 -23 426 18T220 137T100 323T61 569Q61 691 88 834Q131 1036 211 1171T399 1389T638 1507T915 1542Q1030 1542 1119 1524T1276 1476T1395 1406T1483 1323L1307 1182Q1245 1254 1147 1298T907 1343Q791 1343 693 1313T516 1218T382 1051T295 805Q283 749 278 697T272 596Q272 498 300 420T385 286T531 202T739 172Q804 172 859 180T961 204T1051 243T1133 299L1260 145Q1210 103 1154 72T1032 19T889 -12T721 -23Z"/><glyph unicode="D" horiz-adv-x="1532" d="M334 1518H694Q904 1518 1051 1487T1293 1391T1430 1226T1473 985Q1473 917 1465 841T1436 678Q1405 533 1362 426T1261 244T1134 121T981 47T802 10T596 0H10L334 1518ZM600 190Q738 190 840 211T1018 290T1144 448T1229 707Q1244 776 1253 838T1262 956Q1262 1050 1233 1118T1136 1232T960 1299T692 1321H502L256 190H600Z"/><glyph unicode="E" horiz-adv-x="1300" d="M334 1518H1341L1300 1319H500L401 883H1182L1143 686H365L256 190H1065L1026 0H10L334 1518Z"/><glyph unicode="F" horiz-adv-x="1217" d="M334 1518H1305L1262 1319H500L399 862H1143L1104 666H360L217 0H10L334 1518Z"/><glyph unicode="G" horiz-adv-x="1573" d="M737 -23Q562 -23 435 17T224 134T101 319T61 567Q61 640 67 704T88 834Q127 1024 202 1158T382 1378T619 1502T905 1542Q1030 1542 1127 1522T1296 1469T1418 1396T1499 1317L1323 1174Q1300 1201 1267 1230T1184 1285T1063 1326T893 1343Q779 1343 682 1312T508 1216T376 1049T291 805Q280 754 275 700T270 594Q270 492 298 412T384 276T534 191T750 162Q876 162 959 187T1097 268T1183 409T1241 618L1247 657H791L829 846H1497L1456 639Q1431 515 1401 418T1330 247T1236 122T1111 39T947 -8T737 -23Z"/><glyph unicode="H" horiz-adv-x="1579" d="M334 1518H541L406 891H1229L1364 1518H1571L1247 0H1040L1186 686H365L217 0H10L334 1518Z"/><glyph unicode="I" horiz-adv-x="582" d="M350 1518H559L236 0H27L350 1518Z"/><glyph unicode="J" horiz-adv-x="807" d="M-63 190H72Q138 190 187 203T273 245T332 321T371 436L602 1518H809L571 406Q545 281 499 202T391 77T254 15T94 -2H-40Q-57 -2 -68 -2T-102 0L-63 190Z"/><glyph unicode="K" horiz-adv-x="1432" d="M334 1518H539L376 755L1192 1518H1450L819 927L1200 0H983L657 783L315 469L215 0H10L334 1518Z"/><glyph unicode="L" horiz-adv-x="1178" d="M334 1518H541L256 190H1008L969 0H10L334 1518Z"/><glyph unicode="M" horiz-adv-x="1866" d="M334 1518H602L831 319L1575 1518H1858L1534 0H1331L1589 1200L840 0H686L455 1192L197 0H10L334 1518Z"/><glyph unicode="N" horiz-adv-x="1577" d="M334 1518H559L1118 348L1372 1518H1569L1245 0H1057L469 1217L207 0H10L334 1518Z"/><glyph unicode="O" horiz-adv-x="1688" d="M764 -25Q593 -25 463 15T243 133T109 325T63 588Q61 647 68 709T90 840Q119 977 166 1082T274 1266T410 1397T567 1482T741 1528T926 1542Q1096 1542 1227 1502T1446 1385T1580 1194T1626 934Q1626 874 1620 812T1597 684Q1567 546 1521 440T1413 256T1278 123T1122 37T949 -10T764 -25ZM766 168Q887 168 988 198T1168 293T1302 459T1389 702Q1401 755 1407 806T1413 905Q1413 1005 1385 1086T1295 1224T1140 1312T915 1343Q794 1343 693 1312T514 1216T381 1051T297 811Q285 758 280 707T274 606Q274 507 302 426T391 288T544 200T766 168Z"/><glyph unicode="P" horiz-adv-x="1434" d="M334 1518H899Q1047 1518 1149 1491T1314 1416T1404 1300T1432 1151Q1432 1017 1398 907T1294 717T1115 593T860 549H330L213 0H10L334 1518ZM854 739Q1027 739 1122 830T1217 1114Q1217 1167 1198 1206T1137 1272T1031 1312T874 1325H498L369 739H854Z"/><glyph unicode="Q" horiz-adv-x="1688" d="M764 -14H739Q727 -57 724 -88Q720 -132 737 -157T796 -193T909 -203H1044L1008 -381Q997 -382 979 -382T940 -383H877Q748 -383 667 -361T548 -289T509 -160Q510 -90 535 6Q497 14 462 24Q332 63 243 139T109 327T63 588Q61 647 68 709T90 840Q133 1046 216 1181T409 1397T651 1509T926 1542Q1096 1542 1227 1502T1446 1385T1580 1194T1626 934Q1626 874 1620 812T1597 684Q1567 546 1521 441T1413 259T1278 129T1122 45T949 0T764 -14ZM766 168Q887 168 988 198T1168 293T1302 459T1389 702Q1401 755 1407 806T1413 905Q1413 1005 1385 1086T1295 1224T1140 1312T915 1343Q794 1343 693 1312T514 1216T381 1051T297 811Q285 758 280 707T274 606Q274 507 302 426T391 288T544 200T766 168Z"/><glyph unicode="R" horiz-adv-x="1458" d="M334 1518H872Q1026 1518 1131 1490T1302 1413T1395 1298T1423 1153Q1423 1023 1390 918T1287 739T1113 624Q1037 595 942 587L1155 0H944L730 584H338L213 0H10L334 1518ZM860 774Q941 774 1005 793T1115 852T1184 957T1208 1112Q1208 1221 1123 1273T856 1325H498L377 774H860Z"/><glyph unicode="S" horiz-adv-x="1419" d="M631 -20Q512 -20 414 -5T231 37T76 102T-57 186L74 340Q187 254 324 208T641 162Q719 162 790 173T915 214T1000 294T1032 422Q1032 485 1007 524T935 591T819 639T662 688Q567 716 484 745T340 818T244 926T209 1090Q209 1177 230 1244T289 1362T379 1446T493 1502T624 1532T766 1542Q885 1542 977 1527T1140 1488T1264 1434T1356 1374L1221 1214Q1187 1240 1143 1265T1041 1309T914 1340T758 1352Q688 1352 627 1340T520 1300T448 1224T422 1106Q422 1052 446 1016T513 954T617 908T752 868Q861 838 951 808T1106 733T1207 625T1243 463Q1243 327 1195 235T1065 86T870 5T631 -20Z"/><glyph unicode="T" horiz-adv-x="1378" d="M709 1319H170L211 1518H1493L1452 1319H915L633 0H426L709 1319Z"/><glyph unicode="U" horiz-adv-x="1575" d="M694 -27Q517 -27 403 8T222 103T129 242T102 408Q102 456 109 506T127 604L324 1518H530L336 610Q327 565 320 524T313 444Q313 381 332 330T398 243T522 188T715 168Q822 168 898 193T1028 267T1114 389T1167 557L1374 1518H1575L1358 516Q1342 442 1319 373T1260 244T1175 133T1057 48T899 -7T694 -27Z"/><glyph unicode="V" horiz-adv-x="1473" d="M215 1518H424L627 266L1360 1518H1587L676 -10H473L215 1518Z"/><glyph unicode="W" horiz-adv-x="2177" d="M227 1518H438L539 360L1153 1518H1350L1470 360L2062 1518H2275L1491 -10H1309L1182 1192L545 -10H362L227 1518Z"/><glyph unicode="X" horiz-adv-x="1450" d="M291 1518H506L768 950L1257 1518H1493L846 783L1208 0H993L697 639L143 0H-92L620 806L291 1518Z"/><glyph unicode="Y" horiz-adv-x="1425" d="M569 584L188 1518H403L711 782L1325 1518H1554L774 578L651 0H444L569 584Z"/><glyph unicode="Z" horiz-adv-x="1335" d="M-41 164L1075 1319H242L283 1518H1384L1350 1337L238 190H1122L1083 0H-76L-41 164Z"/><glyph unicode="[" horiz-adv-x="975" d="M424 1589H954L920 1407H588L250 -162H588L551 -338H14L424 1589Z"/><glyph unicode="\" horiz-adv-x="1055" d="M170 1518H360L887 0H696L170 1518Z"/><glyph unicode="]" horiz-adv-x="975" d="M-2 -162H332L670 1407H336L373 1589H907L498 -338H-37L-2 -162Z"/><glyph unicode="^" horiz-adv-x="1208" d="M674 1795H889L1118 1459H930L758 1666L496 1459H301L674 1795Z"/><glyph unicode="_" horiz-adv-x="928" d="M-258 -109H821L788 -270H-291L-258 -109Z"/><glyph unicode="`" horiz-adv-x="1208" d="M414 1591H645L879 1255H702L414 1591Z"/><glyph unicode="a" horiz-adv-x="1251" d="M375 -20Q260 -20 184 2T63 64T0 160T-18 285Q-18 422 29 510T169 650T397 721T709 741H857Q868 798 868 846Q868 880 856 905T815 946T735 971T606 979Q569 979 527 973T444 958T365 935T299 907L219 1069Q253 1089 299 1106T401 1137T517 1157T641 1165Q751 1165 827 1151T953 1110T1028 1042T1060 947T1060 825T1034 676L954 303Q946 263 943 238T948 199T977 180T1040 176L1006 2Q996 -1 973 -1T920 -2Q884 -2 857 3T812 22T783 58T770 115Q711 47 614 14T375 -20ZM453 562Q359 553 299 525T210 444T182 305Q182 270 193 242T233 193T308 163T426 152Q511 152 573 170T680 231T755 339T807 502L821 571H682Q548 571 453 562Z"/><glyph unicode="b" horiz-adv-x="1303" d="M627 -18Q530 -18 458 -8T334 23T252 73T207 139L135 -8L-10 6L328 1589H524L406 1051Q437 1082 474 1104T557 1139T656 1159T776 1165Q895 1165 976 1135T1107 1049T1178 919T1200 754Q1200 700 1193 640T1169 516Q1142 390 1101 291T996 123T842 18T627 -18ZM600 162Q682 162 742 185T845 254T917 371T969 535Q978 584 984 628T991 715Q991 774 977 822T930 904T843 956T709 975Q628 975 565 959T455 900T373 786T313 600Q289 498 289 418Q289 353 306 305T361 225T458 178T600 162Z"/><glyph unicode="c" horiz-adv-x="1124" d="M506 -20Q371 -20 280 12T134 100T55 234T31 403Q31 459 36 514T53 627Q80 757 127 857T246 1025T419 1129T655 1165Q749 1165 818 1150T939 1109T1025 1050T1087 981L920 848Q904 869 883 891T831 931T753 961T641 973Q560 973 497 952T387 884T306 766T252 594Q244 552 239 508T233 422Q233 363 248 314T296 231T385 177T520 158Q559 158 593 162T661 176T729 204T799 248L911 115Q862 76 813 50T715 9T613 -13T506 -20Z"/><glyph unicode="d" horiz-adv-x="1303" d="M451 -18Q331 -18 250 12T119 97T48 227T27 391Q27 447 34 507T57 631Q85 757 125 856T229 1024T383 1129T600 1165Q694 1165 764 1155T883 1125T961 1076T1006 1008L1133 1589H1333L995 8L840 -6L854 102Q822 68 782 45T693 8T583 -12T451 -18ZM518 162Q599 162 662 178T772 237T854 351T913 537Q936 637 936 719Q936 785 919 833T865 914T768 961T625 977Q543 977 483 954T380 883T308 766T258 602Q247 553 242 508T236 420Q236 362 250 315T296 233T383 181T518 162Z"/><glyph unicode="e" horiz-adv-x="1188" d="M502 -23Q364 -23 273 10T127 100T50 233T27 397Q27 454 34 512T53 627Q78 753 124 853T241 1022T413 1128T647 1165Q777 1165 861 1138T994 1065T1062 958T1081 827Q1081 791 1078 750T1068 666T1054 579T1036 494H221Q217 454 217 416Q217 359 232 311T282 228T377 174T524 154Q732 154 868 240L950 88Q849 22 739 0T502 -23ZM877 670Q885 705 889 734T893 797Q893 838 882 872T840 932T759 971T627 985Q539 985 475 959T366 883T290 761Q272 718 258 670H877Z"/><glyph unicode="f" horiz-adv-x="807" d="M141 1139H356L381 1253Q399 1338 428 1401T507 1506T629 1568T805 1589H934L899 1415H809Q747 1415 707 1402T640 1364T599 1306T575 1231L555 1139H838L801 958H517L242 -338H41L318 958H102L141 1139Z"/><glyph unicode="g" horiz-adv-x="1221" d="M571 416Q447 416 360 438Q345 441 331 446Q325 439 320 432Q299 404 299 360Q299 343 303 330T320 307T357 292T420 287Q571 285 681 273T863 229T969 144T1004 8Q1004 -105 965 -178T850 -293T661 -351T401 -367Q264 -367 163 -351T-4 -301T-102 -214T-135 -86Q-135 -16 -113 37T-51 128T44 189T164 223Q139 246 129 280T119 350Q119 385 129 416T158 475Q175 498 195 519Q157 553 138 599Q113 657 113 729Q113 843 144 925T238 1061T395 1140T614 1165Q651 1165 692 1163Q715 1162 738 1160L1184 1225L1155 1051H972Q1004 1024 1025 984Q1063 916 1063 825Q1063 615 939 516T571 416ZM430 -209Q523 -210 591 -202T705 -173T773 -113T795 -16Q795 27 771 54T695 97T566 117T379 123Q287 123 229 111T137 74T91 17T78 -59Q78 -95 98 -123T162 -170T271 -199T430 -209ZM573 582Q717 582 790 640T864 823Q864 863 850 893T805 944T724 974T602 985Q459 985 385 927T311 737Q311 700 323 672T366 623T446 593T573 582Z"/><glyph unicode="h" horiz-adv-x="1253" d="M324 1589H522L408 1053Q431 1074 461 1094T532 1130T623 1155T739 1165Q845 1165 916 1147T1032 1096T1095 1017T1119 914T1114 792T1090 657L948 0H750L887 635Q901 703 909 764T900 870T828 942T664 969Q578 969 520 944T422 876T361 774T324 649L186 0H-14L324 1589Z"/><glyph unicode="i" horiz-adv-x="516" d="M240 1139H438L197 0H-2L240 1139ZM319 1518H520L469 1276H268L319 1518Z"/><glyph unicode="j" horiz-adv-x="516" d="M-195 -180H-178Q-133 -180 -105 -173T-58 -146T-28 -95T-6 -12L240 1139H438L190 -35Q169 -130 144 -190T80 -285T-15 -331T-154 -344H-229L-195 -180ZM319 1518H520L469 1276H268L319 1518Z"/><glyph unicode="k" horiz-adv-x="1102" d="M328 1589H524L310 583L887 1139H1110L626 668L911 0H702L475 521L250 302L186 0H-10L328 1589Z"/><glyph unicode="l" horiz-adv-x="625" d="M266 -2Q187 -2 140 17T70 77T48 179T66 326L336 1589H535L264 317Q255 277 253 250T260 207T293 183T358 176H403L369 2Q355 0 326 -1T266 -2Z"/><glyph unicode="m" horiz-adv-x="1985" d="M225 1128L385 1139L375 1044Q400 1068 432 1090T506 1128T604 1155T731 1165Q803 1165 860 1159T960 1137T1031 1094T1075 1026Q1100 1055 1137 1080T1225 1124T1339 1154T1479 1165Q1585 1165 1655 1147T1768 1096T1829 1017T1850 914T1842 792T1817 657L1677 0H1477L1614 635Q1624 680 1632 722T1640 802T1631 870T1594 923T1521 957T1401 969Q1315 969 1258 945T1164 877T1106 775T1069 649L932 0H733L868 635Q878 680 886 722T894 802T885 870T848 923T775 957T655 969Q569 969 512 944T418 876T360 774T324 649L186 0H-14L225 1128Z"/><glyph unicode="n" horiz-adv-x="1253" d="M225 1128L385 1139L375 1044Q400 1068 433 1090T510 1128T610 1155T739 1165Q845 1165 916 1147T1032 1096T1095 1017T1119 914T1114 792T1090 657L948 0H750L885 635Q895 680 902 722T910 802T899 870T861 923T785 957T664 969Q578 969 520 944T422 876T361 774T324 649L186 0H-14L225 1128Z"/><glyph unicode="o" horiz-adv-x="1268" d="M526 -23Q393 -23 299 8T146 96T59 235T31 416Q31 465 36 517T53 627Q84 773 138 875T267 1041T441 1135T662 1165Q795 1165 890 1135T1045 1047T1133 910T1161 729Q1161 680 1155 627T1137 516Q1106 370 1053 268T923 101T748 7T526 -23ZM537 158Q621 158 686 180T799 248T881 366T936 535Q945 578 949 620T954 700Q954 762 938 813T885 900T792 955T651 975Q566 975 501 953T387 883T306 764T252 594Q243 551 238 510T233 426Q233 364 249 315T302 231T396 177T537 158Z"/><glyph unicode="p" horiz-adv-x="1303" d="M227 1128L385 1139L375 1040Q406 1074 445 1097T534 1136T643 1158T776 1165Q895 1165 976 1135T1107 1049T1178 919T1200 754Q1200 700 1193 640T1169 516Q1142 390 1101 291T996 123T842 18T627 -18Q530 -18 459 -8T339 21T261 70T217 137L115 -338H-82L227 1128ZM600 162Q682 162 742 185T845 254T917 371T969 535Q978 584 984 628T991 715Q991 774 977 822T930 904T843 956T709 975Q628 975 565 959T455 900T373 786T313 600Q289 498 289 418Q289 353 306 305T361 225T458 178T600 162Z"/><glyph unicode="q" horiz-adv-x="1303" d="M811 84Q779 55 743 36T662 4T566 -13T451 -18Q331 -18 250 12T119 97T48 227T27 391Q27 447 34 507T57 631Q85 757 125 856T229 1024T383 1129T600 1165Q694 1165 764 1156T885 1127T969 1078T1020 1008L1096 1153L1235 1141L922 -338H723L811 84ZM518 162Q599 162 662 178T772 237T854 351T913 537Q936 637 936 719Q936 785 919 833T865 914T768 961T625 977Q543 977 483 954T380 883T308 766T258 602Q247 553 242 508T236 420Q236 362 250 315T296 233T383 181T518 162Z"/><glyph unicode="r" horiz-adv-x="721" d="M227 1128L387 1139L371 1016Q419 1079 513 1116T756 1153L715 956Q616 956 548 932T434 863T361 755T317 614L186 0H-10L227 1128Z"/><glyph unicode="s" horiz-adv-x="1057" d="M442 -20Q284 -20 153 25T-72 150L57 291Q138 228 243 191T461 154Q511 154 554 161T630 187T681 242T700 334Q700 371 680 397T625 442T547 475T455 502Q396 519 336 539T227 593T148 676T117 801Q117 898 150 967T241 1080T381 1144T561 1165Q642 1165 709 1155T832 1127T932 1086T1010 1038L883 883Q857 900 825 917T751 949T660 972T547 981Q439 981 381 945T322 825Q322 790 341 766T393 723T469 690T561 662Q624 643 685 621T794 565T871 480T901 354Q901 245 866 173T768 58T622 -2T442 -20Z"/><glyph unicode="t" horiz-adv-x="834" d="M141 1139H350L455 1462L614 1493L539 1139H815L780 958H500L369 338Q360 300 358 270T368 219T412 187T500 176H610L575 0Q566 -1 547 -1T507 -2H434Q327 -2 267 22T179 90T152 197T168 340L304 958H102L141 1139Z"/><glyph unicode="u" horiz-adv-x="1239" d="M522 -23Q402 -23 319 -5T182 48T101 131T65 242T65 377T90 532L219 1139H420L289 514Q278 464 270 419T263 334T278 263T323 209T407 174T539 162Q625 162 677 183T760 244T808 340T840 467L983 1139H1178L1032 455Q1005 330 973 240T885 91T743 5T522 -23Z"/><glyph unicode="v" horiz-adv-x="1110" d="M98 1139H303L438 240L954 1139H1171L496 -10H289L98 1139Z"/><glyph unicode="w" horiz-adv-x="1778" d="M109 1139H313L412 303L864 1139H1069L1171 303L1620 1139H1829L1206 -10H1014L907 858L438 -10H246L109 1139Z"/><glyph unicode="x" horiz-adv-x="1098" d="M156 1139H362L547 742L891 1139H1112L621 585L895 0H688L478 449L88 0H-135L405 604L156 1139Z"/><glyph unicode="y" horiz-adv-x="1073" d="M98 1139H305L432 272L924 1139H1139L403 -113Q365 -180 330 -224T256 -295T168 -333T53 -344H-19Q-37 -344 -52 -344T-76 -342L-43 -180H45Q86 -180 112 -175T156 -158T190 -125T223 -70L278 23L98 1139Z"/><glyph unicode="z" horiz-adv-x="1008" d="M-70 145L711 958H141L176 1139H1010L981 989L199 170H827L793 0H-100L-70 145Z"/><glyph unicode="{" horiz-adv-x="1051" d="M465 -338Q375 -338 311 -326T207 -289T148 -228T129 -143Q129 -101 146 -47T188 65T243 184T298 297T341 394T358 463Q358 487 346 501T306 524T231 536T115 539L150 711Q234 711 289 716T378 739T424 794T438 893Q438 927 436 966T431 1048T426 1134T424 1217Q424 1405 519 1497T813 1589H1036L1001 1407H860Q791 1407 745 1395T672 1356T633 1288T621 1188Q621 1157 623 1120T628 1042T633 961T635 881Q635 832 628 791T603 718T554 662T475 625Q526 606 545 576T565 500Q565 469 549 423T508 324T455 213T402 102T361 2T344 -74Q344 -120 383 -141T512 -162H664L627 -338H465Z"/><glyph unicode="|" horiz-adv-x="692" d="M244 1589H444V-338H244V1589Z"/><glyph unicode="}" horiz-adv-x="1051" d="M-4 -162H135Q203 -162 249 -149T324 -108T365 -38T377 63Q377 94 375 131T370 209T365 291T362 371Q362 420 369 461T395 534T443 589T520 627Q471 645 452 676T432 752Q432 782 448 828T489 927T542 1037T595 1147T636 1245T653 1321Q653 1367 614 1387T483 1407H334L371 1589H532Q623 1589 687 1577T791 1541T851 1480T870 1395Q870 1354 853 1300T810 1186T755 1068T699 955T656 858T639 791Q639 766 651 751T691 728T767 716T883 713L848 541Q764 541 708 536T619 512T571 457T557 358Q557 324 559 285T565 203T570 118T573 35Q573 -153 478 -245T184 -338H-39L-4 -162Z"/><glyph unicode="~" horiz-adv-x="1208" d="M893 839Q840 839 799 855T723 890T654 926T582 943Q559 943 538 935T497 914T459 884T422 847L319 949Q379 1021 445 1064T590 1107Q643 1107 684 1091T760 1056T828 1020T899 1004Q939 1004 975 1031T1055 1107L1159 1004Q1090 924 1026 882T893 839Z"/><glyph unicode=" " horiz-adv-x="471"/><glyph unicode="¡" horiz-adv-x="758" d="M360 1083H539L328 0H109L360 1083ZM418 1518H666L612 1251H362L418 1518Z"/><glyph unicode="¢" horiz-adv-x="1118" d="M368 -1Q331 5 298 16Q203 49 144 107T58 245T31 420Q31 577 70 713T188 949T385 1106Q487 1154 617 1162L643 1286H834L805 1150Q811 1149 817 1148Q885 1133 936 1108T1024 1051T1087 983L930 852Q915 873 892 895T835 935T754 965Q753 965 752 965L577 155Q591 156 605 158Q636 162 669 172T738 199T809 244L911 113Q866 76 818 51T721 11T624 -10Q588 -14 554 -16L520 -193H328L368 -1ZM307 232Q345 195 404 174L416 170L589 973Q525 965 472 937Q396 897 344 826T264 655T236 438Q236 375 253 323T307 232Z"/><glyph unicode="£" horiz-adv-x="1243" d="M98 870H292Q291 912 291 952Q291 1088 318 1197T404 1384T554 1502T772 1544Q852 1544 918 1535T1038 1510T1135 1476T1212 1438L1102 1272Q1076 1287 1040 1302T961 1329T868 1348T764 1356Q684 1356 631 1326T545 1240T499 1106T485 932V870H899L866 700H491Q491 677 492 654Q493 581 490 510T473 377Q456 296 429 232Q458 217 491 204Q539 186 594 174T713 162Q764 162 798 169T854 199T889 261T913 367L922 416H1098L1081 338Q1062 235 1035 167T965 58T862 1T717 -16Q627 -16 553 -1T418 39Q364 61 320 88Q259 42 167 19Q72 -4 -68 0L-39 172Q60 172 120 186T215 226T266 291T291 379Q301 432 302 502T301 649L299 700H63L98 870Z"/><glyph unicode="¤" horiz-adv-x="1152" d="M1056 392L940 284L740 500Q668 452 572 452Q480 452 408 500L208 284L92 392L300 608Q272 648 262 686T252 780Q252 828 262 870T300 952L92 1168L208 1276L408 1060Q480 1108 572 1108Q668 1108 740 1060L944 1276L1060 1156L852 952Q880 912 890 872T900 780Q900 684 848 608L1056 392ZM748 780Q748 860 698 910T572 960Q496 960 448 910T400 780Q400 700 450 652T572 604Q652 604 700 652T748 780Z"/><glyph unicode="¥" horiz-adv-x="1270" d="M49 344H446L479 502H86L115 664H514L190 1518H399L647 838L1188 1518H1403L715 664H1110L1079 502H677L644 344H1042L1012 182H609L571 0H373L411 182H18L49 344Z"/><glyph unicode="¦" horiz-adv-x="692" d="M244 465H444V-338H244V465ZM244 1589H444V786H244V1589Z"/><glyph unicode="§" horiz-adv-x="1147" d="M545 1167Q561 1245 586 1311T656 1427T773 1504T954 1532Q975 1532 1000 1532T1048 1531T1090 1530T1116 1528L1081 1356H973Q907 1356 867 1343T802 1304T764 1243T741 1161L720 1061Q749 1057 776 1051Q867 1032 926 995T1014 906T1042 788Q1042 683 1005 618T905 516T761 466Q691 454 615 453L592 350Q577 272 552 205T481 89T363 12T182 -16Q161 -16 137 -16T89 -15T48 -14T23 -12L53 154H164Q229 154 269 167T335 205T372 267T395 354L418 464Q395 467 374 472Q283 491 224 526T137 613T109 729Q109 834 146 900T246 1005T389 1057Q454 1068 523 1070L545 1167ZM600 584Q655 584 705 591T792 618T852 676T874 774Q874 810 856 838T799 885T700 915T555 926Q497 926 447 920T358 894T298 837T276 737Q276 702 294 674T351 625T451 595T600 584Z"/><glyph unicode="¨" horiz-adv-x="1208" d="M459 1485H641L594 1255H412L459 1485ZM874 1485H1057L1010 1255H827L874 1485Z"/><glyph unicode="©" horiz-adv-x="1692" d="M866 250Q618 250 492 381T365 768Q365 901 401 998T503 1158T663 1253T872 1284Q984 1284 1075 1252T1235 1155L1141 1055Q1090 1101 1021 1127T872 1153Q697 1153 602 1056T506 768Q506 578 598 480T872 381Q924 381 966 389T1042 410T1102 442T1151 481L1241 389Q1214 361 1180 336T1100 292T997 262T866 250ZM854 -25Q663 -25 520 33T282 196T140 445T92 760Q92 930 139 1074T282 1322T520 1485T854 1544Q1044 1544 1186 1486T1424 1323T1566 1074T1614 760Q1614 589 1567 445T1424 197T1187 34T854 -25ZM854 63Q1028 63 1154 115T1363 259T1484 480T1524 760Q1524 912 1485 1039T1363 1259T1155 1404T854 1456Q678 1456 552 1404T343 1260T223 1040T184 760Q184 608 222 480T343 260T551 115T854 63Z"/><glyph unicode="ª" horiz-adv-x="1180" d="M451 578Q363 578 304 596T208 645T157 720T141 813Q141 932 181 1005T298 1120T484 1175T731 1190H851Q855 1209 858 1228Q862 1257 862 1282Q862 1310 853 1330T819 1363T754 1382T651 1389Q620 1389 586 1384T519 1371T454 1352T399 1329L336 1460Q362 1476 399 1491T481 1517T576 1535T678 1542Q811 1542 887 1518T996 1444T1027 1320T1004 1145L936 842Q929 810 928 790T934 759T959 745T1008 741L977 596Q971 594 952 594H911Q873 594 845 602T801 633Q780 658 780 705Q725 639 640 609T451 578ZM528 1050Q452 1043 403 1021T331 955T307 840Q308 812 317 791T349 754T408 731T500 723Q557 723 606 737T694 784T762 871T809 1004L821 1057H709Q604 1057 528 1050ZM147 438H846L815 287H117L147 438Z"/><glyph unicode="«" horiz-adv-x="1436" d="M160 567L588 1139H764L348 567L522 0H346L160 567ZM659 567L1090 1139H1268L850 567L1024 0H850L659 567Z"/><glyph unicode="¬" horiz-adv-x="1536" d="M1116 352V728H212V920H1296V352H1116Z"/><glyph unicode="­" horiz-adv-x="911" d="M94 735H805L766 549H55L94 735Z"/><glyph unicode="®" horiz-adv-x="1692" d="M850 -25Q659 -25 517 33T281 196T139 445T92 760Q92 930 139 1074T280 1322T517 1485T850 1544Q1041 1544 1184 1486T1422 1323T1564 1074T1612 760Q1612 589 1565 445T1422 197T1184 34T850 -25ZM850 63Q1025 63 1152 115T1361 259T1482 480T1522 760Q1522 912 1483 1039T1361 1259T1152 1404T850 1456Q675 1456 549 1404T340 1260T219 1040T180 760Q180 608 219 480T340 260T548 115T850 63ZM485 1249H922Q1021 1249 1087 1230T1192 1174T1247 1081T1264 954Q1264 883 1247 827T1190 733T1084 673Q1059 665 1029 660L1262 262H1120L895 653H614V262H485V1249ZM922 770Q976 770 1015 778T1081 808T1120 863T1133 950Q1133 1001 1121 1035T1082 1090T1015 1119T918 1128H614V770H922Z"/><glyph unicode="¯" horiz-adv-x="1208" d="M373 1425H1116L1083 1255H338L373 1425Z"/><glyph unicode="°" horiz-adv-x="1141" d="M573 563Q465 563 389 593T264 674T193 795T170 942Q170 1068 205 1177T309 1368T475 1495T700 1542Q808 1542 884 1512T1008 1429T1078 1306T1100 1157Q1100 1030 1064 922T960 734T794 609T573 563ZM588 721Q672 721 736 753T844 841T910 974T932 1139Q932 1190 919 1233T875 1308T797 1358T678 1376Q594 1376 531 1343T425 1252T360 1117T338 952Q338 902 351 860T395 787T472 739T588 721Z"/><glyph unicode="±" horiz-adv-x="1440" d="M594 627H182L223 817H633L721 1225H918L831 817H1241L1200 627H793L707 219H508L594 627ZM94 215H1112L1075 29H55L94 215Z"/><glyph unicode="²" horiz-adv-x="963" d="M139 688L506 983Q556 1024 593 1055T658 1111T703 1157T731 1198T746 1241T750 1292Q750 1339 710 1362T580 1386Q529 1386 467 1376T354 1343L305 1475Q368 1501 439 1515T592 1530Q761 1530 837 1477T913 1319Q913 1251 901 1204T858 1114T773 1023T635 909L379 702H788L764 567H115L139 688Z"/><glyph unicode="³" horiz-adv-x="963" d="M492 553Q427 553 372 561T270 583T182 619T104 666L193 782Q226 761 259 744T328 714T403 695T489 688Q583 688 634 737T686 891Q686 920 678 943T649 981T593 1005T502 1014H365L395 1151H567Q612 1151 645 1158T701 1182T734 1227T745 1298Q745 1346 706 1370T578 1395Q557 1395 529 1393T469 1384T404 1367T342 1341L285 1464Q323 1486 367 1499T455 1520T537 1530T604 1532Q759 1532 836 1481T913 1333Q913 1275 902 1233T869 1160T816 1111T745 1079Q801 1056 824 1009T848 893Q848 802 822 738T749 632T637 572T492 553Z"/><glyph unicode="´" horiz-adv-x="1208" d="M909 1591H1159L727 1255H535L909 1591Z"/><glyph unicode="µ" horiz-adv-x="1247" d="M229 1139H430L297 514Q286 464 278 419T271 334T286 263T331 209T415 174T549 162Q637 162 689 183T771 244T817 340T848 467L991 1139H1186L1040 455Q1014 330 981 240T891 91T749 5T532 -23Q461 -23 408 -14T315 11T250 49T209 98L115 -338H-82L229 1139Z"/><glyph unicode="¶" horiz-adv-x="1278" d="M862 565H658L537 0H348L471 582Q452 586 433 591Q330 617 267 665T175 781T147 934Q147 1224 289 1371T727 1518H1255L932 0H743L862 565ZM899 733L1028 1333H707Q625 1333 560 1312T448 1246T377 1130T352 956Q352 846 431 790T690 733H899Z"/><glyph unicode="·" horiz-adv-x="518" d="M150 836H399L342 561H94L150 836Z"/><glyph unicode="¸" horiz-adv-x="1208" d="M408 -475Q355 -475 311 -468T232 -450T168 -424T119 -395L195 -289Q232 -315 280 -335T403 -356Q483 -356 516 -326T549 -246Q549 -220 535 -204T496 -180T441 -170T375 -170L334 -135L393 14H516L473 -90Q511 -90 549 -96T618 -119T668 -165T688 -242Q688 -306 668 -350T610 -422T522 -462T408 -475Z"/><glyph unicode="¹" horiz-adv-x="707" d="M440 1372H262L293 1518H637L436 567H270L440 1372Z"/><glyph unicode="º" horiz-adv-x="1182" d="M610 582Q503 582 426 607T299 679T225 793T201 944Q202 1079 236 1189T335 1378T490 1499T694 1542Q803 1542 881 1517T1010 1445T1084 1331T1108 1180Q1108 1044 1074 934T976 745T820 625T610 582ZM608 735Q687 735 748 765T851 850T914 983T936 1157Q936 1209 923 1250T880 1321T806 1366T696 1382Q621 1382 561 1351T460 1264T396 1130T373 956Q373 905 386 864T428 795T501 751T608 735ZM145 438H899L868 283H115L145 438Z"/><glyph unicode="»" horiz-adv-x="1436" d="M510 571L336 1139H510L698 569L268 0H92L510 571ZM1010 571L836 1139H1012L1200 569L772 0H592L1010 571Z"/><glyph unicode="¼" horiz-adv-x="1870" d="M924 330L1475 950H1651L1102 336H1387L1475 606H1597L1539 336H1696L1667 205H1511L1468 0H1317L1359 205H899L924 330ZM1380 1518H1559L391 0H211L1380 1518ZM416 1372H238L266 1518H612L410 567H246L416 1372Z"/><glyph unicode="½" horiz-adv-x="2009" d="M416 1372H238L266 1518H612L410 567H246L416 1372ZM1380 1518H1559L391 0H211L1380 1518ZM1067 121L1436 416Q1511 477 1558 517T1631 588T1667 650T1677 723Q1677 771 1637 795T1507 819Q1456 819 1396 809T1282 776L1233 905Q1296 933 1368 949T1520 965Q1685 965 1763 910T1841 752Q1841 706 1836 670T1818 603T1785 543T1734 484T1662 420T1567 342L1313 135H1718L1692 0H1044L1067 121Z"/><glyph unicode="¾" horiz-adv-x="2093" d="M469 561Q404 561 349 568T247 590T158 624T78 670L166 788Q232 744 302 719T465 694Q557 694 610 743T664 897Q664 926 656 949T627 989T570 1015T477 1024H342L371 1155H541Q587 1155 621 1162T678 1186T712 1232T723 1305Q723 1354 684 1376T553 1399Q533 1399 505 1397T445 1390T380 1375T317 1350L260 1473Q299 1494 343 1507T431 1527T512 1536T580 1538Q734 1538 811 1487T889 1339Q889 1281 878 1239T845 1167T792 1118T723 1087Q776 1063 798 1015T821 899Q821 808 796 744T724 640T612 580T469 561ZM1149 330L1700 950H1876L1327 336H1613L1698 606H1821L1764 336H1919L1890 205H1737L1694 0H1542L1584 205H1122L1149 330ZM1606 1518H1784L612 0H436L1606 1518Z"/><glyph unicode="¿" horiz-adv-x="1356" d="M569 -20Q427 -20 330 2T172 67T86 169T59 305Q59 399 79 467T143 588T258 680T430 760Q505 788 552 814T627 878T673 970T705 1110H897Q885 1035 872 976T841 871T799 789T741 724T660 671T551 625Q469 595 415 571T328 518T282 449T268 350Q268 312 282 279T334 221T436 182T602 168Q681 168 782 185T989 242L1057 66Q997 41 930 25T798 -2T673 -16T569 -20ZM758 1522H1008L958 1280H709L758 1522Z"/><glyph unicode="À" horiz-adv-x="1473" d="M795 1528H999L1260 0H1053L999 319H295L106 0H-117L795 1528ZM971 510L846 1262L401 510H971ZM615 1939H846L1080 1603H903L615 1939Z"/><glyph unicode="Á" horiz-adv-x="1473" d="M795 1528H999L1260 0H1053L999 319H295L106 0H-117L795 1528ZM971 510L846 1262L401 510H971ZM1110 1939H1360L928 1603H736L1110 1939Z"/><glyph unicode="Â" horiz-adv-x="1473" d="M795 1528H999L1260 0H1053L999 319H295L106 0H-117L795 1528ZM971 510L846 1262L401 510H971ZM875 1939H1090L1319 1603H1131L959 1810L697 1603H502L875 1939Z"/><glyph unicode="Ã" horiz-adv-x="1473" d="M795 1528H999L1260 0H1053L999 319H295L106 0H-117L795 1528ZM971 510L846 1262L401 510H971ZM1094 1608Q1041 1608 1000 1624T924 1659T855 1695T783 1712Q760 1712 739 1704T698 1683T660 1653T623 1616L520 1718Q580 1790 646 1833T791 1876Q844 1876 885 1860T961 1825T1029 1789T1100 1773Q1140 1773 1176 1800T1256 1876L1360 1773Q1291 1693 1227 1651T1094 1608Z"/><glyph unicode="Ä" horiz-adv-x="1473" d="M795 1528H999L1260 0H1053L999 319H295L106 0H-117L795 1528ZM971 510L846 1262L401 510H971ZM660 1833H842L795 1603H613L660 1833ZM1075 1833H1258L1211 1603H1028L1075 1833Z"/><glyph unicode="Å" horiz-adv-x="1473" d="M745 1446Q693 1475 669 1523T645 1630Q645 1702 666 1761T726 1862T817 1927T936 1950Q999 1950 1044 1932T1119 1883T1162 1812T1176 1726Q1176 1618 1131 1547T1014 1442L1260 0H1053L999 319H295L106 0H-117L745 1446ZM971 510L846 1262L401 510H971ZM893 1530Q968 1530 1015 1578T1063 1714Q1063 1739 1056 1761T1034 1800T993 1827T932 1837Q893 1837 861 1823T806 1783T771 1722T758 1645Q758 1595 790 1563T893 1530Z"/><glyph unicode="Æ" horiz-adv-x="2193" d="M1118 1518H2232L2191 1319H1401L1305 879H2075L2036 688H1266L1157 190H1956L1917 0H920L989 319H356L92 0H-141L1118 1518ZM1026 498L1202 1333L502 498H1026Z"/><glyph unicode="Ç" horiz-adv-x="1462" d="M528 -475Q475 -475 431 -468T352 -450T288 -424T239 -395L315 -289Q352 -315 400 -335T523 -356Q603 -356 636 -326T669 -246Q669 -220 655 -204T616 -180T561 -170T495 -170L454 -135L513 14H636L593 -90Q631 -90 669 -96T738 -119T788 -165T808 -242Q808 -306 788 -350T730 -422T642 -462T528 -475ZM721 -23Q550 -23 426 18T220 137T100 323T61 569Q61 691 88 834Q131 1036 211 1171T399 1389T638 1507T915 1542Q1030 1542 1119 1524T1276 1476T1395 1406T1483 1323L1307 1182Q1245 1254 1147 1298T907 1343Q791 1343 693 1313T516 1218T382 1051T295 805Q283 749 278 697T272 596Q272 498 300 420T385 286T531 202T739 172Q804 172 859 180T961 204T1051 243T1133 299L1260 145Q1210 103 1154 72T1032 19T889 -12T721 -23Z"/><glyph unicode="È" horiz-adv-x="1300" d="M334 1518H1341L1300 1319H500L401 883H1182L1143 686H365L256 190H1065L1026 0H10L334 1518ZM533 1939H764L998 1603H821L533 1939Z"/><glyph unicode="É" horiz-adv-x="1300" d="M1028 1939H1278L846 1603H654L1028 1939ZM334 1518H1341L1300 1319H500L401 883H1182L1143 686H365L256 190H1065L1026 0H10L334 1518Z"/><glyph unicode="Ê" horiz-adv-x="1300" d="M793 1939H1008L1237 1603H1049L877 1810L615 1603H420L793 1939ZM334 1518H1341L1300 1319H500L401 883H1182L1143 686H365L256 190H1065L1026 0H10L334 1518Z"/><glyph unicode="Ë" horiz-adv-x="1300" d="M578 1833H760L713 1603H531L578 1833ZM993 1833H1176L1129 1603H946L993 1833ZM334 1518H1341L1300 1319H500L401 883H1182L1143 686H365L256 190H1065L1026 0H10L334 1518Z"/><glyph unicode="Ì" horiz-adv-x="582" d="M174 1944H406L553 1606H383L174 1944ZM350 1518H559L236 0H27L350 1518Z"/><glyph unicode="Í" horiz-adv-x="582" d="M672 1944H918L561 1606H375L672 1944ZM350 1518H559L236 0H27L350 1518Z"/><glyph unicode="Î" horiz-adv-x="582" d="M350 1518H559L236 0H27L350 1518ZM437 1939H652L881 1603H693L521 1810L259 1603H64L437 1939Z"/><glyph unicode="Ï" horiz-adv-x="582" d="M350 1518H559L236 0H27L350 1518ZM222 1833H404L357 1603H175L222 1833ZM637 1833H820L773 1603H590L637 1833Z"/><glyph unicode="Ð" horiz-adv-x="1532" d="M25 866H194L334 1518H694Q904 1518 1051 1487T1293 1391T1430 1226T1473 985Q1473 917 1465 841T1436 678Q1405 533 1362 426T1261 244T1134 121T981 47T802 10T596 0H10L158 694H-12L25 866ZM600 190Q738 190 840 211T1018 290T1144 448T1229 707Q1244 776 1253 838T1262 956Q1262 1050 1233 1118T1136 1232T960 1299T692 1321H502L403 866H729L692 694H365L256 190H600Z"/><glyph unicode="Ñ" horiz-adv-x="1577" d="M334 1518H559L1118 348L1372 1518H1569L1245 0H1057L469 1217L207 0H10L334 1518ZM1147 1608Q1094 1608 1053 1624T977 1659T908 1695T836 1712Q813 1712 792 1704T751 1683T713 1653T676 1616L573 1718Q633 1790 699 1833T844 1876Q897 1876 938 1860T1014 1825T1082 1789T1153 1773Q1193 1773 1229 1800T1309 1876L1413 1773Q1344 1693 1280 1651T1147 1608Z"/><glyph unicode="Ò" horiz-adv-x="1688" d="M764 -25Q593 -25 463 15T243 133T109 325T63 588Q61 647 68 709T90 840Q119 977 166 1082T274 1266T410 1397T567 1482T741 1528T926 1542Q1096 1542 1227 1502T1446 1385T1580 1194T1626 934Q1626 874 1620 812T1597 684Q1567 546 1521 440T1413 256T1278 123T1122 37T949 -10T764 -25ZM766 168Q887 168 988 198T1168 293T1302 459T1389 702Q1401 755 1407 806T1413 905Q1413 1005 1385 1086T1295 1224T1140 1312T915 1343Q794 1343 693 1312T514 1216T381 1051T297 811Q285 758 280 707T274 606Q274 507 302 426T391 288T544 200T766 168ZM725 1939H956L1190 1603H1013L725 1939Z"/><glyph unicode="Ó" horiz-adv-x="1688" d="M1216 1939H1466L1034 1603H842L1216 1939ZM764 -25Q593 -25 463 15T243 133T109 325T63 588Q61 647 68 709T90 840Q119 977 166 1082T274 1266T410 1397T567 1482T741 1528T926 1542Q1096 1542 1227 1502T1446 1385T1580 1194T1626 934Q1626 874 1620 812T1597 684Q1567 546 1521 440T1413 256T1278 123T1122 37T949 -10T764 -25ZM766 168Q887 168 988 198T1168 293T1302 459T1389 702Q1401 755 1407 806T1413 905Q1413 1005 1385 1086T1295 1224T1140 1312T915 1343Q794 1343 693 1312T514 1216T381 1051T297 811Q285 758 280 707T274 606Q274 507 302 426T391 288T544 200T766 168Z"/><glyph unicode="Ô" horiz-adv-x="1688" d="M981 1939H1196L1425 1603H1237L1065 1810L803 1603H608L981 1939ZM764 -25Q593 -25 463 15T243 133T109 325T63 588Q61 647 68 709T90 840Q119 977 166 1082T274 1266T410 1397T567 1482T741 1528T926 1542Q1096 1542 1227 1502T1446 1385T1580 1194T1626 934Q1626 874 1620 812T1597 684Q1567 546 1521 440T1413 256T1278 123T1122 37T949 -10T764 -25ZM766 168Q887 168 988 198T1168 293T1302 459T1389 702Q1401 755 1407 806T1413 905Q1413 1005 1385 1086T1295 1224T1140 1312T915 1343Q794 1343 693 1312T514 1216T381 1051T297 811Q285 758 280 707T274 606Q274 507 302 426T391 288T544 200T766 168Z"/><glyph unicode="Õ" horiz-adv-x="1688" d="M764 -25Q593 -25 463 15T243 133T109 325T63 588Q61 647 68 709T90 840Q119 977 166 1082T274 1266T410 1397T567 1482T741 1528T926 1542Q1096 1542 1227 1502T1446 1385T1580 1194T1626 934Q1626 874 1620 812T1597 684Q1567 546 1521 440T1413 256T1278 123T1122 37T949 -10T764 -25ZM766 168Q887 168 988 198T1168 293T1302 459T1389 702Q1401 755 1407 806T1413 905Q1413 1005 1385 1086T1295 1224T1140 1312T915 1343Q794 1343 693 1312T514 1216T381 1051T297 811Q285 758 280 707T274 606Q274 507 302 426T391 288T544 200T766 168ZM1204 1608Q1151 1608 1110 1624T1034 1659T965 1695T893 1712Q870 1712 849 1704T808 1683T770 1653T733 1616L630 1718Q690 1790 756 1833T901 1876Q954 1876 995 1860T1071 1825T1139 1789T1210 1773Q1250 1773 1286 1800T1366 1876L1470 1773Q1401 1693 1337 1651T1204 1608Z"/><glyph unicode="Ö" horiz-adv-x="1688" d="M770 1833H952L905 1603H723L770 1833ZM1185 1833H1368L1321 1603H1138L1185 1833ZM764 -25Q593 -25 463 15T243 133T109 325T63 588Q61 647 68 709T90 840Q119 977 166 1082T274 1266T410 1397T567 1482T741 1528T926 1542Q1096 1542 1227 1502T1446 1385T1580 1194T1626 934Q1626 874 1620 812T1597 684Q1567 546 1521 440T1413 256T1278 123T1122 37T949 -10T764 -25ZM766 168Q887 168 988 198T1168 293T1302 459T1389 702Q1401 755 1407 806T1413 905Q1413 1005 1385 1086T1295 1224T1140 1312T915 1343Q794 1343 693 1312T514 1216T381 1051T297 811Q285 758 280 707T274 606Q274 507 302 426T391 288T544 200T766 168Z"/><glyph unicode="×" horiz-adv-x="1440" d="M201 401L588 721L338 1040L483 1165L737 846L1124 1165L1219 1038L831 721L1083 401L936 276L686 596L295 276L201 401Z"/><glyph unicode="Ø" horiz-adv-x="1688" d="M764 -25Q593 -25 462 15Q415 29 374 48L272 -84H70L240 135Q153 213 108 325Q63 440 63 588Q61 647 68 709T90 840Q133 1046 216 1181T409 1397T651 1509T926 1542Q1096 1542 1227 1502Q1260 1492 1290 1479L1386 1604H1587L1429 1399Q1438 1392 1446 1384Q1535 1307 1580 1194T1626 934Q1626 874 1620 812T1597 684Q1567 546 1521 440T1413 256T1278 123T1122 37T949 -10T764 -25ZM766 162Q889 162 991 192T1173 287T1309 454T1397 702Q1409 755 1415 807T1421 909Q1421 1010 1392 1092T1301 1231Q1298 1234 1294 1238L492 212Q515 202 540 193Q635 162 766 162ZM1144 1320Q1048 1352 915 1352Q792 1352 691 1321T510 1223T375 1055T289 811Q276 758 270 706T264 602Q264 502 293 421Q319 347 372 293L1168 1312Q1156 1316 1144 1320Z"/><glyph unicode="Ù" horiz-adv-x="1575" d="M694 -27Q517 -27 403 8T222 103T129 242T102 408Q102 456 109 506T127 604L324 1518H530L336 610Q327 565 320 524T313 444Q313 381 332 330T398 243T522 188T715 168Q822 168 898 193T1028 267T1114 389T1167 557L1374 1518H1575L1358 516Q1342 442 1319 373T1260 244T1175 133T1057 48T899 -7T694 -27ZM668 1939H899L1133 1603H956L668 1939Z"/><glyph unicode="Ú" horiz-adv-x="1575" d="M1163 1939H1413L981 1603H789L1163 1939ZM694 -27Q517 -27 403 8T222 103T129 242T102 408Q102 456 109 506T127 604L324 1518H530L336 610Q327 565 320 524T313 444Q313 381 332 330T398 243T522 188T715 168Q822 168 898 193T1028 267T1114 389T1167 557L1374 1518H1575L1358 516Q1342 442 1319 373T1260 244T1175 133T1057 48T899 -7T694 -27Z"/><glyph unicode="Û" horiz-adv-x="1575" d="M928 1939H1143L1372 1603H1184L1012 1810L750 1603H555L928 1939ZM694 -27Q517 -27 403 8T222 103T129 242T102 408Q102 456 109 506T127 604L324 1518H530L336 610Q327 565 320 524T313 444Q313 381 332 330T398 243T522 188T715 168Q822 168 898 193T1028 267T1114 389T1167 557L1374 1518H1575L1358 516Q1342 442 1319 373T1260 244T1175 133T1057 48T899 -7T694 -27Z"/><glyph unicode="Ü" horiz-adv-x="1575" d="M713 1833H895L848 1603H666L713 1833ZM1128 1833H1311L1264 1603H1081L1128 1833ZM694 -27Q517 -27 403 8T222 103T129 242T102 408Q102 456 109 506T127 604L324 1518H530L336 610Q327 565 320 524T313 444Q313 381 332 330T398 243T522 188T715 168Q822 168 898 193T1028 267T1114 389T1167 557L1374 1518H1575L1358 516Q1342 442 1319 373T1260 244T1175 133T1057 48T899 -7T694 -27Z"/><glyph unicode="Ý" horiz-adv-x="1425" d="M569 584L188 1518H403L711 782L1325 1518H1554L774 578L651 0H444L569 584ZM1087 1939H1337L905 1603H713L1087 1939Z"/><glyph unicode="Þ" horiz-adv-x="1434" d="M334 1518H537L483 1282H848Q996 1282 1098 1256T1263 1181T1354 1065T1382 915Q1382 781 1348 672T1244 484T1065 362T809 319H281L213 0H10L334 1518ZM805 504Q977 504 1072 595T1167 874Q1167 929 1148 970T1088 1038T981 1080T823 1094H446L317 504H805Z"/><glyph unicode="ß" horiz-adv-x="1309" d="M227 1122Q249 1227 289 1314T393 1465T548 1563T764 1599Q888 1599 974 1575T1116 1506T1196 1402T1221 1268Q1221 1176 1201 1103T1142 975T1051 884T934 829Q1061 795 1122 717T1184 508Q1184 250 1044 125T604 0H399L436 180H594Q700 180 775 202T899 265T969 366T991 502Q991 555 970 596T904 665T788 708T614 723L649 891Q730 890 798 905T915 957T991 1054T1018 1204Q1018 1246 1004 1281T957 1342T873 1382T748 1397Q606 1397 528 1320T418 1090L115 -338H-82L227 1122Z"/><glyph unicode="à" horiz-adv-x="1251" d="M375 -20Q260 -20 184 2T63 64T0 160T-18 285Q-18 422 29 510T169 650T397 721T709 741H857Q868 798 868 846Q868 880 856 905T815 946T735 971T606 979Q569 979 527 973T444 958T365 935T299 907L219 1069Q253 1089 299 1106T401 1137T517 1157T641 1165Q751 1165 827 1151T953 1110T1028 1042T1060 947T1060 825T1034 676L954 303Q946 263 943 238T948 199T977 180T1040 176L1006 2Q996 -1 973 -1T920 -2Q884 -2 857 3T812 22T783 58T770 115Q711 47 614 14T375 -20ZM453 562Q359 553 299 525T210 444T182 305Q182 270 193 242T233 193T308 163T426 152Q511 152 573 170T680 231T755 339T807 502L821 571H682Q548 571 453 562ZM437 1591H668L902 1255H725L437 1591Z"/><glyph unicode="á" horiz-adv-x="1251" d="M375 -20Q260 -20 184 2T63 64T0 160T-18 285Q-18 422 29 510T169 650T397 721T709 741H857Q868 798 868 846Q868 880 856 905T815 946T735 971T606 979Q569 979 527 973T444 958T365 935T299 907L219 1069Q253 1089 299 1106T401 1137T517 1157T641 1165Q751 1165 827 1151T953 1110T1028 1042T1060 947T1060 825T1034 676L954 303Q946 263 943 238T948 199T977 180T1040 176L1006 2Q996 -1 973 -1T920 -2Q884 -2 857 3T812 22T783 58T770 115Q711 47 614 14T375 -20ZM453 562Q359 553 299 525T210 444T182 305Q182 270 193 242T233 193T308 163T426 152Q511 152 573 170T680 231T755 339T807 502L821 571H682Q548 571 453 562ZM932 1591H1182L750 1255H558L932 1591Z"/><glyph unicode="â" horiz-adv-x="1251" d="M375 -20Q260 -20 184 2T63 64T0 160T-18 285Q-18 422 29 510T169 650T397 721T709 741H857Q868 798 868 846Q868 880 856 905T815 946T735 971T606 979Q569 979 527 973T444 958T365 935T299 907L219 1069Q253 1089 299 1106T401 1137T517 1157T641 1165Q751 1165 827 1151T953 1110T1028 1042T1060 947T1060 825T1034 676L954 303Q946 263 943 238T948 199T977 180T1040 176L1006 2Q996 -1 973 -1T920 -2Q884 -2 857 3T812 22T783 58T770 115Q711 47 614 14T375 -20ZM453 562Q359 553 299 525T210 444T182 305Q182 270 193 242T233 193T308 163T426 152Q511 152 573 170T680 231T755 339T807 502L821 571H682Q548 571 453 562ZM697 1591H912L1141 1255H953L781 1462L519 1255H324L697 1591Z"/><glyph unicode="ã" horiz-adv-x="1251" d="M375 -20Q260 -20 184 2T63 64T0 160T-18 285Q-18 422 29 510T169 650T397 721T709 741H857Q868 798 868 846Q868 880 856 905T815 946T735 971T606 979Q569 979 527 973T444 958T365 935T299 907L219 1069Q253 1089 299 1106T401 1137T517 1157T641 1165Q751 1165 827 1151T953 1110T1028 1042T1060 947T1060 825T1034 676L954 303Q946 263 943 238T948 199T977 180T1040 176L1006 2Q996 -1 973 -1T920 -2Q884 -2 857 3T812 22T783 58T770 115Q711 47 614 14T375 -20ZM453 562Q359 553 299 525T210 444T182 305Q182 270 193 242T233 193T308 163T426 152Q511 152 573 170T680 231T755 339T807 502L821 571H682Q548 571 453 562ZM916 1260Q863 1260 822 1276T746 1311T677 1347T605 1364Q582 1364 561 1356T520 1335T482 1305T445 1268L342 1370Q402 1442 468 1485T613 1528Q666 1528 707 1512T783 1477T851 1441T922 1425Q962 1425 998 1452T1078 1528L1182 1425Q1113 1345 1049 1303T916 1260Z"/><glyph unicode="ä" horiz-adv-x="1251" d="M375 -20Q260 -20 184 2T63 64T0 160T-18 285Q-18 422 29 510T169 650T397 721T709 741H857Q868 798 868 846Q868 880 856 905T815 946T735 971T606 979Q569 979 527 973T444 958T365 935T299 907L219 1069Q253 1089 299 1106T401 1137T517 1157T641 1165Q751 1165 827 1151T953 1110T1028 1042T1060 947T1060 825T1034 676L954 303Q946 263 943 238T948 199T977 180T1040 176L1006 2Q996 -1 973 -1T920 -2Q884 -2 857 3T812 22T783 58T770 115Q711 47 614 14T375 -20ZM453 562Q359 553 299 525T210 444T182 305Q182 270 193 242T233 193T308 163T426 152Q511 152 573 170T680 231T755 339T807 502L821 571H682Q548 571 453 562ZM482 1485H664L617 1255H435L482 1485ZM897 1485H1080L1033 1255H850L897 1485Z"/><glyph unicode="å" horiz-adv-x="1251" d="M375 -20Q260 -20 184 2T63 64T0 160T-18 285Q-18 422 29 510T169 650T397 721T709 741H857Q868 798 868 846Q868 880 856 905T815 946T735 971T606 979Q569 979 527 973T444 958T365 935T299 907L219 1069Q253 1089 299 1106T401 1137T517 1157T641 1165Q751 1165 827 1151T953 1110T1028 1042T1060 947T1060 825T1034 676L954 303Q946 263 943 238T948 199T977 180T1040 176L1006 2Q996 -1 973 -1T920 -2Q884 -2 857 3T812 22T783 58T770 115Q711 47 614 14T375 -20ZM453 562Q359 553 299 525T210 444T182 305Q182 270 193 242T233 193T308 163T426 152Q511 152 573 170T680 231T755 339T807 502L821 571H682Q548 571 453 562ZM760 1237Q695 1237 649 1254T573 1300T531 1367T517 1450Q517 1522 538 1581T597 1681T689 1746T807 1769Q870 1769 915 1751T990 1702T1033 1631T1047 1546Q1047 1472 1025 1415T965 1318T874 1258T760 1237ZM764 1350Q840 1350 887 1398T934 1534Q934 1558 927 1580T905 1620T864 1647T803 1657Q765 1657 733 1643T678 1603T642 1542T629 1464Q629 1415 661 1383T764 1350Z"/><glyph unicode="æ" horiz-adv-x="1950" d="M1268 -23Q1130 -23 1042 10T903 100Q871 136 851 181L834 158Q790 101 726 62T573 1T367 -20Q275 -20 203 -3T82 52T8 146T-18 285Q-18 420 29 508T169 648T396 720T709 741H856Q860 761 863 782Q868 820 868 846Q868 879 857 904T816 945T735 970T606 979Q569 979 527 973T444 958T365 935T299 907L219 1069Q253 1089 299 1106T400 1137T516 1157T641 1165Q747 1165 821 1152T942 1113T1014 1048Q1020 1038 1025 1028Q1090 1092 1182 1128Q1279 1165 1413 1165Q1543 1165 1626 1138T1758 1065T1826 957T1845 827Q1845 791 1842 750T1832 666T1819 579T1802 494H987Q983 454 983 416Q983 359 998 311T1048 228T1142 174T1288 154Q1498 154 1634 240L1716 88Q1665 55 1612 34T1504 0T1390 -18T1268 -23ZM458 563Q364 556 303 529T212 447T182 301Q182 263 195 235T238 189T314 161T426 152Q514 152 577 171T684 233T757 341T807 502L821 571H682Q552 571 458 563ZM1642 668Q1649 705 1653 734T1657 797Q1657 838 1646 872T1604 932T1523 971T1393 985Q1305 985 1241 959T1132 883T1056 761Q1038 718 1023 668H1642Z"/><glyph unicode="ç" horiz-adv-x="1124" d="M625 -475Q572 -475 528 -468T449 -450T385 -424T336 -395L412 -289Q449 -315 497 -335T620 -356Q700 -356 733 -326T766 -246Q766 -220 752 -204T713 -180T658 -170T592 -170L551 -135L610 14H733L690 -90Q728 -90 766 -96T835 -119T885 -165T905 -242Q905 -306 885 -350T827 -422T739 -462T625 -475ZM506 -20Q371 -20 280 12T134 100T55 234T31 403Q31 459 36 514T53 627Q80 757 127 857T246 1025T419 1129T655 1165Q749 1165 818 1150T939 1109T1025 1050T1087 981L920 848Q904 869 883 891T831 931T753 961T641 973Q560 973 497 952T387 884T306 766T252 594Q244 552 239 508T233 422Q233 363 248 314T296 231T385 177T520 158Q559 158 593 162T661 176T729 204T799 248L911 115Q862 76 813 50T715 9T613 -13T506 -20Z"/><glyph unicode="è" horiz-adv-x="1188" d="M502 -23Q364 -23 273 10T127 100T50 233T27 397Q27 454 34 512T53 627Q78 753 124 853T241 1022T413 1128T647 1165Q777 1165 861 1138T994 1065T1062 958T1081 827Q1081 791 1078 750T1068 666T1054 579T1036 494H221Q217 454 217 416Q217 359 232 311T282 228T377 174T524 154Q732 154 868 240L950 88Q849 22 739 0T502 -23ZM877 670Q885 705 889 734T893 797Q893 838 882 872T840 932T759 971T627 985Q539 985 475 959T366 883T290 761Q272 718 258 670H877ZM663 1591H894L1128 1255H951L663 1591Z"/><glyph unicode="é" horiz-adv-x="1188" d="M1158 1591H1408L976 1255H784L1158 1591ZM502 -23Q364 -23 273 10T127 100T50 233T27 397Q27 454 34 512T53 627Q78 753 124 853T241 1022T413 1128T647 1165Q777 1165 861 1138T994 1065T1062 958T1081 827Q1081 791 1078 750T1068 666T1054 579T1036 494H221Q217 454 217 416Q217 359 232 311T282 228T377 174T524 154Q732 154 868 240L950 88Q849 22 739 0T502 -23ZM877 670Q885 705 889 734T893 797Q893 838 882 872T840 932T759 971T627 985Q539 985 475 959T366 883T290 761Q272 718 258 670H877Z"/><glyph unicode="ê" horiz-adv-x="1188" d="M923 1591H1138L1367 1255H1179L1007 1462L745 1255H550L923 1591ZM502 -23Q364 -23 273 10T127 100T50 233T27 397Q27 454 34 512T53 627Q78 753 124 853T241 1022T413 1128T647 1165Q777 1165 861 1138T994 1065T1062 958T1081 827Q1081 791 1078 750T1068 666T1054 579T1036 494H221Q217 454 217 416Q217 359 232 311T282 228T377 174T524 154Q732 154 868 240L950 88Q849 22 739 0T502 -23ZM877 670Q885 705 889 734T893 797Q893 838 882 872T840 932T759 971T627 985Q539 985 475 959T366 883T290 761Q272 718 258 670H877Z"/><glyph unicode="ë" horiz-adv-x="1188" d="M708 1485H890L843 1255H661L708 1485ZM1123 1485H1306L1259 1255H1076L1123 1485ZM502 -23Q364 -23 273 10T127 100T50 233T27 397Q27 454 34 512T53 627Q78 753 124 853T241 1022T413 1128T647 1165Q777 1165 861 1138T994 1065T1062 958T1081 827Q1081 791 1078 750T1068 666T1054 579T1036 494H221Q217 454 217 416Q217 359 232 311T282 228T377 174T524 154Q732 154 868 240L950 88Q849 22 739 0T502 -23ZM877 670Q885 705 889 734T893 797Q893 838 882 872T840 932T759 971T627 985Q539 985 475 959T366 883T290 761Q272 718 258 670H877Z"/><glyph unicode="ì" horiz-adv-x="516" d="M66 1591H299L436 1255H262L66 1591ZM240 1139H438L197 0H-2L240 1139Z"/><glyph unicode="í" horiz-adv-x="516" d="M561 1591H807L449 1255H262L561 1591ZM240 1139H438L197 0H-2L240 1139Z"/><glyph unicode="î" horiz-adv-x="516" d="M326 1591H541L729 1255H541L410 1462L188 1255H-6L326 1591ZM240 1139H438L197 0H-2L240 1139Z"/><glyph unicode="ï" horiz-adv-x="516" d="M139 1485H309L262 1255H92L139 1485ZM510 1485H680L633 1255H463L510 1485ZM240 1139H438L197 0H-2L240 1139Z"/><glyph unicode="ð" horiz-adv-x="1268" d="M707 1366L849 1401Q845 1407 841 1413Q796 1476 741 1538L936 1616Q988 1560 1033 1491Q1046 1472 1057 1452L1382 1532L1352 1360L1125 1305Q1150 1232 1166 1149Q1186 1047 1186 926Q1186 722 1135 496Q1100 350 1047 251T920 90T751 3T537 -23Q399 -23 303 8T146 97T57 235T29 414Q29 519 53 627Q108 880 242 1004T606 1128Q684 1128 742 1121T845 1099T920 1062T973 1008Q977 1081 962 1149Q950 1204 928 1257L674 1196L707 1366ZM537 158Q621 158 685 179T797 243T878 354T932 516Q943 559 947 600T952 676Q952 737 936 786T883 869T789 923T649 942Q564 942 499 921T386 855T306 743T252 582Q243 538 238 498T233 418Q233 359 249 311T302 229T396 177T537 158Z"/><glyph unicode="ñ" horiz-adv-x="1253" d="M225 1128L385 1139L375 1044Q400 1068 433 1090T510 1128T610 1155T739 1165Q845 1165 916 1147T1032 1096T1095 1017T1119 914T1114 792T1090 657L948 0H750L885 635Q895 680 902 722T910 802T899 870T861 923T785 957T664 969Q578 969 520 944T422 876T361 774T324 649L186 0H-14L225 1128ZM911 1260Q858 1260 817 1276T741 1311T672 1347T600 1364Q577 1364 556 1356T515 1335T477 1305T440 1268L337 1370Q397 1442 463 1485T608 1528Q661 1528 702 1512T778 1477T846 1441T917 1425Q957 1425 993 1452T1073 1528L1177 1425Q1108 1345 1044 1303T911 1260Z"/><glyph unicode="ò" horiz-adv-x="1268" d="M526 -23Q393 -23 299 8T146 96T59 235T31 416Q31 465 36 517T53 627Q84 773 138 875T267 1041T441 1135T662 1165Q795 1165 890 1135T1045 1047T1133 910T1161 729Q1161 680 1155 627T1137 516Q1106 370 1053 268T923 101T748 7T526 -23ZM537 158Q621 158 686 180T799 248T881 366T936 535Q945 578 949 620T954 700Q954 762 938 813T885 900T792 955T651 975Q566 975 501 953T387 883T306 764T252 594Q243 551 238 510T233 426Q233 364 249 315T302 231T396 177T537 158ZM441 1591H672L906 1255H729L441 1591Z"/><glyph unicode="ó" horiz-adv-x="1268" d="M936 1591H1186L754 1255H562L936 1591ZM526 -23Q393 -23 299 8T146 96T59 235T31 416Q31 465 36 517T53 627Q84 773 138 875T267 1041T441 1135T662 1165Q795 1165 890 1135T1045 1047T1133 910T1161 729Q1161 680 1155 627T1137 516Q1106 370 1053 268T923 101T748 7T526 -23ZM537 158Q621 158 686 180T799 248T881 366T936 535Q945 578 949 620T954 700Q954 762 938 813T885 900T792 955T651 975Q566 975 501 953T387 883T306 764T252 594Q243 551 238 510T233 426Q233 364 249 315T302 231T396 177T537 158Z"/><glyph unicode="ô" horiz-adv-x="1268" d="M701 1591H916L1145 1255H957L785 1462L523 1255H328L701 1591ZM526 -23Q393 -23 299 8T146 96T59 235T31 416Q31 465 36 517T53 627Q84 773 138 875T267 1041T441 1135T662 1165Q795 1165 890 1135T1045 1047T1133 910T1161 729Q1161 680 1155 627T1137 516Q1106 370 1053 268T923 101T748 7T526 -23ZM537 158Q621 158 686 180T799 248T881 366T936 535Q945 578 949 620T954 700Q954 762 938 813T885 900T792 955T651 975Q566 975 501 953T387 883T306 764T252 594Q243 551 238 510T233 426Q233 364 249 315T302 231T396 177T537 158Z"/><glyph unicode="õ" horiz-adv-x="1268" d="M526 -23Q393 -23 299 8T146 96T59 235T31 416Q31 465 36 517T53 627Q84 773 138 875T267 1041T441 1135T662 1165Q795 1165 890 1135T1045 1047T1133 910T1161 729Q1161 680 1155 627T1137 516Q1106 370 1053 268T923 101T748 7T526 -23ZM537 158Q621 158 686 180T799 248T881 366T936 535Q945 578 949 620T954 700Q954 762 938 813T885 900T792 955T651 975Q566 975 501 953T387 883T306 764T252 594Q243 551 238 510T233 426Q233 364 249 315T302 231T396 177T537 158ZM920 1260Q867 1260 826 1276T750 1311T681 1347T609 1364Q586 1364 565 1356T524 1335T486 1305T449 1268L346 1370Q406 1442 472 1485T617 1528Q670 1528 711 1512T787 1477T855 1441T926 1425Q966 1425 1002 1452T1082 1528L1186 1425Q1117 1345 1053 1303T920 1260Z"/><glyph unicode="ö" horiz-adv-x="1268" d="M486 1485H668L621 1255H439L486 1485ZM901 1485H1084L1037 1255H854L901 1485ZM526 -23Q393 -23 299 8T146 96T59 235T31 416Q31 465 36 517T53 627Q84 773 138 875T267 1041T441 1135T662 1165Q795 1165 890 1135T1045 1047T1133 910T1161 729Q1161 680 1155 627T1137 516Q1106 370 1053 268T923 101T748 7T526 -23ZM537 158Q621 158 686 180T799 248T881 366T936 535Q945 578 949 620T954 700Q954 762 938 813T885 900T792 955T651 975Q566 975 501 953T387 883T306 764T252 594Q243 551 238 510T233 426Q233 364 249 315T302 231T396 177T537 158Z"/><glyph unicode="÷" horiz-adv-x="1440" d="M537 420H762L715 205H492L537 420ZM223 817H1241L1200 627H182L223 817ZM711 1241H934L889 1026H666L711 1241Z"/><glyph unicode="ø" horiz-adv-x="1268" d="M526 -23Q393 -23 299 8Q270 17 244 29L150 -86H-25L133 109Q83 162 58 235Q31 316 31 416Q31 465 36 517T53 627Q84 773 138 875T267 1041T441 1135T662 1165Q795 1165 890 1134Q919 1125 945 1113L1038 1229H1214L1057 1035Q1108 981 1133 909Q1161 829 1161 729Q1161 680 1155 627T1137 516Q1106 370 1053 268T923 101T748 7T526 -23ZM535 147Q622 147 689 170T805 240T889 360T944 532Q965 625 965 705Q965 769 948 821Q937 853 919 879L355 180Q371 172 390 166Q449 147 535 147ZM797 965Q738 985 653 985Q566 985 499 962T383 890T299 769T244 596Q234 550 229 507T223 422Q223 359 239 308Q248 281 262 258L823 955Q811 961 797 965Z"/><glyph unicode="ù" horiz-adv-x="1239" d="M522 -23Q402 -23 319 -5T182 48T101 131T65 242T65 377T90 532L219 1139H420L289 514Q278 464 270 419T263 334T278 263T323 209T407 174T539 162Q625 162 677 183T760 244T808 340T840 467L983 1139H1178L1032 455Q1005 330 973 240T885 91T743 5T522 -23ZM426 1591H657L891 1255H714L426 1591Z"/><glyph unicode="ú" horiz-adv-x="1239" d="M921 1591H1171L739 1255H547L921 1591ZM522 -23Q402 -23 319 -5T182 48T101 131T65 242T65 377T90 532L219 1139H420L289 514Q278 464 270 419T263 334T278 263T323 209T407 174T539 162Q625 162 677 183T760 244T808 340T840 467L983 1139H1178L1032 455Q1005 330 973 240T885 91T743 5T522 -23Z"/><glyph unicode="û" horiz-adv-x="1239" d="M686 1591H901L1130 1255H942L770 1462L508 1255H313L686 1591ZM522 -23Q402 -23 319 -5T182 48T101 131T65 242T65 377T90 532L219 1139H420L289 514Q278 464 270 419T263 334T278 263T323 209T407 174T539 162Q625 162 677 183T760 244T808 340T840 467L983 1139H1178L1032 455Q1005 330 973 240T885 91T743 5T522 -23Z"/><glyph unicode="ü" horiz-adv-x="1239" d="M471 1485H653L606 1255H424L471 1485ZM886 1485H1069L1022 1255H839L886 1485ZM522 -23Q402 -23 319 -5T182 48T101 131T65 242T65 377T90 532L219 1139H420L289 514Q278 464 270 419T263 334T278 263T323 209T407 174T539 162Q625 162 677 183T760 244T808 340T840 467L983 1139H1178L1032 455Q1005 330 973 240T885 91T743 5T522 -23Z"/><glyph unicode="ý" horiz-adv-x="1073" d="M98 1139H305L432 272L924 1139H1139L403 -113Q365 -180 330 -224T256 -295T168 -333T53 -344H-19Q-37 -344 -52 -344T-76 -342L-43 -180H45Q86 -180 112 -175T156 -158T190 -125T223 -70L278 23L98 1139ZM1103 1591H1353L921 1255H729L1103 1591Z"/><glyph unicode="þ" horiz-adv-x="1303" d="M328 1589H524L408 1051Q433 1079 466 1100T544 1136T646 1157T776 1165Q895 1165 976 1135T1107 1049T1178 919T1200 754Q1200 700 1193 640T1169 516Q1142 390 1101 291T996 123T842 18T627 -18Q530 -18 459 -8T339 21T259 70T215 137L115 -338H-82L328 1589ZM600 162Q682 162 742 185T845 254T917 371T969 535Q978 584 984 628T991 715Q991 774 977 822T930 904T843 956T709 975Q628 975 565 959T455 900T373 786T313 600Q289 498 289 418Q289 353 306 305T361 225T458 178T600 162Z"/><glyph unicode="ÿ" horiz-adv-x="1073" d="M98 1139H305L432 272L924 1139H1139L403 -113Q365 -180 330 -224T256 -295T168 -333T53 -344H-19Q-37 -344 -52 -344T-76 -342L-43 -180H45Q86 -180 112 -175T156 -158T190 -125T223 -70L278 23L98 1139ZM653 1485H835L788 1255H606L653 1485ZM1068 1485H1251L1204 1255H1021L1068 1485Z"/><glyph unicode="Ā" horiz-adv-x="1473" d="M795 1528H999L1260 0H1053L999 319H295L106 0H-117L795 1528ZM971 510L846 1262L401 510H971ZM574 1773H1317L1284 1603H539L574 1773Z"/><glyph unicode="ā" horiz-adv-x="1251" d="M375 -20Q260 -20 184 2T63 64T0 160T-18 285Q-18 422 29 510T169 650T397 721T709 741H857Q868 798 868 846Q868 880 856 905T815 946T735 971T606 979Q569 979 527 973T444 958T365 935T299 907L219 1069Q253 1089 299 1106T401 1137T517 1157T641 1165Q751 1165 827 1151T953 1110T1028 1042T1060 947T1060 825T1034 676L954 303Q946 263 943 238T948 199T977 180T1040 176L1006 2Q996 -1 973 -1T920 -2Q884 -2 857 3T812 22T783 58T770 115Q711 47 614 14T375 -20ZM453 562Q359 553 299 525T210 444T182 305Q182 270 193 242T233 193T308 163T426 152Q511 152 573 170T680 231T755 339T807 502L821 571H682Q548 571 453 562ZM396 1425H1139L1106 1255H361L396 1425Z"/><glyph unicode="Ă" horiz-adv-x="1473" d="M795 1528H999L1260 0H1053L999 319H295L106 0H-117L795 1528ZM971 510L846 1262L401 510H971ZM938 1585Q827 1585 759 1612T653 1687T603 1796T590 1929L746 1950Q746 1904 752 1867T780 1805T840 1765T944 1751Q1008 1751 1052 1765T1128 1804T1181 1867T1221 1950L1366 1921Q1343 1851 1308 1790T1222 1683T1101 1611T938 1585Z"/><glyph unicode="ă" horiz-adv-x="1251" d="M375 -20Q260 -20 184 2T63 64T0 160T-18 285Q-18 422 29 510T169 650T397 721T709 741H857Q868 798 868 846Q868 880 856 905T815 946T735 971T606 979Q569 979 527 973T444 958T365 935T299 907L219 1069Q253 1089 299 1106T401 1137T517 1157T641 1165Q751 1165 827 1151T953 1110T1028 1042T1060 947T1060 825T1034 676L954 303Q946 263 943 238T948 199T977 180T1040 176L1006 2Q996 -1 973 -1T920 -2Q884 -2 857 3T812 22T783 58T770 115Q711 47 614 14T375 -20ZM453 562Q359 553 299 525T210 444T182 305Q182 270 193 242T233 193T308 163T426 152Q511 152 573 170T680 231T755 339T807 502L821 571H682Q548 571 453 562ZM760 1237Q649 1237 581 1264T475 1339T425 1448T412 1581L568 1602Q568 1556 574 1519T602 1457T662 1417T766 1403Q830 1403 874 1417T950 1456T1003 1519T1043 1602L1188 1573Q1165 1503 1130 1442T1044 1335T923 1263T760 1237Z"/><glyph unicode="Ą" horiz-adv-x="1473" d="M795 1528H999L1260 0H1188Q1144 -25 1106 -53T1039 -113T994 -177T977 -242Q977 -282 1003 -299T1092 -317Q1127 -317 1158 -310T1221 -287L1274 -414Q1176 -457 1061 -457Q988 -457 939 -445T860 -409T818 -352T805 -276Q805 -225 825 -179T878 -93T954 -20T1044 39L999 319H295L106 0H-117L795 1528ZM971 510L846 1262L401 510H971Z"/><glyph unicode="ą" horiz-adv-x="1251" d="M375 -20Q260 -20 184 2T63 64T0 160T-18 285Q-18 422 29 510T169 650T397 721T709 741H856Q868 796 868 846Q868 880 856 905T815 946T735 971T606 979Q569 979 527 973T444 958T365 935T299 907L219 1069Q253 1089 299 1106T401 1137T517 1157T641 1165Q751 1165 827 1151T953 1110T1028 1042T1060 947T1060 825T1034 676L954 303Q946 263 943 238T948 199T977 180T1040 176L1006 2Q1005 2 1004 1V0Q957 -25 914 -53T837 -113T784 -176T764 -242Q764 -280 790 -298T885 -317Q960 -317 1022 -287L1077 -414Q1029 -435 972 -446T856 -457Q778 -457 727 -445T646 -411T603 -356T590 -285Q590 -232 610 -186T662 -100T733 -31T813 20Q803 28 795 39Q784 51 779 70T770 115Q711 47 614 14T375 -20ZM426 152Q511 152 573 170T680 231T755 339T807 502L821 571H682Q548 571 454 562T299 525T210 444T182 305Q182 270 193 242T233 193T308 163T426 152Z"/><glyph unicode="Ć" horiz-adv-x="1462" d="M1106 1939H1356L924 1603H732L1106 1939ZM721 -23Q550 -23 426 18T220 137T100 323T61 569Q61 691 88 834Q131 1036 211 1171T399 1389T638 1507T915 1542Q1030 1542 1119 1524T1276 1476T1395 1406T1483 1323L1307 1182Q1245 1254 1147 1298T907 1343Q791 1343 693 1313T516 1218T382 1051T295 805Q283 749 278 697T272 596Q272 498 300 420T385 286T531 202T739 172Q804 172 859 180T961 204T1051 243T1133 299L1260 145Q1210 103 1154 72T1032 19T889 -12T721 -23Z"/><glyph unicode="ć" horiz-adv-x="1124" d="M1127 1591H1377L945 1255H753L1127 1591ZM506 -20Q371 -20 280 12T134 100T55 234T31 403Q31 459 36 514T53 627Q80 757 127 857T246 1025T419 1129T655 1165Q749 1165 818 1150T939 1109T1025 1050T1087 981L920 848Q904 869 883 891T831 931T753 961T641 973Q560 973 497 952T387 884T306 766T252 594Q244 552 239 508T233 422Q233 363 248 314T296 231T385 177T520 158Q559 158 593 162T661 176T729 204T799 248L911 115Q862 76 813 50T715 9T613 -13T506 -20Z"/><glyph unicode="Č" horiz-adv-x="1462" d="M570 1939H756L930 1732L1190 1939H1387L1016 1603H799L570 1939ZM721 -23Q550 -23 426 18T220 137T100 323T61 569Q61 691 88 834Q131 1036 211 1171T399 1389T638 1507T915 1542Q1030 1542 1119 1524T1276 1476T1395 1406T1483 1323L1307 1182Q1245 1254 1147 1298T907 1343Q791 1343 693 1313T516 1218T382 1051T295 805Q283 749 278 697T272 596Q272 498 300 420T385 286T531 202T739 172Q804 172 859 180T961 204T1051 243T1133 299L1260 145Q1210 103 1154 72T1032 19T889 -12T721 -23Z"/><glyph unicode="č" horiz-adv-x="1124" d="M591 1591H777L951 1384L1211 1591H1408L1037 1255H820L591 1591ZM506 -20Q371 -20 280 12T134 100T55 234T31 403Q31 459 36 514T53 627Q80 757 127 857T246 1025T419 1129T655 1165Q749 1165 818 1150T939 1109T1025 1050T1087 981L920 848Q904 869 883 891T831 931T753 961T641 973Q560 973 497 952T387 884T306 766T252 594Q244 552 239 508T233 422Q233 363 248 314T296 231T385 177T520 158Q559 158 593 162T661 176T729 204T799 248L911 115Q862 76 813 50T715 9T613 -13T506 -20Z"/><glyph unicode="Ď" horiz-adv-x="1532" d="M600 1941H786L960 1734L1220 1941H1417L1046 1605H829L600 1941ZM334 1518H694Q904 1518 1051 1487T1293 1391T1430 1226T1473 985Q1473 917 1465 841T1436 678Q1405 533 1362 426T1261 244T1134 121T981 47T802 10T596 0H10L334 1518ZM600 190Q738 190 840 211T1018 290T1144 448T1229 707Q1244 776 1253 838T1262 956Q1262 1050 1233 1118T1136 1232T960 1299T692 1321H502L256 190H600Z"/><glyph unicode="ď" horiz-adv-x="1540" d="M1403 1204Q1443 1223 1469 1238T1511 1270T1537 1306T1552 1354H1452L1501 1589H1714L1679 1415Q1665 1350 1649 1305T1605 1226T1538 1165T1436 1110L1403 1204ZM451 -18Q331 -18 250 12T119 97T48 227T27 391Q27 447 34 507T57 631Q85 757 125 856T229 1024T383 1129T600 1165Q694 1165 764 1155T883 1125T961 1076T1006 1008L1133 1589H1333L995 8L840 -6L854 102Q822 68 782 45T693 8T583 -12T451 -18ZM518 162Q599 162 662 178T772 237T854 351T913 537Q936 637 936 719Q936 785 919 833T865 914T768 961T625 977Q543 977 483 954T380 883T308 766T258 602Q247 553 242 508T236 420Q236 362 250 315T296 233T383 181T518 162Z"/><glyph unicode="Đ" horiz-adv-x="1532" d="M25 866H194L334 1518H694Q904 1518 1051 1487T1293 1391T1430 1226T1473 985Q1473 917 1465 841T1436 678Q1405 533 1362 426T1261 244T1134 121T981 47T802 10T596 0H10L158 694H-12L25 866ZM600 190Q738 190 840 211T1018 290T1144 448T1229 707Q1244 776 1253 838T1262 956Q1262 1050 1233 1118T1136 1232T960 1299T692 1321H502L403 866H729L692 694H365L256 190H600Z"/><glyph unicode="đ" horiz-adv-x="1303" d="M451 -18Q331 -18 250 12T119 97T48 227T27 391Q27 447 34 507T57 631Q85 757 125 856T229 1024T383 1129T600 1165Q694 1165 764 1155T883 1125T961 1076T1006 1008L1061 1260H786L819 1436H1099L1133 1589H1333L1300 1436H1481L1444 1260H1262L995 8L840 -6L854 102Q822 68 782 45T693 8T583 -12T451 -18ZM518 162Q599 162 662 178T772 237T854 351T913 537Q936 637 936 719Q936 785 919 833T865 914T768 961T625 977Q543 977 483 954T380 883T308 766T258 602Q247 553 242 508T236 420Q236 362 250 315T296 233T383 181T518 162Z"/><glyph unicode="Ē" horiz-adv-x="1300" d="M334 1518H1341L1300 1319H500L401 883H1182L1143 686H365L256 190H1065L1026 0H10L334 1518ZM492 1773H1235L1202 1603H457L492 1773Z"/><glyph unicode="ē" horiz-adv-x="1188" d="M502 -23Q364 -23 273 10T127 100T50 233T27 397Q27 454 34 512T53 627Q78 753 124 853T241 1022T413 1128T647 1165Q777 1165 861 1138T994 1065T1062 958T1081 827Q1081 791 1078 750T1068 666T1054 579T1036 494H221Q217 454 217 416Q217 359 232 311T282 228T377 174T524 154Q732 154 868 240L950 88Q849 22 739 0T502 -23ZM877 670Q885 705 889 734T893 797Q893 838 882 872T840 932T759 971T627 985Q539 985 475 959T366 883T290 761Q272 718 258 670H877ZM622 1425H1365L1332 1255H587L622 1425Z"/><glyph unicode="Ė" horiz-adv-x="1300" d="M334 1518H1341L1300 1319H500L401 883H1182L1143 686H365L256 190H1065L1026 0H10L334 1518ZM778 1843H979L930 1603H727L778 1843Z"/><glyph unicode="ė" horiz-adv-x="1188" d="M502 -23Q364 -23 273 10T127 100T50 233T27 397Q27 454 34 512T53 627Q78 753 124 853T241 1022T413 1128T647 1165Q777 1165 861 1138T994 1065T1062 958T1081 827Q1081 791 1078 750T1068 666T1054 579T1036 494H221Q217 454 217 416Q217 359 232 311T282 228T377 174T524 154Q732 154 868 240L950 88Q849 22 739 0T502 -23ZM877 670Q885 705 889 734T893 797Q893 838 882 872T840 932T759 971T627 985Q539 985 475 959T366 883T290 761Q272 718 258 670H877ZM908 1495H1109L1060 1255H857L908 1495Z"/><glyph unicode="Ę" horiz-adv-x="1300" d="M334 1518H1341L1300 1319H500L401 883H1182L1143 686H365L256 190H1065L1026 0H854Q802 -29 758 -59T683 -122T634 -188T616 -258Q616 -275 622 -290T646 -316T692 -333T768 -340Q803 -340 846 -332T928 -309L948 -414Q905 -437 846 -450T731 -463Q650 -463 599 -451T518 -417T477 -368T465 -307Q465 -246 488 -198T548 -112T628 -47T711 0H10L334 1518Z"/><glyph unicode="ę" horiz-adv-x="1188" d="M502 -23Q364 -23 273 10T127 100T50 233T27 397Q27 454 34 512T53 627Q78 753 124 853T241 1022T413 1128T647 1165Q777 1165 861 1138T994 1065T1062 958T1081 827Q1081 791 1078 750T1068 666T1054 579T1036 494H221Q219 474 218 454T217 416Q217 359 232 311T282 228T377 174T524 154Q732 154 868 240L950 88Q847 21 735 0Q684 -29 641 -59T566 -122T518 -188T500 -258Q500 -275 506 -290T529 -316T575 -333T651 -340Q686 -340 729 -332T811 -309L831 -414Q788 -437 729 -450T614 -463Q533 -463 482 -451T401 -417T360 -368T348 -307Q348 -254 366 -211T413 -132T479 -69T553 -20Q541 -22 528 -22T502 -23ZM627 985Q549 985 490 964T386 902T310 803T258 670H877Q885 705 889 734T893 797Q893 838 882 872T840 932T759 971T627 985Z"/><glyph unicode="Ě" horiz-adv-x="1300" d="M492 1939H678L852 1732L1112 1939H1309L938 1603H721L492 1939ZM334 1518H1341L1300 1319H500L401 883H1182L1143 686H365L256 190H1065L1026 0H10L334 1518Z"/><glyph unicode="ě" horiz-adv-x="1188" d="M622 1591H808L982 1384L1242 1591H1439L1068 1255H851L622 1591ZM502 -23Q364 -23 273 10T127 100T50 233T27 397Q27 454 34 512T53 627Q78 753 124 853T241 1022T413 1128T647 1165Q777 1165 861 1138T994 1065T1062 958T1081 827Q1081 791 1078 750T1068 666T1054 579T1036 494H221Q217 454 217 416Q217 359 232 311T282 228T377 174T524 154Q732 154 868 240L950 88Q849 22 739 0T502 -23ZM877 670Q885 705 889 734T893 797Q893 838 882 872T840 932T759 971T627 985Q539 985 475 959T366 883T290 761Q272 718 258 670H877Z"/><glyph unicode="Ğ" horiz-adv-x="1573" d="M737 -23Q562 -23 435 17T224 134T101 319T61 567Q61 640 67 704T88 834Q127 1024 202 1158T382 1378T619 1502T905 1542Q1030 1542 1127 1522T1296 1469T1418 1396T1499 1317L1323 1174Q1300 1201 1267 1230T1184 1285T1063 1326T893 1343Q779 1343 682 1312T508 1216T376 1049T291 805Q280 754 275 700T270 594Q270 492 298 412T384 276T534 191T750 162Q876 162 959 187T1097 268T1183 409T1241 618L1247 657H791L829 846H1497L1456 639Q1431 515 1401 418T1330 247T1236 122T1111 39T947 -8T737 -23ZM989 1587Q878 1587 810 1614T704 1689T654 1798T641 1931L797 1952Q797 1906 803 1869T831 1807T891 1767T995 1753Q1059 1753 1103 1767T1179 1806T1232 1869T1272 1952L1417 1923Q1394 1853 1359 1792T1273 1685T1152 1613T989 1587Z"/><glyph unicode="ğ" horiz-adv-x="1221" d="M571 416Q447 416 360 438Q345 441 331 446Q325 439 320 432Q299 404 299 360Q299 343 303 330T320 307T357 292T420 287Q571 285 681 273T863 229T969 144T1004 8Q1004 -105 965 -178T850 -293T661 -351T401 -367Q264 -367 163 -351T-4 -301T-102 -214T-135 -86Q-135 -16 -113 37T-51 128T44 189T164 223Q139 246 129 280T119 350Q119 385 129 416T158 475Q175 498 195 519Q157 553 138 599Q113 657 113 729Q113 843 144 925T238 1061T395 1140T614 1165Q651 1165 692 1163Q715 1162 738 1160L1184 1225L1155 1051H972Q1004 1024 1025 984Q1063 916 1063 825Q1063 615 939 516T571 416ZM430 -209Q523 -210 591 -202T705 -173T773 -113T795 -16Q795 27 771 54T695 97T566 117T379 123Q287 123 229 111T137 74T91 17T78 -59Q78 -95 98 -123T162 -170T271 -199T430 -209ZM573 582Q717 582 790 640T864 823Q864 863 850 893T805 944T724 974T602 985Q459 985 385 927T311 737Q311 700 323 672T366 623T446 593T573 582ZM741 1237Q630 1237 562 1264T456 1339T406 1448T393 1581L549 1602Q549 1556 555 1519T583 1457T643 1417T747 1403Q811 1403 855 1417T931 1456T984 1519T1024 1602L1169 1573Q1146 1503 1111 1442T1025 1335T904 1263T741 1237Z"/><glyph unicode="Ģ" horiz-adv-x="1573" d="M409 -465Q448 -447 474 -431T516 -398T542 -361T557 -313H448L495 -80H719L684 -254Q670 -319 654 -365T612 -446T544 -507T440 -557L409 -465ZM737 -23Q562 -23 435 17T224 134T101 319T61 567Q61 640 67 704T88 834Q127 1024 202 1158T382 1378T619 1502T905 1542Q1030 1542 1127 1522T1296 1469T1418 1396T1499 1317L1323 1174Q1300 1201 1267 1230T1184 1285T1063 1326T893 1343Q779 1343 682 1312T508 1216T376 1049T291 805Q280 754 275 700T270 594Q270 492 298 412T384 276T534 191T750 162Q876 162 959 187T1097 268T1183 409T1241 618L1247 657H791L829 846H1497L1456 639Q1431 515 1401 418T1330 247T1236 122T1111 39T947 -8T737 -23Z"/><glyph unicode="ģ" horiz-adv-x="1221" d="M615 1411Q629 1476 645 1523T689 1605T757 1666T861 1716L889 1622Q850 1604 825 1589T783 1557T757 1520T742 1473H850L805 1255H582L615 1411ZM571 416Q447 416 360 438Q345 441 331 446Q325 439 320 432Q299 404 299 360Q299 343 303 330T320 307T357 292T420 287Q571 285 681 273T863 229T969 144T1004 8Q1004 -105 965 -178T850 -293T661 -351T401 -367Q264 -367 163 -351T-4 -301T-102 -214T-135 -86Q-135 -16 -113 37T-51 128T44 189T164 223Q139 246 129 280T119 350Q119 385 129 416T158 475Q175 498 195 519Q157 553 138 599Q113 657 113 729Q113 843 144 925T238 1061T395 1140T614 1165Q651 1165 692 1163Q715 1162 738 1160L1184 1225L1155 1051H972Q1004 1024 1025 984Q1063 916 1063 825Q1063 615 939 516T571 416ZM430 -209Q523 -210 591 -202T705 -173T773 -113T795 -16Q795 27 771 54T695 97T566 117T379 123Q287 123 229 111T137 74T91 17T78 -59Q78 -95 98 -123T162 -170T271 -199T430 -209ZM573 582Q717 582 790 640T864 823Q864 863 850 893T805 944T724 974T602 985Q459 985 385 927T311 737Q311 700 323 672T366 623T446 593T573 582Z"/><glyph unicode="Ī" horiz-adv-x="582" d="M350 1518H559L236 0H27L350 1518ZM136 1773H879L846 1603H101L136 1773Z"/><glyph unicode="ī" horiz-adv-x="516" d="M240 1139H438L197 0H-2L240 1139ZM32 1425H775L742 1255H-3L32 1425Z"/><glyph unicode="Į" horiz-adv-x="582" d="M86 -459Q8 -459 -44 -447T-126 -412T-169 -357T-182 -287Q-182 -235 -163 -190T-113 -107T-45 -41T29 8L350 1518H559L236 0H233Q187 -26 144 -54T67 -114T13 -177T-8 -242Q-8 -282 19 -300T115 -319Q146 -319 181 -313T254 -289L307 -414Q215 -459 86 -459Z"/><glyph unicode="į" horiz-adv-x="516" d="M49 -459Q-29 -459 -81 -447T-163 -412T-206 -357T-219 -287Q-219 -232 -199 -186T-146 -102T-75 -35T0 14L240 1139H438L197 0Q151 -26 108 -54T30 -114T-24 -177T-45 -242Q-45 -282 -18 -300T78 -319Q147 -319 215 -289L268 -416Q223 -436 169 -447T49 -459ZM319 1518H520L469 1276H268L319 1518Z"/><glyph unicode="İ" horiz-adv-x="582" d="M350 1518H559L236 0H27L350 1518ZM422 1845H623L574 1605H371L422 1845Z"/><glyph unicode="ı" horiz-adv-x="516" d="M240 1139H438L197 0H-2L240 1139Z"/><glyph unicode="Ķ" horiz-adv-x="1432" d="M340 -465Q379 -447 405 -431T447 -398T473 -361T488 -313H379L426 -80H650L615 -254Q601 -319 585 -365T543 -446T475 -507T371 -557L340 -465ZM334 1518H539L376 755L1192 1518H1450L819 927L1200 0H983L657 783L315 469L215 0H10L334 1518Z"/><glyph unicode="ķ" horiz-adv-x="1102" d="M174 -465Q213 -447 239 -431T281 -398T307 -361T322 -313H213L260 -80H484L449 -254Q435 -319 419 -365T377 -446T309 -507T205 -557L174 -465ZM328 1589H524L310 583L887 1139H1110L626 668L911 0H702L475 521L250 302L186 0H-10L328 1589Z"/><glyph unicode="Ĺ" horiz-adv-x="1178" d="M885 1939H1135L703 1603H511L885 1939ZM334 1518H541L256 190H1008L969 0H10L334 1518Z"/><glyph unicode="ĺ" horiz-adv-x="625" d="M736 1999H986L554 1663H362L736 1999ZM266 -2Q187 -2 140 17T70 77T48 179T66 326L336 1589H535L264 317Q255 277 253 250T260 207T293 183T358 176H403L369 2Q355 0 326 -1T266 -2Z"/><glyph unicode="Ļ" horiz-adv-x="1178" d="M211 -465Q250 -447 276 -431T318 -398T344 -361T359 -313H250L297 -80H521L486 -254Q472 -319 456 -365T414 -446T346 -507T242 -557L211 -465ZM334 1518H541L256 190H1008L969 0H10L334 1518Z"/><glyph unicode="ļ" horiz-adv-x="625" d="M-64 -465Q-25 -447 1 -431T43 -398T69 -361T84 -313H-25L22 -80H246L211 -254Q197 -319 181 -365T139 -446T71 -507T-33 -557L-64 -465ZM266 -2Q187 -2 140 17T70 77T48 179T66 326L336 1589H535L264 317Q255 277 253 250T260 207T293 183T358 176H403L369 2Q355 0 326 -1T266 -2Z"/><glyph unicode="Ľ" horiz-adv-x="1178" d="M664 1204Q703 1223 729 1238T771 1270T797 1306T813 1354H713L762 1589H975L940 1415Q926 1350 910 1305T866 1226T798 1165T696 1110L664 1204ZM334 1518H541L256 190H1008L969 0H10L334 1518Z"/><glyph unicode="ľ" horiz-adv-x="752" d="M614 1204Q653 1223 678 1238T720 1270T746 1306T762 1354H662L711 1589H924L889 1415Q875 1350 859 1305T815 1226T747 1165T645 1110L614 1204ZM266 -2Q187 -2 140 17T70 77T48 179T66 326L336 1589H535L264 317Q255 277 253 250T260 207T293 183T358 176H403L369 2Q355 0 326 -1T266 -2Z"/><glyph unicode="Ł" horiz-adv-x="1194" d="M6 776L196 870L334 1518H541L426 985L795 1169L756 987L387 803L256 190H1022L985 0H10L157 688L-31 594L6 776Z"/><glyph unicode="ł" horiz-adv-x="752" d="M352 -2Q274 -2 226 17T156 76T133 176T152 319L270 874L47 760L84 932L306 1047L422 1589H623L531 1163L774 1288L737 1114L494 989L348 311Q340 270 339 243T346 199T379 175T444 168H492L455 2Q441 0 411 -1T352 -2Z"/><glyph unicode="Ń" horiz-adv-x="1577" d="M1163 1939H1413L981 1603H789L1163 1939ZM334 1518H559L1118 348L1372 1518H1569L1245 0H1057L469 1217L207 0H10L334 1518Z"/><glyph unicode="ń" horiz-adv-x="1253" d="M927 1591H1177L745 1255H553L927 1591ZM437 1128L597 1139L587 1044Q612 1068 645 1090T722 1128T822 1155T951 1165Q1057 1165 1128 1147T1244 1096T1307 1017T1331 914T1326 792T1302 657L1160 0H962L1097 635Q1107 680 1114 722T1122 802T1111 870T1073 923T997 957T876 969Q790 969 732 944T634 876T573 774T536 649L398 0H198L437 1128Z"/><glyph unicode="Ņ" horiz-adv-x="1577" d="M409 -465Q448 -447 474 -431T516 -398T542 -361T557 -313H448L495 -80H719L684 -254Q670 -319 654 -365T612 -446T544 -507T440 -557L409 -465ZM334 1518H559L1118 348L1372 1518H1569L1245 0H1057L469 1217L207 0H10L334 1518Z"/><glyph unicode="ņ" horiz-adv-x="1253" d="M247 -465Q286 -447 312 -431T354 -398T380 -361T395 -313H286L333 -80H557L522 -254Q508 -319 492 -365T450 -446T382 -507T278 -557L247 -465ZM225 1128L385 1139L375 1044Q400 1068 433 1090T510 1128T610 1155T739 1165Q845 1165 916 1147T1032 1096T1095 1017T1119 914T1114 792T1090 657L948 0H750L885 635Q895 680 902 722T910 802T899 870T861 923T785 957T664 969Q578 969 520 944T422 876T361 774T324 649L186 0H-14L225 1128Z"/><glyph unicode="Ň" horiz-adv-x="1577" d="M627 1939H813L987 1732L1247 1939H1444L1073 1603H856L627 1939ZM334 1518H559L1118 348L1372 1518H1569L1245 0H1057L469 1217L207 0H10L334 1518Z"/><glyph unicode="ň" horiz-adv-x="1253" d="M391 1591H577L751 1384L1011 1591H1208L837 1255H620L391 1591ZM225 1128L385 1139L375 1044Q400 1068 433 1090T510 1128T610 1155T739 1165Q845 1165 916 1147T1032 1096T1095 1017T1119 914T1114 792T1090 657L948 0H750L885 635Q895 680 902 722T910 802T899 870T861 923T785 957T664 969Q578 969 520 944T422 876T361 774T324 649L186 0H-14L225 1128Z"/><glyph unicode="Ō" horiz-adv-x="1688" d="M684 1773H1427L1394 1603H649L684 1773ZM764 -25Q593 -25 463 15T243 133T109 325T63 588Q61 647 68 709T90 840Q119 977 166 1082T274 1266T410 1397T567 1482T741 1528T926 1542Q1096 1542 1227 1502T1446 1385T1580 1194T1626 934Q1626 874 1620 812T1597 684Q1567 546 1521 440T1413 256T1278 123T1122 37T949 -10T764 -25ZM766 168Q887 168 988 198T1168 293T1302 459T1389 702Q1401 755 1407 806T1413 905Q1413 1005 1385 1086T1295 1224T1140 1312T915 1343Q794 1343 693 1312T514 1216T381 1051T297 811Q285 758 280 707T274 606Q274 507 302 426T391 288T544 200T766 168Z"/><glyph unicode="ō" horiz-adv-x="1268" d="M400 1425H1143L1110 1255H365L400 1425ZM526 -23Q393 -23 299 8T146 96T59 235T31 416Q31 465 36 517T53 627Q84 773 138 875T267 1041T441 1135T662 1165Q795 1165 890 1135T1045 1047T1133 910T1161 729Q1161 680 1155 627T1137 516Q1106 370 1053 268T923 101T748 7T526 -23ZM537 158Q621 158 686 180T799 248T881 366T936 535Q945 578 949 620T954 700Q954 762 938 813T885 900T792 955T651 975Q566 975 501 953T387 883T306 764T252 594Q243 551 238 510T233 426Q233 364 249 315T302 231T396 177T537 158Z"/><glyph unicode="Ő" horiz-adv-x="1688" d="M905 1939H1140L751 1603H575L905 1939ZM1394 1939H1628L1239 1603H1065L1394 1939ZM764 -25Q593 -25 463 15T243 133T109 325T63 588Q61 647 68 709T90 840Q119 977 166 1082T274 1266T410 1397T567 1482T741 1528T926 1542Q1096 1542 1227 1502T1446 1385T1580 1194T1626 934Q1626 874 1620 812T1597 684Q1567 546 1521 440T1413 256T1278 123T1122 37T949 -10T764 -25ZM766 168Q887 168 988 198T1168 293T1302 459T1389 702Q1401 755 1407 806T1413 905Q1413 1005 1385 1086T1295 1224T1140 1312T915 1343Q794 1343 693 1312T514 1216T381 1051T297 811Q285 758 280 707T274 606Q274 507 302 426T391 288T544 200T766 168Z"/><glyph unicode="ő" horiz-adv-x="1268" d="M621 1591H856L467 1255H291L621 1591ZM1110 1591H1344L955 1255H781L1110 1591ZM526 -23Q393 -23 299 8T146 96T59 235T31 416Q31 465 36 517T53 627Q84 773 138 875T267 1041T441 1135T662 1165Q795 1165 890 1135T1045 1047T1133 910T1161 729Q1161 680 1155 627T1137 516Q1106 370 1053 268T923 101T748 7T526 -23ZM537 158Q621 158 686 180T799 248T881 366T936 535Q945 578 949 620T954 700Q954 762 938 813T885 900T792 955T651 975Q566 975 501 953T387 883T306 764T252 594Q243 551 238 510T233 426Q233 364 249 315T302 231T396 177T537 158Z"/><glyph unicode="Œ" horiz-adv-x="2529" d="M764 -25Q593 -25 463 15T243 133T109 325T63 588Q61 647 68 709T90 840Q119 977 166 1082T274 1266T410 1397T568 1482T741 1528T926 1542Q1096 1542 1222 1502T1431 1384Q1493 1327 1532 1250L1589 1518H2566L2523 1319H1735L1640 879H2408L2370 688H1599L1491 190H2290L2251 0H1266L1307 193Q1278 161 1247 134Q1149 50 1029 13T764 -25ZM766 168Q887 168 988 198T1168 293T1302 459T1389 702Q1401 755 1407 806T1413 905Q1413 1005 1385 1086T1295 1224T1140 1312T915 1343Q794 1343 693 1312T514 1216T381 1051T297 811Q285 758 280 707T274 606Q274 507 302 426T391 288T544 200T766 168Z"/><glyph unicode="œ" horiz-adv-x="2083" d="M1399 -23Q1261 -23 1173 10T1034 100Q1002 136 983 180Q950 135 911 100Q839 36 743 7T524 -23Q392 -23 298 8T145 96T57 235T29 416Q29 465 35 517T53 627Q84 773 138 875T267 1041T441 1135T662 1165Q795 1165 886 1135T1034 1047Q1073 1008 1097 958Q1121 993 1149 1022Q1217 1091 1313 1128T1544 1165Q1674 1165 1757 1139T1889 1066T1957 959T1976 827Q1976 791 1973 750T1963 666T1950 579T1933 494H1118Q1114 454 1114 416Q1114 359 1129 311T1179 228T1273 174T1419 154Q1629 154 1765 240L1845 88Q1794 55 1742 34T1635 0T1521 -18T1399 -23ZM535 158Q619 158 684 180T798 248T880 366T934 535Q945 578 949 620T954 700Q954 762 938 813T885 900T792 955T651 975Q566 975 501 953T387 883T306 764T252 594Q231 508 231 426Q231 364 247 315T300 231T394 177T535 158ZM1774 668Q1780 703 1784 733T1788 797Q1788 838 1777 872T1735 932T1654 971T1524 985Q1436 985 1372 959T1262 883T1186 761Q1168 718 1154 668H1774Z"/><glyph unicode="Ŕ" horiz-adv-x="1458" d="M1106 1939H1356L924 1603H732L1106 1939ZM334 1518H872Q1026 1518 1131 1490T1302 1413T1395 1298T1423 1153Q1423 1023 1390 918T1287 739T1113 624Q1037 595 942 587L1155 0H944L730 584H338L213 0H10L334 1518ZM860 774Q941 774 1005 793T1115 852T1184 957T1208 1112Q1208 1221 1123 1273T856 1325H498L377 774H860Z"/><glyph unicode="ŕ" horiz-adv-x="721" d="M683 1591H933L501 1255H309L683 1591ZM227 1128L387 1139L371 1016Q419 1079 513 1116T756 1153L715 956Q616 956 548 932T434 863T361 755T317 614L186 0H-10L227 1128Z"/><glyph unicode="Ŗ" horiz-adv-x="1458" d="M354 -465Q393 -447 419 -431T461 -398T487 -361T502 -313H393L440 -80H664L629 -254Q615 -319 599 -365T557 -446T489 -507T385 -557L354 -465ZM334 1518H872Q1026 1518 1131 1490T1302 1413T1395 1298T1423 1153Q1423 1023 1390 918T1287 739T1113 624Q1037 595 942 587L1155 0H944L730 584H338L213 0H10L334 1518ZM860 774Q941 774 1005 793T1115 852T1184 957T1208 1112Q1208 1221 1123 1273T856 1325H498L377 774H860Z"/><glyph unicode="ŗ" horiz-adv-x="721" d="M130 -465Q169 -447 195 -431T237 -398T263 -361T278 -313H169L216 -80H440L405 -254Q391 -319 375 -365T333 -446T265 -507T161 -557L130 -465ZM227 1128L387 1139L371 1016Q419 1079 513 1116T756 1153L715 956Q616 956 548 932T434 863T361 755T317 614L186 0H-10L227 1128Z"/><glyph unicode="Ř" horiz-adv-x="1458" d="M570 1939H756L930 1732L1190 1939H1387L1016 1603H799L570 1939ZM334 1518H872Q1026 1518 1131 1490T1302 1413T1395 1298T1423 1153Q1423 1023 1390 918T1287 739T1113 624Q1037 595 942 587L1155 0H944L730 584H338L213 0H10L334 1518ZM860 774Q941 774 1005 793T1115 852T1184 957T1208 1112Q1208 1221 1123 1273T856 1325H498L377 774H860Z"/><glyph unicode="ř" horiz-adv-x="702" d="M124 1591H310L484 1384L744 1591H941L570 1255H353L124 1591ZM227 1128L387 1139L371 1016Q419 1079 513 1116T756 1153L715 956Q616 956 548 932T434 863T361 755T317 614L186 0H-10L227 1128Z"/><glyph unicode="Ś" horiz-adv-x="1419" d="M1085 1939H1335L903 1603H711L1085 1939ZM631 -20Q512 -20 414 -5T231 37T76 102T-57 186L74 340Q187 254 324 208T641 162Q719 162 790 173T915 214T1000 294T1032 422Q1032 485 1007 524T935 591T819 639T662 688Q567 716 484 745T340 818T244 926T209 1090Q209 1177 230 1244T289 1362T379 1446T493 1502T624 1532T766 1542Q885 1542 977 1527T1140 1488T1264 1434T1356 1374L1221 1214Q1187 1240 1143 1265T1041 1309T914 1340T758 1352Q688 1352 627 1340T520 1300T448 1224T422 1106Q422 1052 446 1016T513 954T617 908T752 868Q861 838 951 808T1106 733T1207 625T1243 463Q1243 327 1195 235T1065 86T870 5T631 -20Z"/><glyph unicode="ś" horiz-adv-x="1057" d="M1090 1591H1340L908 1255H716L1090 1591ZM442 -20Q284 -20 153 25T-72 150L57 291Q138 228 243 191T461 154Q511 154 554 161T630 187T681 242T700 334Q700 371 680 397T625 442T547 475T455 502Q396 519 336 539T227 593T148 676T117 801Q117 898 150 967T241 1080T381 1144T561 1165Q642 1165 709 1155T832 1127T932 1086T1010 1038L883 883Q857 900 825 917T751 949T660 972T547 981Q439 981 381 945T322 825Q322 790 341 766T393 723T469 690T561 662Q624 643 685 621T794 565T871 480T901 354Q901 245 866 173T768 58T622 -2T442 -20Z"/><glyph unicode="Ş" horiz-adv-x="1419" d="M631 -20Q512 -20 414 -5T231 37T76 102T-57 186L74 340Q187 254 324 208T641 162Q719 162 790 173T915 214T1000 294T1032 422Q1032 485 1007 524T935 591T819 639T662 688Q567 716 484 745T340 818T244 926T209 1090Q209 1177 230 1244T289 1362T379 1446T493 1502T624 1532T766 1542Q885 1542 977 1527T1140 1488T1264 1434T1356 1374L1221 1214Q1187 1240 1143 1265T1041 1309T914 1340T758 1352Q688 1352 627 1340T520 1300T448 1224T422 1106Q422 1052 446 1016T513 954T617 908T752 868Q861 838 951 808T1106 733T1207 625T1243 463Q1243 327 1195 235T1065 86T870 5T631 -20ZM510 -475Q457 -475 413 -468T334 -450T270 -424T221 -395L297 -289Q334 -315 382 -335T505 -356Q585 -356 618 -326T651 -246Q651 -220 637 -204T598 -180T543 -170T477 -170L436 -135L495 14H618L575 -90Q613 -90 651 -96T720 -119T770 -165T790 -242Q790 -306 770 -350T712 -422T624 -462T510 -475Z"/><glyph unicode="ş" horiz-adv-x="1057" d="M442 -20Q284 -20 153 25T-72 150L57 291Q138 228 243 191T461 154Q511 154 554 161T630 187T681 242T700 334Q700 371 680 397T625 442T547 475T455 502Q396 519 336 539T227 593T148 676T117 801Q117 898 150 967T241 1080T381 1144T561 1165Q642 1165 709 1155T832 1127T932 1086T1010 1038L883 883Q857 900 825 917T751 949T660 972T547 981Q439 981 381 945T322 825Q322 790 341 766T393 723T469 690T561 662Q624 643 685 621T794 565T871 480T901 354Q901 245 866 173T768 58T622 -2T442 -20ZM589 -475Q536 -475 492 -468T413 -450T349 -424T300 -395L376 -289Q413 -315 461 -335T584 -356Q664 -356 697 -326T730 -246Q730 -220 716 -204T677 -180T622 -170T556 -170L515 -135L574 14H697L654 -90Q692 -90 730 -96T799 -119T849 -165T869 -242Q869 -306 849 -350T791 -422T703 -462T589 -475Z"/><glyph unicode="Š" horiz-adv-x="1419" d="M549 1939H735L909 1732L1169 1939H1366L995 1603H778L549 1939ZM631 -20Q512 -20 414 -5T231 37T76 102T-57 186L74 340Q187 254 324 208T641 162Q719 162 790 173T915 214T1000 294T1032 422Q1032 485 1007 524T935 591T819 639T662 688Q567 716 484 745T340 818T244 926T209 1090Q209 1177 230 1244T289 1362T379 1446T493 1502T624 1532T766 1542Q885 1542 977 1527T1140 1488T1264 1434T1356 1374L1221 1214Q1187 1240 1143 1265T1041 1309T914 1340T758 1352Q688 1352 627 1340T520 1300T448 1224T422 1106Q422 1052 446 1016T513 954T617 908T752 868Q861 838 951 808T1106 733T1207 625T1243 463Q1243 327 1195 235T1065 86T870 5T631 -20Z"/><glyph unicode="š" horiz-adv-x="1057" d="M554 1591H740L914 1384L1174 1591H1371L1000 1255H783L554 1591ZM442 -20Q284 -20 153 25T-72 150L57 291Q138 228 243 191T461 154Q511 154 554 161T630 187T681 242T700 334Q700 371 680 397T625 442T547 475T455 502Q396 519 336 539T227 593T148 676T117 801Q117 898 150 967T241 1080T381 1144T561 1165Q642 1165 709 1155T832 1127T932 1086T1010 1038L883 883Q857 900 825 917T751 949T660 972T547 981Q439 981 381 945T322 825Q322 790 341 766T393 723T469 690T561 662Q624 643 685 621T794 565T871 480T901 354Q901 245 866 173T768 58T622 -2T442 -20Z"/><glyph unicode="Ţ" horiz-adv-x="1378" d="M313 -465Q352 -447 378 -431T420 -398T446 -361T461 -313H352L399 -80H623L588 -254Q574 -319 558 -365T516 -446T448 -507T344 -557L313 -465ZM709 1319H170L211 1518H1493L1452 1319H915L633 0H426L709 1319Z"/><glyph unicode="ţ" horiz-adv-x="834" d="M12 -465Q51 -447 77 -431T119 -398T145 -361T160 -313H51L98 -80H322L287 -254Q273 -319 257 -365T215 -446T147 -507T43 -557L12 -465ZM141 1139H350L455 1462L614 1493L539 1139H815L780 958H500L369 338Q360 300 358 270T368 219T412 187T500 176H610L575 0Q566 -1 547 -1T507 -2H434Q327 -2 267 22T179 90T152 197T168 340L304 958H102L141 1139Z"/><glyph unicode="Ť" horiz-adv-x="1378" d="M529 1939H715L889 1732L1149 1939H1346L975 1603H758L529 1939ZM709 1319H170L211 1518H1493L1452 1319H915L633 0H426L709 1319Z"/><glyph unicode="ť" horiz-adv-x="834" d="M752 1415Q789 1433 813 1447T854 1478T879 1515T895 1563H799L844 1788H1051L1016 1620Q1003 1556 987 1512T944 1435T879 1377T780 1325L752 1415ZM141 1139H350L455 1462L614 1493L539 1139H815L780 958H500L369 338Q360 300 358 270T368 219T412 187T500 176H610L575 0Q566 -1 547 -1T507 -2H434Q327 -2 267 22T179 90T152 197T168 340L304 958H102L141 1139Z"/><glyph unicode="Ū" horiz-adv-x="1575" d="M694 -27Q517 -27 403 8T222 103T129 242T102 408Q102 456 109 506T127 604L324 1518H530L336 610Q327 565 320 524T313 444Q313 381 332 330T398 243T522 188T715 168Q822 168 898 193T1028 267T1114 389T1167 557L1374 1518H1575L1358 516Q1342 442 1319 373T1260 244T1175 133T1057 48T899 -7T694 -27ZM627 1773H1370L1337 1603H592L627 1773Z"/><glyph unicode="ū" horiz-adv-x="1239" d="M522 -23Q402 -23 319 -5T182 48T101 131T65 242T65 377T90 532L219 1139H420L289 514Q278 464 270 419T263 334T278 263T323 209T407 174T539 162Q625 162 677 183T760 244T808 340T840 467L983 1139H1178L1032 455Q1005 330 973 240T885 91T743 5T522 -23ZM385 1425H1128L1095 1255H350L385 1425Z"/><glyph unicode="Ů" horiz-adv-x="1575" d="M991 1585Q926 1585 880 1602T804 1648T762 1715T748 1798Q748 1870 769 1929T828 2029T920 2094T1038 2117Q1101 2117 1146 2099T1221 2050T1264 1979T1278 1894Q1278 1820 1256 1763T1196 1666T1105 1606T991 1585ZM995 1698Q1071 1698 1118 1746T1165 1882Q1165 1906 1158 1928T1136 1968T1095 1995T1034 2005Q996 2005 964 1991T909 1951T873 1890T860 1812Q860 1763 892 1731T995 1698ZM694 -27Q517 -27 403 8T222 103T129 242T102 408Q102 456 109 506T127 604L324 1518H530L336 610Q327 565 320 524T313 444Q313 381 332 330T398 243T522 188T715 168Q822 168 898 193T1028 267T1114 389T1167 557L1374 1518H1575L1358 516Q1342 442 1319 373T1260 244T1175 133T1057 48T899 -7T694 -27Z"/><glyph unicode="ů" horiz-adv-x="1239" d="M749 1237Q684 1237 638 1254T562 1300T520 1367T506 1450Q506 1522 527 1581T586 1681T678 1746T796 1769Q859 1769 904 1751T979 1702T1022 1631T1036 1546Q1036 1472 1014 1415T954 1318T863 1258T749 1237ZM753 1350Q829 1350 876 1398T923 1534Q923 1558 916 1580T894 1620T853 1647T792 1657Q754 1657 722 1643T667 1603T631 1542T618 1464Q618 1415 650 1383T753 1350ZM522 -23Q402 -23 319 -5T182 48T101 131T65 242T65 377T90 532L219 1139H420L289 514Q278 464 270 419T263 334T278 263T323 209T407 174T539 162Q625 162 677 183T760 244T808 340T840 467L983 1139H1178L1032 455Q1005 330 973 240T885 91T743 5T522 -23Z"/><glyph unicode="Ű" horiz-adv-x="1575" d="M694 -27Q517 -27 403 8T222 103T129 242T102 408Q102 456 109 506T127 604L324 1518H530L336 610Q327 565 320 524T313 444Q313 381 332 330T398 243T522 188T715 168Q822 168 898 193T1028 267T1114 389T1167 557L1374 1518H1575L1358 516Q1342 442 1319 373T1260 244T1175 133T1057 48T899 -7T694 -27ZM848 1939H1083L694 1603H518L848 1939ZM1337 1939H1571L1182 1603H1008L1337 1939Z"/><glyph unicode="ű" horiz-adv-x="1239" d="M522 -23Q402 -23 319 -5T182 48T101 131T65 242T65 377T90 532L219 1139H420L289 514Q278 464 270 419T263 334T278 263T323 209T407 174T539 162Q625 162 677 183T760 244T808 340T840 467L983 1139H1178L1032 455Q1005 330 973 240T885 91T743 5T522 -23ZM606 1591H841L452 1255H276L606 1591ZM1095 1591H1329L940 1255H766L1095 1591Z"/><glyph unicode="Ų" horiz-adv-x="1575" d="M686 -27Q643 -53 608 -80T547 -136T508 -195T494 -258Q494 -275 500 -290T523 -316T569 -333T645 -340Q680 -340 723 -332T805 -309L825 -414Q782 -437 723 -450T608 -463Q527 -463 476 -451T395 -417T354 -368T342 -307Q342 -253 361 -209T410 -130T477 -67T551 -18Q419 -5 333 34T195 131T123 259T102 408Q102 456 109 506T127 604L324 1518H530L336 610Q327 565 320 524T313 444Q313 381 332 330T398 243T522 188T715 168Q822 168 898 193T1028 267T1114 389T1167 557L1374 1518H1575L1358 516Q1342 442 1319 373T1260 244T1175 133T1057 48T899 -7T694 -27H686Z"/><glyph unicode="ų" horiz-adv-x="1239" d="M457 -463Q376 -463 325 -451T243 -417T202 -368T190 -307Q190 -253 209 -209T259 -128T327 -65T403 -16Q312 -7 249 15T147 74T88 158T64 264T67 389T90 532L219 1139H420L289 514Q278 464 270 419T263 334T278 263T323 209T407 174T539 162Q625 162 677 183T760 244T808 340T840 467L983 1139H1178L1032 455Q1005 332 973 243T888 96T751 9T541 -23Q496 -50 460 -77T397 -134T357 -194T342 -258Q342 -275 348 -290T372 -316T418 -333T494 -340Q529 -340 572 -332T653 -309L674 -414Q630 -437 571 -450T457 -463Z"/><glyph unicode="Ÿ" horiz-adv-x="1425" d="M569 584L188 1518H403L711 782L1325 1518H1554L774 578L651 0H444L569 584ZM637 1833H819L772 1603H590L637 1833ZM1052 1833H1235L1188 1603H1005L1052 1833Z"/><glyph unicode="Ź" horiz-adv-x="1335" d="M1044 1939H1294L862 1603H670L1044 1939ZM-41 164L1075 1319H242L283 1518H1384L1350 1337L238 190H1122L1083 0H-76L-41 164Z"/><glyph unicode="ź" horiz-adv-x="1008" d="M1070 1591H1320L888 1255H696L1070 1591ZM-70 145L711 958H141L176 1139H1010L981 989L199 170H827L793 0H-100L-70 145Z"/><glyph unicode="Ż" horiz-adv-x="1335" d="M-41 164L1075 1319H242L283 1518H1384L1350 1337L238 190H1122L1083 0H-76L-41 164ZM794 1843H995L946 1603H743L794 1843Z"/><glyph unicode="ż" horiz-adv-x="1008" d="M-70 145L711 958H141L176 1139H1010L981 989L199 170H827L793 0H-100L-70 145ZM820 1495H1021L972 1255H769L820 1495Z"/><glyph unicode="Ž" horiz-adv-x="1335" d="M508 1939H694L868 1732L1128 1939H1325L954 1603H737L508 1939ZM-41 164L1075 1319H242L283 1518H1384L1350 1337L238 190H1122L1083 0H-76L-41 164Z"/><glyph unicode="ž" horiz-adv-x="1008" d="M534 1591H720L894 1384L1154 1591H1351L980 1255H763L534 1591ZM-70 145L711 958H141L176 1139H1010L981 989L199 170H827L793 0H-100L-70 145Z"/><glyph unicode="ƒ" horiz-adv-x="1133" d="M236 930H469L524 1186Q534 1233 546 1276T576 1356T622 1422T691 1473T788 1506T922 1518H1044L1006 1329H934Q869 1329 830 1314T767 1271T733 1206T713 1126L671 930H995L956 750H632L399 -340H201L431 750H195L236 930Z"/><glyph unicode="Ș" horiz-adv-x="1419" d="M331 -465Q370 -447 396 -431T438 -398T464 -361T479 -313H370L417 -80H641L606 -254Q592 -319 576 -365T534 -446T466 -507T362 -557L331 -465ZM631 -20Q512 -20 414 -5T231 37T76 102T-57 186L74 340Q187 254 324 208T641 162Q719 162 790 173T915 214T1000 294T1032 422Q1032 485 1007 524T935 591T819 639T662 688Q567 716 484 745T340 818T244 926T209 1090Q209 1177 230 1244T289 1362T379 1446T493 1502T624 1532T766 1542Q885 1542 977 1527T1140 1488T1264 1434T1356 1374L1221 1214Q1187 1240 1143 1265T1041 1309T914 1340T758 1352Q688 1352 627 1340T520 1300T448 1224T422 1106Q422 1052 446 1016T513 954T617 908T752 868Q861 838 951 808T1106 733T1207 625T1243 463Q1243 327 1195 235T1065 86T870 5T631 -20Z"/><glyph unicode="ș" horiz-adv-x="1057" d="M149 -465Q188 -447 214 -431T256 -398T282 -361T297 -313H188L235 -80H459L424 -254Q410 -319 394 -365T352 -446T284 -507T180 -557L149 -465ZM442 -20Q284 -20 153 25T-72 150L57 291Q138 228 243 191T461 154Q511 154 554 161T630 187T681 242T700 334Q700 371 680 397T625 442T547 475T455 502Q396 519 336 539T227 593T148 676T117 801Q117 898 150 967T241 1080T381 1144T561 1165Q642 1165 709 1155T832 1127T932 1086T1010 1038L883 883Q857 900 825 917T751 949T660 972T547 981Q439 981 381 945T322 825Q322 790 341 766T393 723T469 690T561 662Q624 643 685 621T794 565T871 480T901 354Q901 245 866 173T768 58T622 -2T442 -20Z"/><glyph unicode="Ț" horiz-adv-x="1378" d="M313 -465Q352 -447 378 -431T420 -398T446 -361T461 -313H352L399 -80H623L588 -254Q574 -319 558 -365T516 -446T448 -507T344 -557L313 -465ZM709 1319H170L211 1518H1493L1452 1319H915L633 0H426L709 1319Z"/><glyph unicode="ț" horiz-adv-x="834" d="M12 -465Q51 -447 77 -431T119 -398T145 -361T160 -313H51L98 -80H322L287 -254Q273 -319 257 -365T215 -446T147 -507T43 -557L12 -465ZM141 1139H350L455 1462L614 1493L539 1139H815L780 958H500L369 338Q360 300 358 270T368 219T412 187T500 176H610L575 0Q566 -1 547 -1T507 -2H434Q327 -2 267 22T179 90T152 197T168 340L304 958H102L141 1139Z"/><glyph unicode="ˆ" horiz-adv-x="1208" d="M674 1591H889L1118 1255H930L758 1462L496 1255H301L674 1591Z"/><glyph unicode="ˇ" horiz-adv-x="1208" d="M373 1591H559L733 1384L993 1591H1190L819 1255H602L373 1591Z"/><glyph unicode="˘" horiz-adv-x="1208" d="M737 1237Q626 1237 558 1264T452 1339T402 1448T389 1581L545 1602Q545 1556 551 1519T579 1457T639 1417T743 1403Q807 1403 851 1417T927 1456T980 1519T1020 1602L1165 1573Q1142 1503 1107 1442T1021 1335T900 1263T737 1237Z"/><glyph unicode="˙" horiz-adv-x="1208" d="M659 1495H860L811 1255H608L659 1495Z"/><glyph unicode="˚" horiz-adv-x="1208" d="M737 1237Q672 1237 626 1254T550 1300T508 1367T494 1450Q494 1522 515 1581T574 1681T666 1746T784 1769Q847 1769 892 1751T967 1702T1010 1631T1024 1546Q1024 1472 1002 1415T942 1318T851 1258T737 1237ZM741 1350Q817 1350 864 1398T911 1534Q911 1558 904 1580T882 1620T841 1647T780 1657Q742 1657 710 1643T655 1603T619 1542T606 1464Q606 1415 638 1383T741 1350Z"/><glyph unicode="˛" horiz-adv-x="1208" d="M408 -463Q327 -463 276 -451T194 -417T153 -368T141 -307Q141 -240 169 -188T240 -97T330 -31T418 14H557Q500 -17 452 -49T369 -114T313 -184T293 -258Q293 -275 299 -290T323 -316T369 -333T444 -340Q480 -340 523 -332T604 -309L625 -414Q581 -437 522 -450T408 -463Z"/><glyph unicode="˜" horiz-adv-x="1208" d="M893 1260Q840 1260 799 1276T723 1311T654 1347T582 1364Q559 1364 538 1356T497 1335T459 1305T422 1268L319 1370Q379 1442 445 1485T590 1528Q643 1528 684 1512T760 1477T828 1441T899 1425Q939 1425 975 1452T1055 1528L1159 1425Q1090 1345 1026 1303T893 1260Z"/><glyph unicode="˝" horiz-adv-x="1208" d="M594 1591H829L440 1255H264L594 1591ZM1083 1591H1317L928 1255H754L1083 1591Z"/><glyph unicode="̄" horiz-adv-x="1208" d="M373 1425H1116L1083 1255H338L373 1425Z"/><glyph unicode="̦" horiz-adv-x="518" d="M-115 -465Q-76 -447 -50 -431T-8 -398T18 -361T33 -313H-76L-29 -80H195L160 -254Q146 -319 130 -365T88 -446T20 -507T-84 -557L-115 -465Z"/><glyph unicode="Δ" horiz-adv-x="1536" d="M76 0L652 1536H884L1456 0H76ZM352 148H1164L752 1256L352 148Z"/><glyph unicode="Ω" horiz-adv-x="1664" d="M832 1376Q644 1376 510 1234T376 836Q376 592 464 432T724 180V0H88V196H536Q416 240 304 406T192 848Q192 1112 358 1330T832 1548Q1140 1548 1306 1338T1472 848Q1472 572 1360 406T1128 196H1576V0H940V180Q1112 272 1200 432T1288 836Q1288 1044 1162 1210T832 1376Z"/><glyph unicode="μ" horiz-adv-x="1247" d="M229 1139H430L297 514Q286 464 278 419T271 334T286 263T331 209T415 174T549 162Q637 162 689 183T771 244T817 340T848 467L991 1139H1186L1040 455Q1014 330 981 240T891 91T749 5T532 -23Q461 -23 408 -14T315 11T250 49T209 98L115 -338H-82L229 1139Z"/><glyph unicode="π" horiz-adv-x="1408" d="M296 0V1028H12V1176H1316V1028H996V344Q996 228 1042 184T1152 140Q1200 140 1232 142T1296 156V28Q1248 4 1206 -6T1088 -16Q960 -16 886 64T812 336V1028H484V0H296Z"/><glyph unicode="–" horiz-adv-x="1419" d="M94 735H1315L1276 549H55L94 735Z"/><glyph unicode="—" horiz-adv-x="1868" d="M94 735H1763L1726 549H55L94 735Z"/><glyph unicode="‘" horiz-adv-x="518" d="M225 1174Q240 1247 257 1299T303 1391T377 1461T492 1524L535 1417Q490 1396 461 1379T413 1342T384 1299T367 1243H489L432 969H182L225 1174Z"/><glyph unicode="’" horiz-adv-x="518" d="M197 1069Q240 1089 269 1106T316 1142T345 1185T362 1241H240L299 1518H547L504 1315Q489 1240 472 1187T427 1095T353 1024T238 963L197 1069Z"/><glyph unicode="‚" horiz-adv-x="518" d="M-61 -147Q-18 -126 10 -109T56 -73T84 -29T102 29H-20L37 301H287L244 96Q229 28 212 -24T166 -116T92 -189T-23 -252L-61 -147Z"/><glyph unicode="“" horiz-adv-x="918" d="M225 1174Q240 1246 257 1297T303 1388T375 1457T487 1518L526 1413Q484 1393 456 1376T410 1341T382 1299T365 1243H483L430 975H184L225 1174ZM631 1174Q646 1246 663 1297T709 1388T780 1457T891 1518L932 1413Q890 1393 862 1376T815 1341T786 1299T768 1243H889L834 975H588L631 1174Z"/><glyph unicode="”" horiz-adv-x="918" d="M199 1077Q242 1097 270 1114T316 1150T345 1192T362 1249H242L299 1518H543L500 1317Q485 1245 469 1194T424 1104T351 1035T238 975L199 1077ZM602 1077Q644 1097 672 1114T719 1150T748 1192T766 1249H645L702 1518H944L905 1317Q890 1245 874 1194T829 1104T756 1035T643 975L602 1077Z"/><glyph unicode="„" horiz-adv-x="918" d="M-61 -143Q-19 -124 9 -108T55 -72T83 -29T100 29H-20L35 295H281L240 96Q225 28 209 -22T164 -113T91 -185T-23 -246L-61 -143ZM342 -143Q384 -124 412 -108T458 -72T486 -29T504 29H385L438 295H684L643 96Q628 28 612 -22T567 -113T494 -185T381 -246L342 -143Z"/><glyph unicode="†" horiz-adv-x="1139" d="M510 928H154L190 1116H547L649 1589H846L743 1116H1102L1065 928H707L436 -340H240L510 928Z"/><glyph unicode="‡" horiz-adv-x="1139" d="M348 176H-8L29 365H385L510 928H154L190 1116H547L649 1589H846L743 1116H1102L1065 928H707L584 365H942L903 176H545L436 -340H240L348 176Z"/><glyph unicode="•" horiz-adv-x="725" d="M207 807H537L463 438H133L207 807Z"/><glyph unicode="…" horiz-adv-x="1485" d="M29 270H279L223 0H-25L29 270ZM512 270H764L707 0H457L512 270ZM997 270H1247L1192 0H942L997 270Z"/><glyph unicode="‰" horiz-adv-x="3197" d="M498 569Q401 569 332 595T217 667T151 779T129 924Q129 1059 164 1172T264 1368T416 1496T612 1542Q709 1542 779 1515T894 1440T960 1326T981 1180Q981 1040 945 927T843 735T690 612T498 569ZM512 729Q580 729 634 764T725 859T781 999T801 1171Q801 1216 791 1253T758 1318T697 1360T604 1376Q532 1376 477 1340T386 1243T330 1102T311 932Q311 888 321 851T355 787T417 745T512 729ZM1657 -23Q1558 -23 1488 3T1373 76T1307 188T1286 332Q1286 466 1321 579T1420 775T1573 904T1769 950Q1867 950 1937 923T2051 848T2117 734T2138 588Q2138 449 2101 336T2000 144T1847 21T1657 -23ZM1667 137Q1735 137 1789 172T1880 267T1936 408T1956 580Q1956 625 1946 663T1913 728T1852 770T1759 786Q1688 786 1634 750T1542 653T1487 511T1468 340Q1468 296 1478 259T1511 195T1573 153T1667 137ZM2589 -23Q2491 -23 2422 3T2307 76T2241 188T2220 332Q2220 466 2255 579T2354 775T2507 904T2703 950Q2800 950 2870 923T2985 848T3052 734T3074 588Q3074 449 3037 336T2934 144T2781 21T2589 -23ZM2603 137Q2670 137 2724 172T2815 267T2872 408T2892 580Q2892 625 2882 663T2848 728T2787 770T2693 786Q2621 786 2567 750T2476 653T2421 511T2402 340Q2402 296 2412 259T2445 195T2507 153T2603 137ZM1622 1518H1810L666 0H477L1622 1518Z"/><glyph unicode="‹" horiz-adv-x="899" d="M139 567L569 1139H750L334 567L506 0H328L139 567Z"/><glyph unicode="›" horiz-adv-x="899" d="M487 571L315 1139H496L684 569L254 0H72L487 571Z"/><glyph unicode="⁄" horiz-adv-x="1032" d="M1014 1518H1194L20 0H-160L1014 1518Z"/><glyph unicode="€" horiz-adv-x="1346" d="M59 686H271Q274 714 278 742Q286 794 295 844H96L127 1004H338Q376 1116 430 1211Q487 1312 564 1385T738 1500T954 1542Q1027 1542 1088 1534T1200 1512T1292 1479T1366 1438L1245 1276Q1221 1292 1192 1306T1128 1331T1049 1348T950 1354Q857 1354 784 1316T656 1213T563 1062Q550 1033 539 1004H1038L1008 844H493Q475 766 466 686H971L938 524H455Q455 503 455 483Q455 408 471 348T523 246T618 181T762 158Q810 158 872 167T1006 215L1096 61Q1005 11 914 -7T739 -25Q608 -25 517 11T369 112T286 270T260 475Q260 499 260 524H29L59 686Z"/><glyph unicode="™" horiz-adv-x="2236" d="M1167 1518H1341L1485 791L1944 1518H2120L1921 586H1769L1913 1247L1495 586H1391L1260 1247L1112 586H969L1167 1518ZM573 1374H258L287 1518H1075L1044 1374H727L559 586H406L573 1374Z"/><glyph unicode="Ω" horiz-adv-x="1664" d="M832 1376Q644 1376 510 1234T376 836Q376 592 464 432T724 180V0H88V196H536Q416 240 304 406T192 848Q192 1112 358 1330T832 1548Q1140 1548 1306 1338T1472 848Q1472 572 1360 406T1128 196H1576V0H940V180Q1112 272 1200 432T1288 836Q1288 1044 1162 1210T832 1376Z"/><glyph unicode="∂" horiz-adv-x="1280" d="M476 -32Q276 -32 166 80T56 360Q56 580 214 750T604 920Q700 920 802 886T964 816Q976 900 976 984Q976 1172 908 1278T720 1384Q592 1384 518 1356T368 1280L324 1444Q400 1488 492 1518T720 1548Q956 1548 1064 1394T1172 968Q1172 552 968 260T476 -32ZM488 128Q660 128 774 268T944 684Q912 716 824 748T648 780Q456 780 360 654T264 372Q264 264 318 196T488 128Z"/><glyph unicode="∆" horiz-adv-x="1536" d="M76 0L652 1536H884L1456 0H76ZM352 148H1164L752 1256L352 148Z"/><glyph unicode="∏" horiz-adv-x="1536" d="M332 0V1348H80V1524H1456V1348H1212V0H1004V1356H540V0H332Z"/><glyph unicode="∑" horiz-adv-x="1152" d="M1084 1524V1344H332L796 784L304 188H1080V0H40V172L560 788L68 1380V1524H1084Z"/><glyph unicode="−" horiz-adv-x="1440" d="M223 817H1241L1200 627H182L223 817Z"/><glyph unicode="∕" horiz-adv-x="1032" d="M1014 1518H1194L20 0H-160L1014 1518Z"/><glyph unicode="∙" horiz-adv-x="518" d="M150 836H399L342 561H94L150 836Z"/><glyph unicode="√" horiz-adv-x="1370" d="M135 858H338L446 242L1221 1518H1421L498 -10H291L135 858Z"/><glyph unicode="∞" horiz-adv-x="1778" d="M489 369Q399 369 330 392T214 458T143 564T119 705Q119 784 143 846T215 952T331 1019T489 1042Q556 1042 614 1020T724 962T822 878Q852 849 880 819Q908 849 937 878Q984 925 1035 961T1142 1020T1264 1042Q1341 1042 1408 1024T1526 966T1605 861T1634 705Q1634 614 1605 551T1526 447T1408 388T1264 369Q1175 369 1102 407T964 502Q917 544 875 590Q832 544 785 502Q721 445 649 407T489 369ZM731 751Q676 809 619 847T496 885Q390 885 336 839T281 705Q281 618 335 572T496 526Q545 526 589 548T677 606T762 689Q769 697 775 705Q753 729 731 751ZM997 689Q1039 643 1081 607T1168 548T1262 526Q1305 526 1343 535T1411 564T1456 619T1473 705Q1473 756 1457 790T1412 846T1345 876T1262 885Q1197 885 1139 847T1023 751L980 708Q989 699 997 689Z"/><glyph unicode="∫" horiz-adv-x="1152" d="M-8 -392L56 -260Q80 -268 104 -274T164 -280Q212 -280 242 -246T288 -112L516 1224Q544 1384 636 1464T880 1544Q972 1544 1042 1522T1152 1476L1088 1304Q1044 1332 988 1356T868 1380Q776 1380 730 1322T672 1188L448 -224Q428 -332 350 -382T176 -432Q116 -432 66 -420T-8 -392Z"/><glyph unicode="≈" horiz-adv-x="1536" d="M236 400Q228 444 228 480Q228 580 288 652T476 724Q576 724 650 696T788 642T912 598T1020 580Q1096 580 1128 610T1160 684Q1160 700 1156 716H1300Q1308 672 1308 636Q1308 536 1248 464T1060 392Q960 392 886 418T748 470T624 512T516 528Q440 528 408 500T376 432Q376 416 380 400H236ZM236 860Q228 904 228 940Q228 1040 288 1112T476 1184Q576 1184 650 1156T788 1102T912 1058T1020 1040Q1096 1040 1128 1070T1160 1144Q1160 1160 1156 1176H1300Q1308 1132 1308 1096Q1308 996 1248 924T1060 852Q960 852 886 878T748 930T624 972T516 988Q440 988 408 960T376 892Q376 876 380 860H236Z"/><glyph unicode="≠" horiz-adv-x="1440" d="M414 399H147L184 582H535L727 862H244L283 1042H840L993 1272H1163L1008 1042H1276L1241 862H887L694 582H1180L1143 399H584L430 172H260L414 399Z"/><glyph unicode="≤" horiz-adv-x="1440" d="M199 659L225 795L1245 1243L1208 1059L414 721L1063 383L1026 211L199 659ZM98 201H1022L987 29H63L98 201Z"/><glyph unicode="≥" horiz-adv-x="1440" d="M219 387L1012 725L362 1061L401 1243L1231 795L1202 659L184 211L219 387ZM180 201H1102L1067 29H145L180 201Z"/><glyph unicode="◊" horiz-adv-x="1292" d="M84 760L549 1518H743L1208 760L741 0H549L84 760ZM1008 754L643 1356L283 760L645 162L1008 754Z"/><glyph unicode="" horiz-adv-x="1704" d="M338 1356Q441 1450 572 1502T852 1554Q1001 1554 1133 1502T1368 1356L1354 1339Q1254 1430 1126 1482T852 1534Q706 1534 579 1482T352 1339L338 1356ZM852 -35Q703 -35 571 18T336 164L350 180Q450 89 578 38T852 -14Q997 -14 1124 37T1352 178Q1352 179 1359 172Q1362 168 1366 164Q1263 70 1132 18T852 -35ZM1442 250Q1440 252 1437 254T1430 260Q1515 362 1562 489T1610 760Q1610 903 1563 1030T1430 1260L1446 1274Q1533 1171 1581 1040T1630 760Q1630 613 1582 482T1446 246L1442 250ZM258 246Q171 349 123 480T74 760Q74 906 122 1037T258 1272Q259 1271 262 1269Q264 1267 266 1265T272 1260Q189 1157 142 1030T94 760Q94 616 141 489T274 260Q270 257 267 255T262 250L258 246ZM852 123Q731 123 627 164T440 281Q443 285 447 289Q455 297 455 295Q535 224 636 184T852 143Q967 143 1068 183T1247 295Q1250 290 1254 287T1262 279Q1180 206 1076 165T852 123ZM1249 1223Q1171 1295 1070 1335T852 1376Q737 1376 636 1336T455 1225L440 1239Q524 1313 628 1355T852 1397Q971 1397 1075 1355T1264 1239L1249 1223ZM375 348Q306 433 267 537T227 760Q227 877 266 981T373 1169Q376 1166 380 1163T389 1155Q323 1075 286 974T248 760Q248 645 285 544T389 362L375 348ZM1329 350Q1326 353 1322 356T1315 362Q1381 444 1418 544T1456 760Q1456 874 1419 974T1313 1155L1329 1169Q1398 1086 1437 982T1477 760Q1477 642 1438 538T1329 350ZM1167 1130Q1104 1187 1024 1219T852 1251Q761 1251 682 1220T539 1133L524 1147Q590 1206 674 1239T852 1272Q948 1272 1032 1239T1182 1147Q1179 1142 1175 1138T1167 1130ZM852 248Q756 248 672 281T522 373L537 389Q600 332 680 300T852 268Q943 268 1023 300T1165 389Q1168 384 1172 381T1180 373Q1115 314 1032 281T852 248ZM1237 432Q1236 433 1233 435Q1230 437 1221 446Q1275 511 1304 590T1333 760Q1333 850 1304 930T1221 1073L1237 1087Q1293 1021 1323 938T1354 760Q1354 666 1324 582T1237 432ZM467 432Q413 498 382 582T350 760Q350 854 380 936T465 1087Q470 1084 473 1080T481 1073Q430 1010 401 930T371 760Q371 670 400 590T481 446Q478 441 474 438T467 432ZM852 348Q777 348 710 375T588 449L602 463Q653 418 716 394T852 369Q923 369 986 393T1100 463Q1103 458 1107 455T1114 446Q1061 400 994 374T852 348ZM1163 498L1156 505Q1152 509 1147 512Q1189 563 1212 626T1235 760Q1235 831 1212 894T1147 1008L1163 1022Q1207 968 1231 902T1255 760Q1255 684 1231 618T1163 498ZM541 498Q497 552 473 618T449 760Q449 834 473 901T541 1022Q546 1019 549 1015T557 1008Q515 957 492 894T469 760Q469 689 492 626T557 512Q552 509 549 505T541 498ZM590 1073Q642 1120 709 1145T852 1171Q927 1171 994 1145T1114 1071Q1115 1071 1113 1069T1109 1064Q1106 1060 1102 1057Q1051 1102 987 1126T852 1151Q781 1151 718 1127T604 1057L590 1073ZM1106 551Q1101 554 1098 558T1090 565Q1120 605 1138 654T1157 760Q1157 816 1138 865T1087 954L1104 969Q1139 925 1158 873T1178 760Q1178 700 1159 647T1106 551ZM641 1014Q684 1051 738 1071T852 1092Q912 1092 965 1071T1061 1012L1049 997Q1008 1032 959 1051T852 1071Q796 1071 746 1051T655 997L641 1014ZM852 428Q792 428 738 449T641 506L655 522Q696 488 746 469T852 449Q908 449 958 468T1049 522Q1052 519 1055 515T1061 506Q1019 471 966 450T852 428ZM598 551Q564 594 545 647T526 760Q526 820 545 872T600 969L614 954Q583 914 565 865T547 760Q547 704 565 655T614 565L607 558Q603 554 598 551ZM1042 608Q1065 639 1079 677T1094 760Q1094 803 1080 842T1040 913L1057 928Q1114 856 1114 760Q1114 663 1057 594L1042 608ZM647 592Q590 664 590 760Q590 857 647 926Q650 923 654 920T662 911Q639 880 625 842T610 760Q610 716 624 677T664 606Q659 603 656 599T647 592ZM852 492Q802 492 759 508T682 553L696 569Q728 543 768 528T852 512Q897 512 936 527T1006 569L1020 555Q986 526 944 509T852 492ZM684 965Q718 994 761 1011T852 1028Q900 1028 943 1012T1020 967L1006 950Q975 976 936 992T852 1008Q809 1008 770 993T698 950L684 965ZM733 911Q727 916 723 921T717 928Q745 951 779 964T852 977Q890 977 924 964T987 928L971 911Q920 956 852 956Q784 956 733 911ZM684 627Q664 655 653 688T641 760Q641 797 652 831T684 893Q689 890 693 886L700 879Q682 854 672 824T662 760Q662 728 672 698T700 643L684 627ZM852 543Q814 543 780 556T717 592L731 608Q756 587 787 575T852 563Q886 563 916 575T971 608Q974 603 978 600T985 592Q957 569 924 556T852 543ZM1020 627Q1015 630 1011 634L1004 641Q1022 666 1032 696T1042 760Q1042 794 1032 824T1004 879L1018 893Q1063 836 1063 760Q1063 723 1052 690T1020 627Z"/><glyph unicode="ﬀ" horiz-adv-x="1452" d="M963 958H517L242 -338H41L318 958H102L141 1139H356L381 1253Q399 1338 428 1401T507 1506T629 1568T805 1589H918L883 1415H809Q747 1415 707 1402T640 1364T599 1306T575 1231L555 1139H1001L1026 1253Q1044 1338 1074 1401T1153 1506T1274 1568T1450 1589H1579L1544 1415H1454Q1393 1415 1353 1402T1286 1364T1244 1306T1219 1231L1199 1139H1483L1446 958H1161L887 -338H686L963 958Z"/><glyph unicode="ﬁ" horiz-adv-x="1278" d="M141 1139H356L381 1253Q399 1338 428 1401T507 1506T629 1568T805 1589H918L883 1415H809Q747 1415 707 1402T640 1364T599 1306T575 1231L555 1139H821L786 958H517L242 -338H41L318 958H102L141 1139ZM1001 1139H1200L958 0H760L1001 1139ZM1081 1518H1280L1231 1276H1030L1081 1518Z"/><glyph unicode="ﬂ" horiz-adv-x="1384" d="M141 1139H356L381 1253Q399 1338 428 1401T507 1506T629 1568T805 1589H918L883 1415H809Q747 1415 707 1402T640 1364T599 1306T575 1231L555 1139H821L786 958H517L242 -338H41L318 958H102L141 1139ZM1026 -2Q948 -2 901 17T831 77T808 179T827 326L1098 1589H1296L1024 317Q1015 277 1014 250T1022 207T1054 183T1118 176H1167L1130 2Q1115 0 1086 -1T1026 -2Z"/><glyph unicode="ﬃ" horiz-adv-x="1923" d="M963 958H517L242 -338H41L318 958H102L141 1139H356L381 1253Q399 1338 428 1401T507 1506T629 1568T805 1589H918L883 1415H809Q747 1415 707 1402T640 1364T599 1306T575 1231L555 1139H1001L1026 1253Q1044 1338 1074 1401T1153 1506T1274 1568T1450 1589H1561L1526 1415H1454Q1393 1415 1353 1402T1286 1364T1244 1306T1219 1231L1199 1139H1466L1430 958H1161L887 -338H686L963 958ZM1645 1139H1843L1602 0H1403L1645 1139ZM1724 1518H1925L1874 1276H1675L1724 1518Z"/><glyph unicode="ﬄ" horiz-adv-x="2030" d="M963 958H517L242 -338H41L318 958H102L141 1139H356L381 1253Q399 1338 428 1401T507 1506T629 1568T805 1589H918L883 1415H809Q747 1415 707 1402T640 1364T599 1306T575 1231L555 1139H1001L1026 1253Q1044 1338 1074 1401T1153 1506T1274 1568T1450 1589H1561L1526 1415H1454Q1393 1415 1353 1402T1286 1364T1244 1306T1219 1231L1199 1139H1466L1430 958H1161L887 -338H686L963 958ZM1671 -2Q1592 -2 1545 17T1475 77T1452 179T1470 326L1741 1589H1939L1667 317Q1659 277 1658 250T1666 207T1697 183T1761 176H1810L1774 2Q1760 0 1730 -1T1671 -2Z"/></font>
</defs>
</svg>
